<?xml version="1.0" encoding="utf-8"?>
<!-- Generator: Adobe Illustrator 27.5.0, SVG Export Plug-In . SVG Version: 6.00 Build 0)  -->
<svg version="1.1" id="图层_1" xmlns="http://www.w3.org/2000/svg" xmlns:xlink="http://www.w3.org/1999/xlink" x="0px" y="0px"
	 viewBox="0 0 466.65 378.34" style="enable-background:new 0 0 466.65 378.34;" xml:space="preserve">
<style type="text/css">
	.st0{fill:#63B353;}
	.st1{fill:#8AD980;stroke:#000000;stroke-width:5;}
</style>
<g id="雷电">
	<path class="st0" d="M190.02,151.17l15.72-2.16c41.61,15.23,89.38,48.46,120.84,83.11c0.47,0.51,0.11,1.34-0.59,1.35
		c-36.71,0.45-88.87-6-144.29-13.9c-40.56-10.99-76.52-27.06-106.31-49.92c-43.56-43.68,0-64.71,67.48-36.06L190.02,151.17z"/>
	<path class="st0" d="M291.72,203.87l48.07-17.56c11.38-3.53,17.56,6.47,10.17,15.72l-23.38,30.1L291.72,203.87z"/>
	<path class="st0" d="M284.32,197.39L276,154.86c-0.93-3.7,7.4,1.85,8.32,4l24.04,44.06l12.95,28.65l18.49,47.15
		c3.7,11.09-8.32,6.47-14.79-5.55l-24.96-43.45L284.32,197.39z"/>
	<path class="st0" d="M115.14,189.99l73.03,142.37c19.41,42.53,68.41,52.69,59.16,16.64l-40.95-115.05
		c-0.36-1.01,0.15-2.14,1.17-2.53l21.29-8.15l-48.99-73.03L142.88,31.91c-7.4-27.74-38.83-44.37-39.76-20.34l5.55,120.18
		L115.14,189.99z"/>
	<path class="st0" d="M245.49,168.73l6.13-24.5c0.02-0.09,0.14-0.05,0.13,0.02l-4.41,29.09L245.49,168.73z"/>
	<path class="st0" d="M84.53,81.81l29.69,12.04l-2.77,0.93L84.42,82.05C84.26,81.99,84.37,81.75,84.53,81.81z"/>
	<path class="st0" d="M112.66,229.85l31.55,5.54l-2.52,1.48l-29.09-6.77C112.43,230.08,112.48,229.81,112.66,229.85z"/>
	<path class="st0" d="M151.56,308.32l32.03-0.2l-2.21,1.91l-29.83-1.45C151.39,308.59,151.39,308.32,151.56,308.32z"/>
	<path class="st0" d="M74.47,126.21c-31.43-9.25-36.06,3.7-12.02,20.34"/>
	<path class="st0" d="M67.36,127.68L63.1,82.94c0.09-5.45,8.42-3.87,7.99,0.48L67.36,127.68z"/>
	<path class="st0" d="M66.98,131.92l-27.55,18.04c-3.51,1.75-4.69-5.05-1.79-6.17L66.98,131.92z"/>
	<path class="st0" d="M67.23,129.13l5.78,57.2c-0.07,6.97-10.81,4.89-10.29-0.68L67.23,129.13z"/>
	<path class="st0" d="M67.12,131.4l33.79-17.38c4.32-1.66,5.85,5.18,2.28,6.23L67.12,131.4z"/>
</g>
<g id="六边形">
	<polygon class="st1" points="301.16,206.15 301.16,284.12 368.68,323.1 436.2,284.12 436.2,206.15 368.68,167.17 	"/>
</g>
</svg>
