<?xml version="1.0" encoding="utf-8"?>
<!-- Generator: Adobe Illustrator 27.5.0, SVG Export Plug-In . SVG Version: 6.00 Build 0)  -->
<svg version="1.1" id="图层_1" xmlns="http://www.w3.org/2000/svg" xmlns:xlink="http://www.w3.org/1999/xlink" x="0px" y="0px"
	 viewBox="0 0 465.08 376.41" style="enable-background:new 0 0 465.08 376.41;" xml:space="preserve">
<style type="text/css">
	.st0{fill:#48B38F;}
	.st1{fill:#FF6560;}
	.st2{fill:#FFD647;}
</style>
<g>
	<path class="st0" d="M266.61,4.01c2.43-0.08,12.01,0.15,9.89,8.95L263.91,64.6c0,0,11.9,7.4,12.66,10.7
		c0.76,3.29-1.52,10.89-5.82,13.16c-4.3,2.28-15.14,0.38-15.14,0.38c-0.51,0.09-12.52,29.87-12.52,29.87l71.96,31.23l27.72-35.69
		l16.33,5.32l0.66,9.68l12.25,4.37l-11.2,29.24c-1.27,7.47,2.85,16.9-2.09,18.99c-4.94,2.09-11.65,1.33-17.56,0.28
		c-6.57,6.52-13.95,17.8-19.7,19.56c-5.74,1.76-20.78-0.68-23.59-4.84c-2.85-4.22,8.86-13.04,13.29-19.56l-93.41-14.81l-45.57,42.15
		c8.61,4.56,25.22,8.19,25.82,13.67c0.6,5.47-6.68,14.27-10.63,16.71c-3.96,2.44-23.56-2.64-35.34-3.95l-61.48,77.62
		c0,0-19.25,10.49-27.34-1.9l36.17-86.04c0,0-34.43-9.37-38.61-18.39c-3.01-6.51,4.28-22.43,12.28-24.64
		c18.15-5.02,45.98,3.39,45.98,3.39l11.99-28.76c0,0-104.23-39.93-90.56-62.21s101.26,6.08,101.26,6.08s16.2-18.23,42.53-6.08
		l16.64-19.18c0,0-29.49-13.86-27.02-21.96s4.97-7.63,4.97-7.63s12.63-6.88,46.23,7.36l41.01-44.66
		C266.06,4.04,266.26,4.02,266.61,4.01z"/>
</g>
<g>
	<polygon class="st1" points="309.62,277.36 309.62,209.79 368.15,176 426.67,209.79 426.67,277.36 368.15,311.15 	"/>
	<path class="st2" d="M368.15,186.39l49.52,28.59v57.19l-49.52,28.59l-49.52-28.59v-57.19L368.15,186.39 M368.15,165.61
		l-67.52,38.98v77.97l67.52,38.98l67.52-38.98v-77.97L368.15,165.61L368.15,165.61z"/>
</g>
</svg>
