<?xml version="1.0" encoding="utf-8"?>
<!-- Generator: Adobe Illustrator 27.5.0, SVG Export Plug-In . SVG Version: 6.00 Build 0)  -->
<svg version="1.1" id="图层_1" xmlns="http://www.w3.org/2000/svg" xmlns:xlink="http://www.w3.org/1999/xlink" x="0px" y="0px"
	 viewBox="0 0 461.52 378.34" style="enable-background:new 0 0 461.52 378.34;" xml:space="preserve">
<style type="text/css">
	.st0{fill:#63B353;}
	.st1{fill:#9DCB9A;}
	.st2{fill:#8AD980;stroke:#000000;stroke-width:5;}
</style>
<g id="水战">
	<g>
		<g>
			<polygon class="st0" points="124.5,181.87 167.81,101.84 232.78,107.88 164.19,173.13 			"/>
			<path class="st0" d="M120.89,118.71c-39.7,3.61-57.75-46.92-21.65-57.75c34.94-4.92,68.82-7.2,101.06-5.41
				c83.56,1.32,155.88,8.39,196.7,31.58c-27.35,9.62-62.96,18.54-148.88,23.16L120.89,118.71z"/>
			<path class="st0" d="M328.42,73.59l45.11-66.77c7.22-10.83,18.05-9.02,18.05,7.22l-3.61,70.38L328.42,73.59z"/>
			<path class="st0" d="M369.92,71.79l75.79,21.65c17.68,5.47,3.61,10.83-18.05,7.22L365.7,88.03L369.92,71.79z"/>
			<path class="st0" d="M167.81,57.35c6-11.2,13.29-21.05,23.62-27.71c3.11-2,6.88-2.73,10.52-2.11
				c47.57,8.09,76.38,23.75,106.61,38.85L167.81,57.35z"/>
			<path class="st0" d="M279.5,101.84l168.03,42.13c37.9,10.83-10.83,16.24-55.94,6.82l-223.77-42.91L102.85,75.4L18.03,41.11
				c-18.05-9.02-1.8-10.83,25.26-5.41l173.24,43.31L279.5,101.84z"/>
			<path class="st0" d="M295.95,222.76c19.28,15.37,43.32,17.6,71.41,8.68c1.6-0.51,2.81-1.83,3.22-3.46l1.84-7.37
				c0.63-2.53-0.85-5.09-3.35-5.85c-27.18-8.22-51.82-9.81-72.19-0.24C293.62,216.05,293.13,220.51,295.95,222.76z"/>
			<polygon class="st0" points="344.66,138.56 328.42,212.24 339.25,214.35 356.99,138.56 			"/>
			<path class="st0" d="M13.6,135.55c17.54,12.38,38.01,12.53,60.96,2.3c1.31-0.58,2.22-1.87,2.43-3.37l0.94-6.8
				c0.32-2.33-1.14-4.53-3.31-5.02c-23.61-5.32-44.53-4.84-60.92,5.38C11.08,129.67,11.04,133.74,13.6,135.55z"/>
			<polygon class="st0" points="68.56,57.35 39.69,124.12 50.52,122.32 75.78,59.16 			"/>
			<path class="st0" d="M315.25,171.08c-113.67,0.75-218.98,0.84-311.04,14.96c-3.84,0.59-5.52,5.16-3.05,8.16
				c42.28,51.3,203.69,49.98,316.09-11.16c1.35-0.74,2.29-2.06,2.54-3.58l0.43-2.56C320.73,173.84,318.35,171.06,315.25,171.08z"/>
			<path class="st0" d="M99.87,87.45L63.92,29.72c-3.73-7.53,6.47-12.19,9.05-5.88L99.87,87.45z"/>
			<path class="st0" d="M101.26,90.12l-12.93,65.91c-2.44,7.76-13.77,1.68-11.3-4.35L101.26,90.12z"/>
		</g>
	</g>
	<g>
		<g>
			<polygon class="st1" points="124.5,181.87 167.81,101.84 232.78,107.88 164.19,173.13 			"/>
			<path class="st1" d="M120.89,118.71c-39.7,3.61-57.75-46.92-21.65-57.75c34.94-4.92,68.82-7.2,101.06-5.41
				c83.56,1.32,155.88,8.39,196.7,31.58c-27.35,9.62-62.96,18.54-148.88,23.16L120.89,118.71z"/>
			<path class="st1" d="M328.42,73.59l45.11-66.77c7.22-10.83,18.05-9.02,18.05,7.22l-3.61,70.38L328.42,73.59z"/>
			<path class="st1" d="M369.92,71.79l75.79,21.65c17.68,5.47,3.61,10.83-18.05,7.22L365.7,88.03L369.92,71.79z"/>
			<path class="st1" d="M167.81,57.35c6-11.2,13.29-21.05,23.62-27.71c3.11-2,6.88-2.73,10.52-2.11
				c47.57,8.09,76.38,23.75,106.61,38.85L167.81,57.35z"/>
			<path class="st1" d="M279.5,101.84l168.03,42.13c37.9,10.83-10.83,16.24-55.94,6.82l-223.77-42.91L102.85,75.4L18.03,41.11
				c-18.05-9.02-1.8-10.83,25.26-5.41l173.24,43.31L279.5,101.84z"/>
			<path class="st1" d="M295.95,222.76c19.28,15.37,43.32,17.6,71.41,8.68c1.6-0.51,2.81-1.83,3.22-3.46l1.84-7.37
				c0.63-2.53-0.85-5.09-3.35-5.85c-27.18-8.22-51.82-9.81-72.19-0.24C293.62,216.05,293.13,220.51,295.95,222.76z"/>
			<polygon class="st1" points="344.66,138.56 328.42,212.24 339.25,214.35 356.99,138.56 			"/>
			<path class="st1" d="M13.6,135.55c17.54,12.38,38.01,12.53,60.96,2.3c1.31-0.58,2.22-1.87,2.43-3.37l0.94-6.8
				c0.32-2.33-1.14-4.53-3.31-5.02c-23.61-5.32-44.53-4.84-60.92,5.38C11.08,129.67,11.04,133.74,13.6,135.55z"/>
			<polygon class="st1" points="68.56,57.35 39.69,124.12 50.52,122.32 75.78,59.16 			"/>
			<path class="st1" d="M315.25,171.08c-113.67,0.75-218.98,0.84-311.04,14.96c-3.84,0.59-5.52,5.16-3.05,8.16
				c42.28,51.3,203.69,49.98,316.09-11.16c1.35-0.74,2.29-2.06,2.54-3.58l0.43-2.56C320.73,173.84,318.35,171.06,315.25,171.08z"/>
			<path class="st1" d="M99.87,87.45L63.92,29.72c-3.73-7.53,6.47-12.19,9.05-5.88L99.87,87.45z"/>
			<path class="st1" d="M101.26,90.12l-12.93,65.91c-2.44,7.76-13.77,1.68-11.3-4.35L101.26,90.12z"/>
		</g>
	</g>
</g>
<g id="六边形">
	<polygon class="st2" points="289.52,206.15 289.52,284.12 357.05,323.1 424.56,284.12 424.56,206.15 357.05,167.17 	"/>
</g>
</svg>
