<?xml version="1.0" encoding="utf-8"?>
<!-- Generator: Adobe Illustrator 27.5.0, SVG Export Plug-In . SVG Version: 6.00 Build 0)  -->
<svg version="1.1" id="图层_1" xmlns="http://www.w3.org/2000/svg" xmlns:xlink="http://www.w3.org/1999/xlink" x="0px" y="0px"
	 viewBox="0 0 466.65 378.34" style="enable-background:new 0 0 466.65 378.34;" xml:space="preserve">
<style type="text/css">
	.st0{fill:#63B353;}
	.st1{fill:#61AD53;}
	.st2{fill:#8AD980;}
	.st3{fill:#AFEEAB;}
</style>
<g id="绿飞机_x28_021_x29_">
	<g>
		<g>
			<path class="st0" d="M100.83,151.75c-11.66,4.86-15.1,10.23-14.25,15.86c2.2,5.99,12.1,6.44,24.15,5.35L100.83,151.75z"/>
			<path class="st0" d="M128.68,127.45l34.91-19.39c9.79-10.62,18.6-18.79,25.54-22.36c19.54-5.4,39.42-3.06,59.37,1.23
				L128.68,127.45z"/>
			<path class="st0" d="M400.49,56.29c-104.09,74.39-193.06,109.9-277.32,133.24c-26.21,5.77-37.14-51.95-17.27-58.75
				C233.03,81.1,332.11,55.51,400.49,56.29z"/>
			<path class="st0" d="M221.93,126.1l198,85.01c6.38,3.35,10.1,8,7.28,14.56c-7.01,10.37-26.46,9.23-47.68,6.47l-201.07-63.88
				L221.93,126.1z"/>
			<path class="st0" d="M119.61,133.07L4.06,47.88c-6.5-8.53-5.37-13.91,4.6-15.65c6.48-0.5,14.01,0.55,23.27,3.14l152.16,69.41
				L119.61,133.07z"/>
			<path class="st0" d="M303.62,117.32c-29.27,15.67-41.49,26.26-28.63,31.56l-22.2,3.51l-11.41-14.93l54.75-27.26L303.62,117.32z"
				/>
			<path class="st0" d="M314.39,70.18l-27.38-26.1c-4.64-6.64,2.1-8.19,17.56-4.87l67.82,19.94l63.88,28.15
				c13.39,6.87,2.93,15.24-20.25,11.05L354.2,83.24L314.39,70.18z"/>
			<path class="st0" d="M334.44,52.58L368.6,5.3c4.91-7.06,15.34-3.99,15.84,2.47l6.2,50.86C371.7,64.51,352.97,62.09,334.44,52.58z
				"/>
			<polygon class="st0" points="230.56,52.99 242.72,96.9 239.44,97.68 			"/>
			<path class="st0" d="M96.7,162.08c0,0-4.05-38.89-2.7-41.99s3.37-1.84,3.18,0.28C96.95,123.07,96.7,162.08,96.7,162.08z"/>
			<path class="st0" d="M96.26,162.54c0,0-17.75,12.93-19.71,12.39s-1.99-2.76-0.9-3.07C77.06,171.45,96.26,162.54,96.26,162.54z"/>
			<path class="st0" d="M97.21,163.35c0,0,36.16,21.84,38.05,24.93c1.9,3.09-0.38,3.93-2.11,2.41
				C130.95,188.74,97.21,163.35,97.21,163.35z"/>
		</g>
		<g>
			<path class="st1" d="M100.83,151.75c-11.66,4.86-15.1,10.23-14.25,15.86c2.2,5.99,12.1,6.44,24.15,5.35L100.83,151.75z"/>
			<path class="st1" d="M128.68,127.45l34.91-19.39c9.79-10.62,18.6-18.79,25.54-22.36c19.54-5.4,39.42-3.06,59.37,1.23
				L128.68,127.45z"/>
			<path class="st1" d="M400.49,56.29c-104.09,74.39-193.06,109.9-277.32,133.24c-26.21,5.77-37.14-51.95-17.27-58.75
				C233.03,81.1,332.11,55.51,400.49,56.29z"/>
			<path class="st1" d="M221.93,126.1l198,85.01c6.38,3.35,10.1,8,7.28,14.56c-7.01,10.37-26.46,9.23-47.68,6.47l-201.07-63.88
				L221.93,126.1z"/>
			<path class="st1" d="M119.61,133.07L4.06,47.88c-6.5-8.53-5.37-13.91,4.6-15.65c6.48-0.5,14.01,0.55,23.27,3.14l152.16,69.41
				L119.61,133.07z"/>
			<path class="st1" d="M303.62,117.32c-29.27,15.67-41.49,26.26-28.63,31.56l-22.2,3.51l-11.41-14.93l54.75-27.26L303.62,117.32z"
				/>
			<path class="st1" d="M314.39,70.18l-27.38-26.1c-4.64-6.64,2.1-8.19,17.56-4.87l67.82,19.94l63.88,28.15
				c13.39,6.87,2.93,15.24-20.25,11.05L354.2,83.24L314.39,70.18z"/>
			<path class="st1" d="M334.44,52.58L368.6,5.3c4.91-7.06,15.34-3.99,15.84,2.47l6.2,50.86C371.7,64.51,352.97,62.09,334.44,52.58z
				"/>
			<polygon class="st1" points="230.56,52.99 242.72,96.9 239.44,97.68 			"/>
			<path class="st1" d="M96.7,162.08c0,0-4.05-38.89-2.7-41.99s3.37-1.84,3.18,0.28C96.95,123.07,96.7,162.08,96.7,162.08z"/>
			<path class="st1" d="M96.26,162.54c0,0-17.75,12.93-19.71,12.39s-1.99-2.76-0.9-3.07C77.06,171.45,96.26,162.54,96.26,162.54z"/>
			<path class="st1" d="M97.21,163.35c0,0,36.16,21.84,38.05,24.93c1.9,3.09-0.38,3.93-2.11,2.41
				C130.95,188.74,97.21,163.35,97.21,163.35z"/>
		</g>
	</g>
</g>
<g id="六边形">
	<g>
		<polygon class="st2" points="310.16,278.92 310.16,211.34 368.68,177.56 427.2,211.34 427.2,278.92 368.68,312.71 		"/>
		<path class="st3" d="M368.68,187.95l49.52,28.59v57.19l-49.52,28.59l-49.52-28.59v-57.19L368.68,187.95 M368.68,167.17
			l-67.52,38.98v77.97l67.52,38.98l67.52-38.98v-77.97L368.68,167.17L368.68,167.17z"/>
	</g>
</g>
</svg>
