<?xml version="1.0" encoding="utf-8"?>
<!-- Generator: Adobe Illustrator 27.5.0, SVG Export Plug-In . SVG Version: 6.00 Build 0)  -->
<svg version="1.1" id="图层_1" xmlns="http://www.w3.org/2000/svg" xmlns:xlink="http://www.w3.org/1999/xlink" x="0px" y="0px"
	 viewBox="0 0 466.65 378.34" style="enable-background:new 0 0 466.65 378.34;" xml:space="preserve">
<style type="text/css">
	.st0{fill:#9383F1;}
	.st1{fill:#8AD980;stroke:#000000;stroke-width:5;}
</style>
<g id="绿飞机_x28_021_x29_">
	<g>
		<g>
			<path class="st0" d="M105.91,157.55c-12.34,5.07-16,10.73-15.13,16.68c2.29,6.34,12.74,6.86,25.47,5.77L105.91,157.55z"/>
			<path class="st0" d="M135.44,132.03l36.96-20.3c10.39-11.17,19.73-19.75,27.08-23.48c20.66-5.61,41.64-3.04,62.69,1.59
				L135.44,132.03z"/>
			<path class="st0" d="M422.81,58.24c-110.28,78.03-204.41,115.09-293.5,139.32c-27.7,5.96-38.96-55.04-17.94-62.12
				C245.86,83.6,350.61,57.07,422.81,58.24z"/>
			<path class="st0" d="M233.92,131.06l208.65,90.75c6.72,3.57,10.63,8.5,7.61,15.41c-7.45,10.92-27.99,9.62-50.38,6.6l-212-68.45
				L233.92,131.06z"/>
			<path class="st0" d="M125.84,137.92L4.25,47.39c-6.82-9.04-5.6-14.72,4.94-16.5c6.85-0.5,14.79,0.65,24.56,3.43l160.33,74.05
				L125.84,137.92z"/>
			<path class="st0" d="M320.22,122.2c-30.99,16.4-43.94,27.52-30.39,33.18l-23.46,3.6l-11.97-15.82l57.95-28.51L320.22,122.2z"/>
			<path class="st0" d="M331.83,72.48l-28.78-27.7c-4.87-7.03,2.26-8.64,18.57-5.05l71.51,21.39l67.31,30.04
				c14.1,7.32,3.02,16.11-21.44,11.57l-65.2-16.27L331.83,72.48z"/>
			<path class="st0" d="M353.09,53.99L389.4,4.23c5.22-7.43,16.22-4.14,16.71,2.69l6.29,53.74
				C392.37,66.77,372.61,64.13,353.09,53.99z"/>
			<polygon class="st0" points="243.39,53.91 256.02,100.33 252.55,101.14 			"/>
			<path class="st0" d="M101.5,168.44c0,0-4.08-41.09-2.64-44.35s3.57-1.93,3.36,0.31C101.96,127.25,101.5,168.44,101.5,168.44z"/>
			<path class="st0" d="M101.04,168.92c0,0-18.81,13.57-20.87,12.98s-2.09-2.92-0.93-3.25C80.72,178.23,101.04,168.92,101.04,168.92
				z"/>
			<path class="st0" d="M102.03,169.78c0,0,38.07,23.24,40.06,26.51c1.99,3.27-0.42,4.15-2.24,2.53
				C137.54,196.76,102.03,169.78,102.03,169.78z"/>
		</g>
		<g>
			<path class="st0" d="M105.91,157.55c-12.34,5.07-16,10.73-15.13,16.68c2.29,6.34,12.74,6.86,25.47,5.77L105.91,157.55z"/>
			<path class="st0" d="M135.44,132.03l36.96-20.3c10.39-11.17,19.73-19.75,27.08-23.48c20.66-5.61,41.64-3.04,62.69,1.59
				L135.44,132.03z"/>
			<path class="st0" d="M422.81,58.24c-110.28,78.03-204.41,115.09-293.5,139.32c-27.7,5.96-38.96-55.04-17.94-62.12
				C245.86,83.6,350.61,57.07,422.81,58.24z"/>
			<path class="st0" d="M233.92,131.06l208.65,90.75c6.72,3.57,10.63,8.5,7.61,15.41c-7.45,10.92-27.99,9.62-50.38,6.6l-212-68.45
				L233.92,131.06z"/>
			<path class="st0" d="M125.84,137.92L4.25,47.39c-6.82-9.04-5.6-14.72,4.94-16.5c6.85-0.5,14.79,0.65,24.56,3.43l160.33,74.05
				L125.84,137.92z"/>
			<path class="st0" d="M320.22,122.2c-30.99,16.4-43.94,27.52-30.39,33.18l-23.46,3.6l-11.97-15.82l57.95-28.51L320.22,122.2z"/>
			<path class="st0" d="M331.83,72.48l-28.78-27.7c-4.87-7.03,2.26-8.64,18.57-5.05l71.51,21.39l67.31,30.04
				c14.1,7.32,3.02,16.11-21.44,11.57l-65.2-16.27L331.83,72.48z"/>
			<path class="st0" d="M353.09,53.99L389.4,4.23c5.22-7.43,16.22-4.14,16.71,2.69l6.29,53.74
				C392.37,66.77,372.61,64.13,353.09,53.99z"/>
			<polygon class="st0" points="243.39,53.91 256.02,100.33 252.55,101.14 			"/>
			<path class="st0" d="M101.5,168.44c0,0-4.08-41.09-2.64-44.35s3.57-1.93,3.36,0.31C101.96,127.25,101.5,168.44,101.5,168.44z"/>
			<path class="st0" d="M101.04,168.92c0,0-18.81,13.57-20.87,12.98s-2.09-2.92-0.93-3.25C80.72,178.23,101.04,168.92,101.04,168.92
				z"/>
			<path class="st0" d="M102.03,169.78c0,0,38.07,23.24,40.06,26.51c1.99,3.27-0.42,4.15-2.24,2.53
				C137.54,196.76,102.03,169.78,102.03,169.78z"/>
		</g>
	</g>
</g>
<g id="六边形">
	<polygon class="st1" points="301.16,206.15 301.16,284.12 368.68,323.1 436.2,284.12 436.2,206.15 368.68,167.17 	"/>
</g>
</svg>
