<?xml version="1.0" encoding="utf-8"?>
<!-- Generator: Adobe Illustrator 27.5.0, SVG Export Plug-In . SVG Version: 6.00 Build 0)  -->
<svg version="1.1" id="图层_1" xmlns="http://www.w3.org/2000/svg" xmlns:xlink="http://www.w3.org/1999/xlink" x="0px" y="0px"
	 viewBox="0 0 466.65 378.34" style="enable-background:new 0 0 466.65 378.34;" xml:space="preserve">
<style type="text/css">
	.st0{fill:none;stroke:#231815;stroke-miterlimit:10;}
	.st1{fill:#009444;}
	.st2{fill:#91C430;}
	.st3{fill:#56B6F6;stroke:#000000;stroke-width:5;}
</style>
<g id="襲擊機">
	<g>
		<g id="机身_00000022522803182213326930000014449018708969799321_">
			<path class="st0" d="M292.82,286.8"/>
			<path class="st1" d="M339.79,102.43"/>
			<path class="st1" d="M73.21,275.54c35.97-55.19,193.29-178.81,329.44-211.52c6.89-2.94-42.14,100.52-290.72,233.5
				C111.93,297.49,37.24,330.73,73.21,275.54z"/>
		</g>
		<g id="右机翼_00000096040032189998530810000011424879931194304167_">
			<path class="st1" d="M133.88,224.1L17.14,150.14c0,0-56.07-45.66,34.67-26.01l157.24,58.33L133.88,224.1z"/>
		</g>
		<g id="左机翼_00000059278883141808825550000006613757678966919577_">
			<polygon class="st1" points="257.43,197.37 337.19,252.86 246.61,291.87 179.4,250.68 			"/>
		</g>
		<g id="平尾_00000049212288328138329970000010274298491232988072_">
			<path class="st1" d="M333.24,87.3l-45.47-38.62c0,0-10.85-18.2,18.64-9.97c29.47,8.25,96.22,25.28,96.22,25.28l47.25,26.73
				c0,0,37.71,19.94,0,18.64c-37.71-1.3-69.91-8.76-69.91-8.76L333.24,87.3z"/>
		</g>
		<g id="垂尾_00000023251990611067116350000014528107585029105540_">
			<path class="st1" d="M349.76,86.42L371,11c0,0,9.97-24.71,21.66,0l9.97,52.46L349.76,86.42z"/>
		</g>
		<g id="右发_00000149365679847032028800000007308577622783257244_">
			<path class="st1" d="M25.74,206.75c1.22-3.58,27.59-58.21,125.77-72.24c0,0-4.92,48.55-66.48,95.95
				C67.13,244.28,9.93,256.16,25.74,206.75z"/>
			<path class="st1" d="M52.97,261.63"/>
			<path class="st1" d="M197.51,287.16c1.53-3.46,32.53-55.58,131.58-61.04c0,0-9.11,47.93-74.54,89.81
				C235.45,328.13,177.42,335.02,197.51,287.16z"/>
		</g>
		<g id="座舱盖_00000042700053500327475180000010634891868608029604_">
			<path class="st1" d="M195.21,184.47l68.22-44.13c4.84-3.12,2.87-10.58-2.89-10.95l-21.12-1.28c-1.38-0.08-2.76,0.31-3.87,1.15
				l-59.63,43.56c-4.29,3.14-2.62,9.91,2.62,10.69l12.54,1.87C192.53,185.56,194.02,185.24,195.21,184.47z"/>
		</g>
	</g>
	<g>
		<g id="机身_00000078729391333071849580000012777065426779812797_">
			<path class="st2" d="M292.82,286.8"/>
			<path class="st2" d="M339.79,102.43"/>
			<path class="st2" d="M73.21,275.54c35.97-55.19,193.29-178.81,329.44-211.52c6.89-2.94-42.14,100.52-290.72,233.5
				C111.93,297.49,37.24,330.73,73.21,275.54z"/>
		</g>
		<g id="右机翼_00000039104829247725657320000003115775590113643650_">
			<path class="st2" d="M133.88,224.1L17.14,150.14c0,0-56.07-45.66,34.67-26.01l157.24,58.33L133.88,224.1z"/>
		</g>
		<g id="左机翼_00000072270439920260036560000012361479513254121116_">
			<polygon class="st2" points="257.43,197.37 337.19,252.86 246.61,291.87 179.4,250.68 			"/>
		</g>
		<g id="平尾_00000050638631568795016550000007304222317386342048_">
			<path class="st2" d="M333.24,87.3l-45.47-38.62c0,0-10.85-18.2,18.64-9.97c29.47,8.25,96.22,25.28,96.22,25.28l47.25,26.73
				c0,0,37.71,19.94,0,18.64c-37.71-1.3-69.91-8.76-69.91-8.76L333.24,87.3z"/>
		</g>
		<g id="垂尾_00000075869965940698848120000017259537854494588807_">
			<path class="st2" d="M349.76,86.42L371,11c0,0,9.97-24.71,21.66,0l9.97,52.46L349.76,86.42z"/>
		</g>
		<g id="右发_00000096773752286807928150000002731476210505455764_">
			<path class="st2" d="M25.74,206.75c1.22-3.58,27.59-58.21,125.77-72.24c0,0-4.92,48.55-66.48,95.95
				C67.13,244.28,9.93,256.16,25.74,206.75z"/>
			<path class="st2" d="M52.97,261.63"/>
			<path class="st2" d="M197.51,287.16c1.53-3.46,32.53-55.58,131.58-61.04c0,0-9.11,47.93-74.54,89.81
				C235.45,328.13,177.42,335.02,197.51,287.16z"/>
		</g>
		<g id="座舱盖_00000168804454219302640540000002593860735030898596_">
			<path class="st2" d="M195.21,184.47l68.22-44.13c4.84-3.12,2.87-10.58-2.89-10.95l-21.12-1.28c-1.38-0.08-2.76,0.31-3.87,1.15
				l-59.63,43.56c-4.29,3.14-2.62,9.91,2.62,10.69l12.54,1.87C192.53,185.56,194.02,185.24,195.21,184.47z"/>
		</g>
	</g>
</g>
<g id="六边形_00000045576721705337223450000016671835068948871613_">
	<polygon class="st3" points="301.16,206.15 301.16,284.12 368.68,323.1 436.2,284.12 436.2,206.15 368.68,167.17 	"/>
</g>
</svg>
