<?xml version="1.0" encoding="utf-8"?>
<!-- Generator: Adobe Illustrator 27.5.0, SVG Export Plug-In . SVG Version: 6.00 Build 0)  -->
<svg version="1.1" id="图层_1" xmlns="http://www.w3.org/2000/svg" xmlns:xlink="http://www.w3.org/1999/xlink" x="0px" y="0px"
	 viewBox="0 0 466.65 378.34" style="enable-background:new 0 0 466.65 378.34;" xml:space="preserve">
<style type="text/css">
	.st0{fill:#00FF14;}
	.st1{fill:#63B353;}
	.st2{fill:#9383F1;}
	.st3{fill:#E9BF2F;stroke:#000000;stroke-width:5;}
</style>
<g id="水侦">
	<g>
		<path class="st0" d="M65.18,83.22C186.89,39.73,274.29,41.3,355.54,50.96c-34.22,23.36-74.92,43.65-148.4,48.39
			c-29.82,8.64-70.94,12.52-124.21,11.29C65.9,113.97,49.98,90.61,65.18,83.22z"/>
		<path class="st0" d="M316.82,52.57l27.42-46.78c7.03-10.1,19.36-4.84,17.74,8.07l-9.67,36.72L316.82,52.57z"/>
		<path class="st0" d="M346.04,49.79l54.67,17.3c16.13,4.84,6.45,12.9-9.68,8.07l-54.84-16.13l-17.42-9.76L276.5,36.44
			c-3.32-1.61,6.36-1.61,12.9,0l39.07,8.93L346.04,49.79z"/>
		<path class="st0" d="M168.53,53.71l9.98-13.97c0.75-1.05,1.98-1.67,3.27-1.65l73.05,1.13c0.55,0.01,1.08,0.13,1.58,0.36l11.17,5.1
			c3.7,1.69,2.74,7.19-1.32,7.52l-94.2,7.74C168.71,60.21,166.57,56.44,168.53,53.71z"/>
		<path class="st0" d="M116.8,79.99L60.34,47.73c-17.74-12.9,4.84-24.2,25.81-16.13l108.08,35.49l54.84,22.58l170.99,72.59
			c56.46,25.81,17.74,43.55-33.87,24.2l-232.29-85.5L116.8,79.99z"/>
		<path class="st0" d="M194.23,111.77c-71.7,6.1-124.3,11.89-169.37,18.23c-37.1,8.07-27.42,22.58-4.48,29.04
			c43.19,11.29,134.89,3.96,204.5-27.42l40.33-22.58L194.23,111.77z"/>
		<path class="st0" d="M297.47,144.52c-68.97,7.64-140.54,22.84-214.54,45.17c-36.86,13.34-33.87,27.42,4.84,29.04
			c80.31,3.07,157.89-12.92,230.67-62.37L297.47,144.52z"/>
		<polygon class="st0" points="234.56,170.33 245.85,123.55 250.92,125.52 238.68,170.33 		"/>
		<polygon class="st0" points="253.91,133.22 275.6,159.03 279.72,157.42 256.96,133.22 		"/>
		<polygon class="st0" points="108.73,128.39 113.57,100.96 117.52,100.96 113.13,129.46 		"/>
		<polygon class="st0" points="129.35,100.96 142.61,125.16 146.19,123.55 132.63,100.96 		"/>
		<polygon class="st0" points="158.74,120.32 153.9,96.12 156.32,96.12 161.25,120.32 		"/>
		<polygon class="st0" points="265.2,133.22 258.75,154.19 261.98,154.19 269.89,133.22 		"/>
		<polygon class="st0" points="142.61,99.35 132.63,131.25 135.8,131.25 146.19,99.35 		"/>
		<path class="st1" d="M68.55,89.33L42.87,61.75c-2.83-3.7,2.23-7.32,4.3-4.16L68.55,89.33z"/>
		<path class="st1" d="M70.46,94.17l-3.63,37.51c-0.9,4.57-6.95,3.18-5.96-0.46L70.46,94.17z"/>
	</g>
	<g>
		<path class="st2" d="M65.18,83.22C186.89,39.73,274.29,41.3,355.54,50.96c-34.22,23.36-74.92,43.65-148.4,48.39
			c-29.82,8.64-70.94,12.52-124.21,11.29C65.9,113.97,49.98,90.61,65.18,83.22z"/>
		<path class="st2" d="M316.82,52.57l27.42-46.78c7.03-10.1,19.36-4.84,17.74,8.07l-9.67,36.72L316.82,52.57z"/>
		<path class="st2" d="M346.04,49.79l54.67,17.3c16.13,4.84,6.45,12.9-9.68,8.07l-54.84-16.13l-17.42-9.76L276.5,36.44
			c-3.32-1.61,6.36-1.61,12.9,0l39.07,8.93L346.04,49.79z"/>
		<path class="st2" d="M168.53,53.71l9.98-13.97c0.75-1.05,1.98-1.67,3.27-1.65l73.05,1.13c0.55,0.01,1.08,0.13,1.58,0.36l11.17,5.1
			c3.7,1.69,2.74,7.19-1.32,7.52l-94.2,7.74C168.71,60.21,166.57,56.44,168.53,53.71z"/>
		<path class="st2" d="M116.8,79.99L60.34,47.73c-17.74-12.9,4.84-24.2,25.81-16.13l108.08,35.49l54.84,22.58l170.99,72.59
			c56.46,25.81,17.74,43.55-33.87,24.2l-232.29-85.5L116.8,79.99z"/>
		<path class="st2" d="M194.23,111.77c-71.7,6.1-124.3,11.89-169.37,18.23c-37.1,8.07-27.42,22.58-4.48,29.04
			c43.19,11.29,134.89,3.96,204.5-27.42l40.33-22.58L194.23,111.77z"/>
		<path class="st2" d="M297.47,144.52c-68.97,7.64-140.54,22.84-214.54,45.17c-36.86,13.34-33.87,27.42,4.84,29.04
			c80.31,3.07,157.89-12.92,230.67-62.37L297.47,144.52z"/>
		<polygon class="st2" points="234.56,170.33 245.85,123.55 250.92,125.52 238.68,170.33 		"/>
		<polygon class="st2" points="253.91,133.22 275.6,159.03 279.72,157.42 256.96,133.22 		"/>
		<polygon class="st2" points="108.73,128.39 113.57,100.96 117.52,100.96 113.13,129.46 		"/>
		<polygon class="st2" points="129.35,100.96 142.61,125.16 146.19,123.55 132.63,100.96 		"/>
		<polygon class="st2" points="158.74,120.32 153.9,96.12 156.32,96.12 161.25,120.32 		"/>
		<polygon class="st2" points="265.2,133.22 258.75,154.19 261.98,154.19 269.89,133.22 		"/>
		<polygon class="st2" points="142.61,99.35 132.63,131.25 135.8,131.25 146.19,99.35 		"/>
		<path class="st2" d="M68.55,89.33L42.87,61.75c-2.83-3.7,2.23-7.32,4.3-4.16L68.55,89.33z"/>
		<path class="st2" d="M70.46,94.17l-3.63,37.51c-0.9,4.57-6.95,3.18-5.96-0.46L70.46,94.17z"/>
	</g>
</g>
<g id="六边形">
	<polygon class="st3" points="301.16,206.15 301.16,284.12 368.68,323.1 436.2,284.12 436.2,206.15 368.68,167.17 	"/>
</g>
</svg>
