<?xml version="1.0" encoding="utf-8"?>
<!-- Generator: Adobe Illustrator 27.5.0, SVG Export Plug-In . SVG Version: 6.00 Build 0)  -->
<svg version="1.1" id="图层_1" xmlns="http://www.w3.org/2000/svg" xmlns:xlink="http://www.w3.org/1999/xlink" x="0px" y="0px"
	 viewBox="0 0 461.52 378.34" style="enable-background:new 0 0 461.52 378.34;" xml:space="preserve">
<style type="text/css">
	.st0{fill:#00FF14;}
	.st1{fill:#63B353;}
	.st2{fill:#9383F1;}
	.st3{fill:url(#SVGID_1_);}
	.st4{fill:url(#SVGID_00000164501540286526521250000004374338703823440316_);}
	.st5{fill:#FE6560;stroke:#000000;stroke-width:5;}
</style>
<g id="水侦">
	<g>
		<path class="st0" d="M65.13,83.22C186.84,39.73,274.24,41.3,355.48,50.96c-34.22,23.36-74.92,43.65-148.4,48.39
			c-29.82,8.64-70.94,12.52-124.21,11.29C65.84,113.97,49.92,90.61,65.13,83.22z"/>
		<path class="st0" d="M316.77,52.57l27.42-46.78c7.03-10.1,19.36-4.84,17.74,8.07l-9.67,36.72L316.77,52.57z"/>
		<path class="st0" d="M345.98,49.79l54.67,17.3c16.13,4.84,6.45,12.9-9.68,8.07l-54.84-16.13l-17.42-9.76l-42.27-12.82
			c-3.32-1.61,6.36-1.61,12.9,0l39.07,8.93L345.98,49.79z"/>
		<path class="st0" d="M168.47,53.71l9.98-13.97c0.75-1.05,1.98-1.67,3.27-1.65l73.05,1.13c0.55,0.01,1.08,0.13,1.58,0.36l11.17,5.1
			c3.7,1.69,2.74,7.19-1.32,7.52L172,59.94C168.66,60.21,166.52,56.44,168.47,53.71z"/>
		<path class="st0" d="M116.74,79.99L60.29,47.73c-17.74-12.9,4.84-24.2,25.81-16.13l108.08,35.49l54.84,22.58L420,162.26
			c56.46,25.81,17.74,43.55-33.87,24.2l-232.28-85.49L116.74,79.99z"/>
		<path class="st0" d="M194.17,111.77c-71.7,6.1-124.3,11.89-169.37,18.23c-37.1,8.07-27.42,22.58-4.48,29.04
			c43.19,11.29,134.89,3.96,204.5-27.42l40.33-22.58L194.17,111.77z"/>
		<path class="st0" d="M297.41,144.52c-68.97,7.64-140.54,22.84-214.54,45.17c-36.86,13.34-33.87,27.42,4.84,29.04
			c80.31,3.07,157.89-12.92,230.67-62.37L297.41,144.52z"/>
		<polygon class="st0" points="234.5,170.33 245.79,123.55 250.86,125.52 238.62,170.33 		"/>
		<polygon class="st0" points="253.86,133.22 275.54,159.03 279.67,157.42 256.9,133.22 		"/>
		<polygon class="st0" points="108.68,128.39 113.52,100.96 117.46,100.96 113.07,129.46 		"/>
		<polygon class="st0" points="129.29,100.96 142.55,125.16 146.14,123.55 132.57,100.96 		"/>
		<polygon class="st0" points="158.68,120.32 153.85,96.12 156.26,96.12 161.19,120.32 		"/>
		<polygon class="st0" points="265.15,133.22 258.7,154.19 261.92,154.19 269.83,133.22 		"/>
		<polygon class="st0" points="142.55,99.35 132.57,131.25 135.74,131.25 146.14,99.35 		"/>
		<path class="st1" d="M68.5,89.33L42.81,61.75c-2.83-3.7,2.23-7.32,4.3-4.16L68.5,89.33z"/>
		<path class="st1" d="M70.4,94.17l-3.63,37.51c-0.9,4.57-6.95,3.18-5.96-0.46L70.4,94.17z"/>
	</g>
	<g>
		<path class="st2" d="M65.13,83.22C186.84,39.73,274.24,41.3,355.48,50.96c-34.22,23.36-74.92,43.65-148.4,48.39
			c-29.82,8.64-70.94,12.52-124.21,11.29C65.84,113.97,49.92,90.61,65.13,83.22z"/>
		<path class="st2" d="M316.77,52.57l27.42-46.78c7.03-10.1,19.36-4.84,17.74,8.07l-9.67,36.72L316.77,52.57z"/>
		<path class="st2" d="M345.98,49.79l54.67,17.3c16.13,4.84,6.45,12.9-9.68,8.07l-54.84-16.13l-17.42-9.76l-42.27-12.82
			c-3.32-1.61,6.36-1.61,12.9,0l39.07,8.93L345.98,49.79z"/>
		<path class="st2" d="M168.47,53.71l9.98-13.97c0.75-1.05,1.98-1.67,3.27-1.65l73.05,1.13c0.55,0.01,1.08,0.13,1.58,0.36l11.17,5.1
			c3.7,1.69,2.74,7.19-1.32,7.52L172,59.94C168.66,60.21,166.52,56.44,168.47,53.71z"/>
		<path class="st2" d="M116.74,79.99L60.29,47.73c-17.74-12.9,4.84-24.2,25.81-16.13l108.08,35.49l54.84,22.58L420,162.26
			c56.46,25.81,17.74,43.55-33.87,24.2l-232.28-85.49L116.74,79.99z"/>
		<path class="st2" d="M194.17,111.77c-71.7,6.1-124.3,11.89-169.37,18.23c-37.1,8.07-27.42,22.58-4.48,29.04
			c43.19,11.29,134.89,3.96,204.5-27.42l40.33-22.58L194.17,111.77z"/>
		<path class="st2" d="M297.41,144.52c-68.97,7.64-140.54,22.84-214.54,45.17c-36.86,13.34-33.87,27.42,4.84,29.04
			c80.31,3.07,157.89-12.92,230.67-62.37L297.41,144.52z"/>
		<polygon class="st2" points="234.5,170.33 245.79,123.55 250.86,125.52 238.62,170.33 		"/>
		<polygon class="st2" points="253.86,133.22 275.54,159.03 279.67,157.42 256.9,133.22 		"/>
		<polygon class="st2" points="108.68,128.39 113.52,100.96 117.46,100.96 113.07,129.46 		"/>
		<polygon class="st2" points="129.29,100.96 142.55,125.16 146.14,123.55 132.57,100.96 		"/>
		<polygon class="st2" points="158.68,120.32 153.85,96.12 156.26,96.12 161.19,120.32 		"/>
		<polygon class="st2" points="265.15,133.22 258.7,154.19 261.92,154.19 269.83,133.22 		"/>
		<polygon class="st2" points="142.55,99.35 132.57,131.25 135.74,131.25 146.14,99.35 		"/>
		<path class="st2" d="M68.5,89.33L42.81,61.75c-2.83-3.7,2.23-7.32,4.3-4.16L68.5,89.33z"/>
		<path class="st2" d="M70.4,94.17l-3.63,37.51c-0.9,4.57-6.95,3.18-5.96-0.46L70.4,94.17z"/>
	</g>
</g>
<radialGradient id="SVGID_1_" cx="71.34" cy="740.23" r="40.23" gradientTransform="matrix(1 0 0 1 0 -700)" gradientUnits="userSpaceOnUse">
	<stop  offset="0.2821" style="stop-color:#3F6D16"/>
	<stop  offset="0.933" style="stop-color:#3F6D16;stop-opacity:0"/>
</radialGradient>
<circle class="st3" cx="71.34" cy="40.23" r="40.23"/>
<radialGradient id="SVGID_00000134244942726667999380000014892404606063033015_" cx="421.29" cy="881.8" r="40.23" gradientTransform="matrix(1 0 0 1 0 -700)" gradientUnits="userSpaceOnUse">
	<stop  offset="0.2821" style="stop-color:#D64A41"/>
	<stop  offset="0.933" style="stop-color:#3F6D16;stop-opacity:0"/>
</radialGradient>
<circle style="fill:url(#SVGID_00000134244942726667999380000014892404606063033015_);" cx="421.29" cy="181.8" r="40.23"/>
<g id="六边形">
	<polygon class="st5" points="289.52,206.15 289.52,284.12 357.05,323.1 424.56,284.12 424.56,206.15 357.05,167.17 	"/>
</g>
</svg>
