<?xml version="1.0" encoding="utf-8"?>
<!-- Generator: Adobe Illustrator 27.5.0, SVG Export Plug-In . SVG Version: 6.00 Build 0)  -->
<svg version="1.1" id="图层_1" xmlns="http://www.w3.org/2000/svg" xmlns:xlink="http://www.w3.org/1999/xlink" x="0px" y="0px"
	 viewBox="0 0 466.65 378.34" style="enable-background:new 0 0 466.65 378.34;" xml:space="preserve">
<style type="text/css">
	.st0{fill:#508C22;}
	.st1{fill:#63B353;}
	.st2{fill:#8AD980;stroke:#000000;stroke-width:5;}
</style>
<g id="Me262">
	<g>
		<path class="st0" d="M76.7,89.64c50.83-9.67,109.44-7.26,176.75,8.68c90.45,19.3,188.68,66.15,182.53,84.59
			c-12.96,25.55-152.72-1.89-198.8-19.52C183.83,142.18,130.33,117.37,76.7,89.64z"/>
		<path class="st0" d="M135.26,89.64L71.28,3.97C64.77-3.63,58.27,0.72,59.35,8.3L76.7,89.63L135.26,89.64L135.26,89.64z"/>
		<path class="st0" d="M97.3,54.93l41.21-26.03c1.09-1.09,11.93,2.17,10.84,3.25l-32.53,36.88l-87.83,33.61
			c-6.51,2.17-17.35-1.09-15.18-3.25l78.08-43.38L97.3,54.93z"/>
		<path class="st0" d="M264.3,112.41l79.16-82.41c3.25-3.25,35.79-1.09,33.61,3.25l-39.03,99.76l-40.12,41.21L26.81,282.65
			c-7.59,3.25-31.45-17.35-26.03-20.6l146.39-75.91l53.13-44.45L264.3,112.41z"/>
		<path class="st0" d="M190.56,92.89c23.06-8.13,60.73-11.93,79.16-2.17l19.52,17.35L190.56,92.89z"/>
		<path class="st0" d="M188.59,189.94c43.65,12.15,77.66,27.07,89.8,48.25c7.09,14.67-7.59,31.45-27.1,28.19
			c-19.19-4.29-55.71-21.68-92.17-39.03l-18.44-32.53c-4.04-12.14,1.16-17.52,18.44-14.1L188.59,189.94z"/>
		<path class="st0" d="M319.6,96.49c42.68,7.9,70.19,19.05,83.5,33.27c6.51,8.68,1.09,19.52-7.59,21.68l-119.28-49.89
			c-8.27-8.18-4.74-13.51,18.44-14.1L319.6,96.49z"/>
	</g>
	<g>
		<path class="st1" d="M76.7,89.64c50.83-9.67,109.44-7.26,176.75,8.68c90.45,19.3,188.68,66.15,182.53,84.59
			c-12.96,25.55-152.72-1.89-198.8-19.52C183.83,142.18,130.33,117.37,76.7,89.64z"/>
		<path class="st1" d="M135.26,89.64L71.28,3.97C64.77-3.63,58.27,0.72,59.35,8.3L76.7,89.63L135.26,89.64L135.26,89.64z"/>
		<path class="st1" d="M97.3,54.93l41.21-26.03c1.09-1.09,11.93,2.17,10.84,3.25l-32.53,36.88l-87.83,33.61
			c-6.51,2.17-17.35-1.09-15.18-3.25l78.08-43.38L97.3,54.93z"/>
		<path class="st1" d="M264.3,112.41l79.16-82.41c3.25-3.25,35.79-1.09,33.61,3.25l-39.03,99.76l-40.12,41.21L26.81,282.65
			c-7.59,3.25-31.45-17.35-26.03-20.6l146.39-75.91l53.13-44.45L264.3,112.41z"/>
		<path class="st1" d="M190.56,92.89c23.06-8.13,60.73-11.93,79.16-2.17l19.52,17.35L190.56,92.89z"/>
		<path class="st1" d="M188.59,189.94c43.65,12.15,77.66,27.07,89.8,48.25c7.09,14.67-7.59,31.45-27.1,28.19
			c-19.19-4.29-55.71-21.68-92.17-39.03l-18.44-32.53c-4.04-12.14,1.16-17.52,18.44-14.1L188.59,189.94z"/>
		<path class="st1" d="M319.6,96.49c42.68,7.9,70.19,19.05,83.5,33.27c6.51,8.68,1.09,19.52-7.59,21.68l-119.28-49.89
			c-8.27-8.18-4.74-13.51,18.44-14.1L319.6,96.49z"/>
	</g>
</g>
<g id="六边形">
	<polygon class="st2" points="301.16,206.15 301.16,284.12 368.68,323.1 436.2,284.12 436.2,206.15 368.68,167.17 	"/>
</g>
</svg>
