<?xml version="1.0" encoding="utf-8"?>
<!-- Generator: Adobe Illustrator 27.5.0, SVG Export Plug-In . SVG Version: 6.00 Build 0)  -->
<svg version="1.1" xmlns="http://www.w3.org/2000/svg" xmlns:xlink="http://www.w3.org/1999/xlink" x="0px" y="0px"
	 viewBox="0 0 465.1 376.4" style="enable-background:new 0 0 465.1 376.4;" xml:space="preserve">
<style type="text/css">
	.st0{fill:#48B38F;}
	.st1{fill:#FF6560;}
	.st2{fill:#D6D6DA;}
	.st3{display:none;}
</style>
<g id="图层_1">
	<g>
		<path class="st0" d="M186,112c68,67.2-80.7,75.5-166.3,107c-20.8,9.9,28.5,21,54.3,17l310.5-44.9c1.9-0.3,3.4-1.8,3.7-3.6
			l24.2-156.1c0-7-23-5.4-25.7-3C301,113.3,324.7,123.7,186,112z"/>
		<path class="st0" d="M327.7,196.8c7.1,3.9,13.8,6.9,18.5,5.3c9.3,0.4,8.8-11.3,1.8-11.3L327.7,196.8z"/>
		<path class="st0" d="M369.8,166.9c7.1,5.9,13.8,10.5,18.5,8.1c9.3,0.7,8.8-17.2,1.8-17.2L369.8,166.9z"/>
	</g>
	<g>
		<polygon class="st1" points="309.6,277.4 309.6,209.8 368.1,176 426.7,209.8 426.7,277.4 368.1,311.1 		"/>
		<path class="st2" d="M368.1,186.4l49.5,28.6v57.2l-49.5,28.6l-49.5-28.6V215L368.1,186.4 M368.1,165.6l-67.5,39v78l67.5,39
			l67.5-39v-78L368.1,165.6L368.1,165.6z"/>
	</g>
</g>
<g id="图层_2" class="st3">
	
		<image style="display:inline;overflow:visible;" width="430" height="645" xlink:href="../../../../../../データ/Download/0561_9800.png"  transform="matrix(1 0 0 1 11.5 -180.3)">
	</image>
</g>
<g id="图层_3">
</g>
</svg>
