<svg width="300" height="300" xmlns="http://www.w3.org/2000/svg">
  <g>
    <path d="M230.45379638671875,76.60931396484375C231.2586212158203,76.4931869506836 232.1199951171875,76.49606323242188 233.04185485839844,76.63434600830078 247.79173278808594,78.84681701660156 238.94180297851562,111.29650115966797 238.94180297851562,111.29650115966797 238.94180297851562,111.29650115966797 282.45391845703125,123.83386993408203 273.6039733886719,126.78385162353516 264.75408935546875,129.73382568359375 230.8293914794922,117.19607543945312 230.8293914794922,117.19607543945312L176.25506591796875,140.05844116210938C176.25506591796875,140.05844116210938 314.9044494628906,185.04562377929688 298.67950439453125,201.27053833007812 282.4546203613281,217.4954376220703 206.49221801757812,185.0460205078125 206.49221801757812,185.0460205078125 125.36787414550781,238.1455841064453 64.89262390136719,223.39537048339844 41.8466796875,215.09852600097656 18.800739288330078,206.80165100097656 174.7794952392578,176.93328857421875 174.7794952392578,176.93328857421875L146.01715087890625,164.39590454101562C146.01715087890625,164.39590454101562 103.2424087524414,183.57073974609375 74.48006439208984,185.04571533203125 45.71773147583008,186.52072143554688 12.530917167663574,188.73318481445312 0.7310043573379517,174.72079467773438 -11.068906784057617,160.70843505859375 123.89259338378906,153.33349609375 123.89259338378906,153.33349609375L114.3051528930664,145.95858764648438C114.3051528930664,145.95858764648438 75.21795654296875,152.59600830078125 67.10550689697266,152.59600830078125 58.99306869506836,152.59600830078125 35.393245697021484,150.38351440429688 36.86823654174805,140.05862426757812 37.518165588378906,135.50909423828125 43.322967529296875,131.102783203125 49.613624572753906,127.59680938720703 57.59933853149414,123.14611053466797 66.3680191040039,120.14629364013672 66.3680191040039,120.14629364013672L33.181129455566406,103.92143249511719 42.03105545043945,95.80900573730469 64.15586853027344,96.5465087890625 107.66797637939453,112.03386688232422C143.0676727294922,90.64656066894531,188.05477905273438,109.08390045166016,188.05477905273438,109.08390045166016L199.8546600341797,101.7089614868164 219.0294952392578,106.87124633789062C219.0294952392578,106.87124633789062,218.38131713867188,78.35128784179688,230.45379638671875,76.60931396484375z" fill="#96FAA0" stroke="#000000" stroke-width="5" />
  </g>
</svg>