<?xml version="1.0" encoding="utf-8"?>
<!-- Generator: Adobe Illustrator 27.5.0, SVG Export Plug-In . SVG Version: 6.00 Build 0)  -->
<svg version="1.1" id="图层_1" xmlns="http://www.w3.org/2000/svg" xmlns:xlink="http://www.w3.org/1999/xlink" x="0px" y="0px"
	 viewBox="0 0 300 300" style="enable-background:new 0 0 300 300;" xml:space="preserve">
<style type="text/css">
	.st0{fill:#B23A21;}
</style>
<g>
	<path class="st0" d="M270.78,180.44L300,215.02c-19.48,48.7-76.95,84.25-76.95,84.25l-40.91-29.71
		C249.84,225.73,270.78,180.44,270.78,180.44z M14.61,175.08c8.07,0,14.61,6.54,14.61,14.61c0,8.07-6.54,14.61-14.61,14.61
		S0,197.76,0,189.69C0,181.62,6.54,175.08,14.61,175.08z M207.47,117.61l56.49,55.52c0,0-19.97,44.32-88.15,90.58l-56.01-54.06
		C119.8,209.66,183.6,159.98,207.47,117.61z M95.94,111.28c-7.53,0-13.64,6.1-13.64,13.64c0,7.53,6.1,13.64,13.64,13.64
		s13.64-6.1,13.64-13.64C109.58,117.39,103.47,111.28,95.94,111.28z M145.62,109.82c-8.34,0-15.1,6.76-15.1,15.1
		s6.76,15.1,15.1,15.1s15.1-6.76,15.1-15.1S153.95,109.82,145.62,109.82z M74.03,56.25c-8.61,0-15.58,6.98-15.58,15.58
		s6.98,15.58,15.58,15.58c8.61,0,15.58-6.98,15.58-15.58S82.63,56.25,74.03,56.25z M56.06,28.02c30.41,0.86,82.19,13.98,142.15,77.9
		l4.02,4.75c0,0-18.63,28.13-90.95,93.14c0,0-103-92.05-84.01-172.4C27.27,31.41,37.82,27.51,56.06,28.02z M136.12,2.16
		c6.05,0,10.96,4.91,10.96,10.96s-4.91,10.96-10.96,10.96c-6.05,0-10.96-4.91-10.96-10.96S130.07,2.16,136.12,2.16z M194.07,0.73
		c9.55,0,17.29,7.74,17.29,17.29s-7.74,17.29-17.29,17.29c-9.55,0-17.29-7.74-17.29-17.29S184.53,0.73,194.07,0.73z"/>
</g>
</svg>
