<svg width="300" height="300" xmlns="http://www.w3.org/2000/svg">
  <g>
    <path d="M270.7788391113281,180.43846130371094L300,215.01675415039062C280.51947021484375,263.7176208496094,223.05189514160156,299.2687683105469,223.05189514160156,299.2687683105469L182.14276123046875,269.56170654296875C249.8373565673828,225.73086547851562,270.7788391113281,180.43846130371094,270.7788391113281,180.43846130371094z M14.61034107208252,175.08084106445312C22.679412841796875,175.08084106445312 29.220685958862305,181.62210083007812 29.220685958862305,189.691162109375 29.220685958862305,197.76025390625 22.679412841796875,204.301513671875 14.61034107208252,204.301513671875 6.54127311706543,204.301513671875 0,197.76025390625 0,189.691162109375 0,181.62210083007812 6.54127311706543,175.08084106445312 14.61034107208252,175.08084106445312z M207.46701049804688,117.61397552490234L263.9606628417969,173.13328552246094C263.9606628417969,173.13328552246094,243.99325561523438,217.45130920410156,175.81179809570312,263.7174072265625L119.8048095703125,209.6591339111328C119.8048095703125,209.6591339111328,183.60308837890625,159.9839630126953,207.46701049804688,117.61397552490234z M95.94174194335938,111.28330993652344C88.41088104248047,111.28330993652344 82.305908203125,117.3882827758789 82.305908203125,124.91914367675781 82.305908203125,132.45001220703125 88.41088104248047,138.5549774169922 95.94174194335938,138.5549774169922 103.47260284423828,138.5549774169922 109.57757568359375,132.45001220703125 109.57757568359375,124.91914367675781 109.57757568359375,117.3882827758789 103.47260284423828,111.28330993652344 95.94174194335938,111.28330993652344z M145.6161651611328,109.82228088378906C137.2779998779297,109.82228088378906 130.51856994628906,116.58138275146484 130.51856994628906,124.91914367675781 130.51856994628906,133.2569122314453 137.2779998779297,140.01602172851562 145.6161651611328,140.01602172851562 153.95433044433594,140.01602172851562 160.71377563476562,133.2569122314453 160.71377563476562,124.91914367675781 160.71377563476562,116.58138275146484 153.95433044433594,109.82228088378906 145.6161651611328,109.82228088378906z M74.0262222290039,56.25053405761719C65.41895294189453,56.25053405761719 58.44137191772461,63.228111267089844 58.44137191772461,71.83538818359375 58.44137191772461,80.44266510009766 65.41895294189453,87.42024230957031 74.0262222290039,87.42024230957031 82.63350677490234,87.42024230957031 89.61107635498047,80.44266510009766 89.61107635498047,71.83538818359375 89.61107635498047,63.228111267089844 82.63350677490234,56.25053405761719 74.0262222290039,56.25053405761719z M56.06270980834961,28.023178100585938C86.46772766113281,28.879253387451172,138.25086975097656,42.005714416503906,198.2141571044922,105.92585754394531L202.23199462890625,110.67406463623047C202.23199462890625,110.67406463623047 183.603759765625,138.79908752441406 111.28244018554688,203.81500244140625 111.28244018554688,203.81500244140625 8.279337882995605,111.7699966430664 27.272817611694336,31.413230895996094 27.272817611694336,31.413230895996094 37.8197021484375,27.509536743164062 56.06270980834961,28.023178100585938z M136.12017822265625,2.164505958557129C142.17198181152344,2.164506435394287 147.07794189453125,7.070461750030518 147.07794189453125,13.12226390838623 147.07794189453125,19.17406463623047 142.17198181152344,24.080020904541016 136.12017822265625,24.08002281188965 130.06837463378906,24.080020904541016 125.16242218017578,19.17406463623047 125.16242218017578,13.12226390838623 125.16242218017578,7.070461750030518 130.06837463378906,2.164506435394287 136.12017822265625,2.164505958557129z M194.0742950439453,0.731231689453125C203.62283325195312,0.731231689453125 211.36346435546875,8.471847534179688 211.36346435546875,18.0203800201416 211.36346435546875,27.568912506103516 203.62283325195312,35.309532165527344 194.0742950439453,35.309532165527344 184.52577209472656,35.309532165527344 176.78515625,27.568912506103516 176.78515625,18.0203800201416 176.78515625,8.471847534179688 184.52577209472656,0.731231689453125 194.0742950439453,0.731231689453125z" fill="#45B058" />
  </g>
</svg>