<svg width="300" height="300" xmlns="http://www.w3.org/2000/svg">
  <g>
    <path d="M283.0303955078125,214.74917602539062C283.0303955078125,214.74917602539062,292.0250549316406,220.6150665283203,291.242919921875,238.603759765625L228.28216552734375,300 228.281494140625,300 227.96917724609375,299.9846496582031C224.901611328125,299.8228454589844,200.2236785888672,298.26470947265625,195.8242645263672,289.8324890136719L283.0303955078125,214.74917602539062z M260.3489685058594,185.02870178222656L275.209228515625,201.06211853027344C275.209228515625,201.06211853027344,266.9969787597656,220.6150665283203,187.22096252441406,284.74871826171875L168.84120178222656,265.9779052734375C168.84120178222656,265.9779052734375,204.42755126953125,244.86070251464844,260.3489685058594,185.02870178222656z M190.74049377441406,113.07388305664062L251.74566650390625,178.77175903320312C251.74566650390625,178.77175903320312,220.0699005126953,219.44187927246094,162.58425903320312,258.9388427734375L101.18801879882812,192.84988403320312C101.18801879882812,192.84988403320312,144.98660278320312,165.8668212890625,190.74049377441406,113.07388305664062z M29.852397918701172,0.02524391934275627C42.073062896728516,-0.46367108821868896,61.82167434692383,6.053807735443115,95.19226837158203,27.952791213989258L81.63504028320312,41.509944915771484 181.74615478515625,103.03619384765625C181.74615478515625,103.03619384765625,126.4764633178711,170.82022094726562,91.02044677734375,182.29127502441406L43.0505485534668,81.13743591308594 31.579486846923828,93.65131378173828C31.579484939575195,93.65131378173828 3.162529945373535,26.38922119140625 9.680177688598633,14.13604736328125 12.939004898071289,8.009462356567383 17.631729125976562,0.5141561031341553 29.852397918701172,0.02524391934275627z" fill="#D55A5A" />
  </g>
</svg>