<svg width="300" height="300" xmlns="http://www.w3.org/2000/svg">
  <g>
    <path d="M35.154727935791016,16.462568283081055C37.251033782958984,16.57111167907715,40.148128509521484,17.27297019958496,44.10396957397461,18.836196899414062L130.70709228515625,88.76677703857422C130.70709228515625,88.76677703857422,157.646484375,79.63555145263672,178.63088989257812,106.1784896850586L180.8990478515625,107.31279754638672C180.8990478515625,107.31279754638672,198.59405517578125,46.741455078125,298.63885498046875,93.7012710571289L300,106.63220977783203C300,106.63220977783203 263.929443359375,91.65930938720703 277.54095458984375,210.76197814941406 277.54095458984375,210.76197814941406 250.99847412109375,217.5678253173828 277.54095458984375,231.17958068847656L270.05462646484375,243.4301300048828C270.05462646484375,243.4301300048828 241.47039794921875,223.0125274658203 259.1654052734375,254.3195037841797 259.1654052734375,254.3195037841797 177.49615478515625,324.419921875 63.83980178833008,247.51365661621094 63.83980178833008,247.51365661621094 80.17364501953125,230.4993133544922 54.31171798706055,227.0963897705078 54.31171798706055,227.0963897705078 35.25556564331055,114.7993392944336 106.03556823730469,147.4675750732422 106.03556823730469,147.4675750732422 129.17518615722656,156.3152313232422 112.84133911132812,134.53640747070312 96.50749206542969,112.75756072998047 95.82691955566406,107.14273834228516 95.82691955566406,107.14273834228516L0.9998682737350464,29.72582244873047C0.9998664855957031,29.72582244873047,-4.444293975830078,16.114059448242188,10.074657440185547,24.2811222076416L91.40391540527344,87.91594696044922C91.40391540527344,87.91594696044922,108.758544921875,97.10388946533203,100.25137329101562,82.64139556884766L32.023765563964844,26.6629638671875C32.02376937866211,26.6629638671875,26.07073402404785,15.992212295532227,35.154727935791016,16.462568283081055z" fill="#66CC77" />
  </g>
</svg>