<svg width="300" height="300" xmlns="http://www.w3.org/2000/svg">
  <g>
    <path d="M95.13890075683594,261.80487060546875C102.04246520996094,261.80487060546875 107.63890075683594,267.40130615234375 107.63890075683594,274.3048400878906 107.63890075683594,281.2084045410156 102.04246520996094,286.8048400878906 95.13890075683594,286.8048400878906 88.23533630371094,286.8048400878906 82.63890075683594,281.2084045410156 82.63890075683594,274.3048400878906 82.63890075683594,267.40130615234375 88.23533630371094,261.80487060546875 95.13890075683594,261.80487060546875z M190.2777862548828,252.0826416015625C199.86607360839844,252.0826416015625 207.63890075683594,259.85546875 207.63890075683594,269.4437255859375 207.63890075683594,279.0320129394531 199.86607360839844,286.8048400878906 190.2777862548828,286.8048400878906 180.6894989013672,286.8048400878906 172.9166717529297,279.0320129394531 172.9166717529297,269.4437255859375 172.9166717529297,259.85546875 180.6894989013672,252.0826416015625 190.2777862548828,252.0826416015625z M272.22222900390625,202.77708435058594C283.7281494140625,202.77708435058594 293.0555419921875,212.10450744628906 293.0555419921875,223.6104278564453 293.0555419921875,235.11634826660156 283.7281494140625,244.44375610351562 272.22222900390625,244.44375610351562 260.71630859375,244.44375610351562 251.38890075683594,235.11634826660156 251.38890075683594,223.6104278564453 251.38890075683594,212.10450744628906 260.71630859375,202.77708435058594 272.22222900390625,202.77708435058594z M291.3194580078125,140.97154235839844C296.11358642578125,140.97154235839844 300,144.8579559326172 300,149.652099609375 300,154.4462432861328 296.11358642578125,158.33265686035156 291.3194580078125,158.33265686035156 286.5252685546875,158.33265686035156 282.63885498046875,154.4462432861328 282.63885498046875,149.652099609375 282.63885498046875,144.8579559326172 286.5252685546875,140.97154235839844 291.3194580078125,140.97154235839844z M80.90279388427734,76.38821411132812C125.58415985107422,76.38821411132812 161.80557250976562,112.609619140625 161.80557250976562,157.29098510742188 161.80557250976562,201.97235107421875 125.58415985107422,238.19375610351562 80.90279388427734,238.19375610351562 36.22142028808594,238.19375610351562 1.52587890625E-05,201.97235107421875 1.6570091247558594E-05,157.29098510742188 1.52587890625E-05,112.609619140625 36.22142028808594,76.38821411132812 80.90279388427734,76.38821411132812z M190.04591369628906,13.195159912109375C227.24839782714844,13.195160865783691 257.40692138671875,43.35383605957031 257.40692138671875,80.55644226074219 257.40692138671875,88.69451904296875 255.96380615234375,96.49551391601562 253.31948852539062,103.71751403808594L252.5034942626953,105.787109375 157.92918395996094,202.7659912109375 158.86021423339844,201.27452087402344C166.8988037109375,188.0447540283203 171.5278778076172,172.5142059326172 171.5278778076172,155.9024658203125 171.5278778076172,107.57743072509766 132.3528289794922,68.40225219726562 84.02796173095703,68.40225219726562 74.96704864501953,68.40225219726562 66.22781372070312,69.77949523925781 58.00815963745117,72.33609008789062L57.22779083251953,72.58943939208984 179.4676971435547,14.037346839904785 181.04556274414062,13.79122257232666C183.9897918701172,13.398103713989258,186.994140625,13.195160865783691,190.04591369628906,13.195159912109375z" fill="#7ECCD8" />
  </g>
</svg>