<svg width="300" height="300" xmlns="http://www.w3.org/2000/svg">
  <g>
    <path d="M195,235 L210,235 210,250 195,250 z M165,235 L180,235 180,250 165,250 z M135,235 L150,235 150,250 135,250 z M105,235 L120,235 120,250 105,250 z M75,235 L90,235 90,250 75,250 z M42.5,200.571 L57.5,200.571 57.5,215.571 42.5,215.571 z M42.5,140.571 L57.5,140.571 57.5,155.571 42.5,155.571 z M42.5,110.571 L57.5,110.571 57.5,125.571 42.5,125.571 z M165.18497,81.252434 L139.94237,148.70361 122.95896,108.29699 89.143806,185.57143 19.891441,185.57143 21.068104,190.14764 25.605886,202.54578 31.289345,214.34386 38.051434,225.47453 45.824593,235.86942 54.540581,245.4594 64.130577,254.17542 74.525444,261.94858 85.656136,268.71066 97.454208,274.3941 109.85234,278.93188 122.78484,282.25717 136.18797,284.30267 150,285 163.81203,284.30267 177.21515,282.25717 190.14766,278.93188 202.54581,274.3941 214.34386,268.71066 225.47455,261.94858 235.86942,254.17542 245.45943,245.4594 254.17538,235.86942 261.94858,225.47453 268.71066,214.34386 274.3941,202.54578 278.93188,190.14764 280.10855,185.57143 255.2401,185.57143 246.30092,159.48959 202.13231,221.97269 z M42.5,80.570999 L57.5,80.570999 57.5,95.570999 42.5,95.570999 z M150,14.99999 L136.18797,15.697329 122.78484,17.74283 109.85234,21.068104 97.454208,25.605883 85.656136,31.289341 74.525444,38.051434 64.130577,45.824596 54.540581,54.540581 45.824593,64.130577 38.051434,74.525444 31.289345,85.656136 25.605886,97.454208 21.068104,109.85234 17.742834,122.78484 15.697329,136.18797 14.999999,149.99998 15.697329,163.81203 16.728907,170.57143 42.5,170.57143 42.5,170.571 57.5,170.571 57.5,170.57143 79.33445,170.57143 123.23671,70.24588 139.13373,108.06781 159.41599,53.871284 167.69545,31.747574 208.46552,187.02731 250.98166,126.88184 265.9556,170.57143 283.27109,170.57143 284.30267,163.81203 285,149.99998 284.30267,136.18797 282.25717,122.78484 278.93188,109.85234 274.3941,97.454208 268.71066,85.656136 261.94858,74.525444 254.17538,64.130577 245.45943,54.540581 235.86942,45.824596 225.47455,38.051434 214.34386,31.289341 202.54581,25.605883 190.14766,21.068104 177.21515,17.74283 163.81203,15.697329 z M150,0 L165.32758,0.77408552 180.22229,3.0473471 194.60265,6.7449288 208.38907,11.790816 221.50406,18.108616 233.87166,25.622087 245.41704,34.25555 256.06601,43.933983 265.74445,54.582954 274.3779,66.128342 281.89139,78.495941 288.20917,91.610931 293.25507,105.39738 296.95264,119.77772 299.22592,134.67242 300,149.99998 299.22592,165.32755 296.95264,180.22227 293.25507,194.60262 288.20917,208.38905 281.89139,221.50404 274.3779,233.87164 265.74445,245.41705 256.06601,256.06601 245.41704,265.74445 233.87166,274.3779 221.50406,281.89139 208.38907,288.20917 194.60265,293.25507 180.22229,296.95264 165.32758,299.22592 150,300 134.67244,299.22592 119.77771,296.95264 105.39737,293.25507 91.610931,288.20917 78.495941,281.89139 66.128342,274.3779 54.582951,265.74445 43.933979,256.06601 34.255547,245.41705 25.622087,233.87164 18.108616,221.50404 11.790826,208.38905 6.7449288,194.60262 3.0473516,180.22227 0.77408999,165.32755 0,149.99998 0.77408999,134.67242 3.0473516,119.77772 6.7449288,105.39738 11.790826,91.610931 18.108616,78.495941 25.622087,66.128342 34.255547,54.582954 43.933979,43.933983 54.582951,34.25555 66.128342,25.622087 78.495941,18.108616 91.610931,11.790816 105.39737,6.7449288 119.77771,3.0473471 134.67244,0.77408552 z" fill="#66B1BB" />
  </g>
</svg>