<svg width="300" height="300" xmlns="http://www.w3.org/2000/svg">
  <g>
    <path d="M150.1841278076172,86.47688293457031C114.08438110351562,86.47688293457031 84.81975555419922,115.74150848388672 84.81975555419922,151.8412628173828 84.81975555419922,187.94100952148438 114.08438110351562,217.2056427001953 150.1841278076172,217.2056427001953 186.28387451171875,217.2056427001953 215.54849243164062,187.94100952148438 215.54849243164062,151.8412628173828 215.54849243164062,115.74150848388672 186.28387451171875,86.47688293457031 150.1841278076172,86.47688293457031z M147.66773986816406,5.215898036956787L149.0738525390625,28.675678253173828 150.1841278076172,28.661632537841797C158.6879119873047,28.661632537841797,166.99041748046875,29.52334213256836,175.00912475585938,31.16420555114746L176.45339965820312,31.478622436523438 180.197021484375,11.72227954864502 198.60899353027344,13.563397407531738 194.37767028808594,36.835750579833984 195.3509979248047,37.20577621459961C200.94509887695312,39.41166305541992,206.3389129638672,42.01518630981445,211.49761962890625,44.98151779174805L212.80459594726562,45.754188537597656 227.33248901367188,25.71566390991211 244.51748657226562,35.04463195800781 229.51905822753906,57.61957931518555 230.7960205078125,58.699302673339844C236.7558135986328,63.86185836791992,242.21505737304688,69.58686828613281,247.09124755859375,75.79175567626953L247.7088165283203,76.5972671508789 265.5318908691406,59.47273635864258 278.1509704589844,70.88763427734375 258.4441223144531,93.03260803222656 258.49664306640625,93.12653350830078C260.8669738769531,97.48995971679688,262.9813537597656,102.01263427734375,264.819580078125,106.67438507080078L265.7979736328125,109.24793243408203 290.6714782714844,104.0301284790039 292.8809814453125,122.1971206665039 270.2936096191406,124.40909576416016 270.8611755371094,127.01625061035156C272.29693603515625,134.03260803222656,273.1361389160156,141.26626586914062,273.3235168457031,148.66192626953125L273.36212158203125,151.71315002441406 299.5090026855469,155.5864715576172 300,169.33404541015625 272.03924560546875,169.92269897460938 271.9444274902344,170.60028076171875C270.85406494140625,177.73629760742188,269.1513671875,184.6708221435547,266.8916320800781,191.34854125976562L266.3504333496094,192.88511657714844 290.6714782714844,206.5263671875 281.64935302734375,222.5452423095703 258.48602294921875,210.57492065429688 257.0438537597656,213.15475463867188C253.5831298828125,219.17324829101562,249.6285858154297,224.8717498779297,245.23548889160156,230.19493103027344L244.7349090576172,230.7869415283203 263.5516357421875,249.00970458984375 251.3914794921875,259.6771240234375 232.0125732421875,243.90371704101562 230.7960205078125,244.9832000732422C226.32618713378906,248.85511779785156,221.5747833251953,252.41065979003906,216.57669067382812,255.61500549316406L214.16062927246094,257.1231994628906 223.40423583984375,278.8260498046875 207.44699096679688,287.41864013671875 195.47535705566406,266.4259033203125 195.3509979248047,266.47674560546875C188.8245391845703,269.05023193359375,182.02548217773438,271.08251953125,175.00912475585938,272.518310546875L173.18829345703125,272.86712646484375 170.86709594726562,294.048095703125 153.1914825439453,294.53863525390625 153.19126892089844,274.9827880859375 150.1841278076172,275.0208740234375C141.6803436279297,275.0208740234375,133.37783813476562,274.15911865234375,125.35913848876953,272.518310546875L124.36833190917969,272.3026123046875 118.08499908447266,294.78411865234375 99.67250061035156,291.59210205078125 104.13105773925781,266.1146240234375 102.23706817626953,265.3408203125C95.78961944580078,262.61376953125,89.62268829345703,259.3533935546875,83.79156494140625,255.61500549316406L82.72763061523438,254.91468811035156 68.00300598144531,274.89813232421875 53.22517395019531,265.24554443359375 70.02183532714844,245.36334228515625 69.57222747802734,244.9832000732422C63.6124382019043,239.82064819335938,58.15318298339844,234.09564208984375,53.27700424194336,227.8907470703125L52.08164978027344,226.3316192626953 28.477025985717773,240.0375213623047 18.657007217407227,221.8704833984375 41.387542724609375,209.63848876953125 40.480281829833984,207.9189453125C37.3062629699707,201.72210693359375,34.64187240600586,195.22103881835938,32.542415618896484,188.47109985351562L32.326560974121094,187.74545288085938 4.664003849029541,189.21861267089844 2.9455037117004395,171.78810119628906 27.844736099243164,166.22262573242188 27.64046287536621,164.43563842773438C27.219934463500977,160.29470825195312 27.004505157470703,156.0931396484375 27.00450325012207,151.84124755859375 27.004505157470703,148.65232849121094 27.125682830810547,145.49171447753906 27.36368179321289,142.36376953125L27.42729949951172,141.64735412597656 0,140.36434936523438 0,123.67032623291016 30.2820987701416,123.51725769042969 30.882526397705078,121.05674743652344C32.1483268737793,116.13697814941406,33.71042251586914,111.33614349365234,35.54865264892578,106.67438507080078L35.805171966552734,106.04654693603516 11.353879928588867,89.60700225830078 21.84900665283203,74.87700653076172 43.31122589111328,90.5512924194336 43.32439041137695,90.52774810791016C47.279502868652344,83.64945983886719,51.87961959838867,77.18914031982422,57.04217529296875,71.22935485839844L57.3647575378418,70.86581420898438 38.39940643310547,53.405433654785156 53.62040328979492,36.22040939331055 72.60659790039062,56.16477966308594 74.13462829589844,54.93413162231445C78.78829956054688,51.277000427246094,83.71189880371094,47.94785690307617,88.87061309814453,44.98151779174805L91.26322174072266,43.644004821777344 82.11925506591797,21.787662506103516 99.91800689697266,14.913652420043945 108.49507904052734,35.90218734741211 110.67683410644531,35.133731842041016C116.40059661865234,33.19682312011719,122.31301879882812,31.669153213500977,128.37928771972656,30.58556365966797L128.48033142089844,30.56882095336914 128.64151000976562,5.830137252807617 147.66773986816406,5.215898036956787z" fill="#FFC44D" />
  </g>
</svg>