<svg width="300" height="300" xmlns="http://www.w3.org/2000/svg">
  <g>
    <path d="M132.6827392578125,214.31419372558594L115.40977478027344,220.818359375 115.40936279296875,233.62142944335938C125.3671875,229.7600860595703,132.6827392578125,214.31419372558594,132.6827392578125,214.31419372558594z M177.79881286621094,208.01499938964844L194.8701629638672,220.00491333007812 199.74716186523438,208.6246795654297 177.79881286621094,208.01499938964844z M44.69136047363281,21.22105598449707C48.620933532714844,20.595779418945312 55.05113983154297,25.517488479614258 55.05113983154297,25.51749038696289 55.05113983154297,25.517488479614258 138.3739013671875,96.44375610351562 144.470703125,100.50827026367188 144.470703125,100.50827026367188 287.3387451171875,109.85665130615234 296.48394775390625,117.3759994506836 305.629150390625,124.89533996582031 294.04486083984375,127.13082885742188 294.04486083984375,127.13082885742188 294.04486083984375,127.13082885742188 186.5379180908203,110.4663314819336 156.4605255126953,115.34374237060547 156.4605255126953,115.34374237060547 153.20928955078125,149.07864379882812 157.88328552246094,151.11117553710938 162.55728149414062,153.14370727539062 212.1710205078125,150.90895080566406 213.36410522460938,169.4014434814453 213.36410522460938,169.4014434814453 268.84490966796875,168.18209838867188 261.52874755859375,178.5464630126953 254.21261596679688,188.91082763671875 214.58360290527344,184.03346252441406 214.58360290527344,184.03346252441406 214.58360290527344,184.03346252441406 208.48680114746094,230.97885131835938 212.14488220214844,235.8562469482422 212.14488220214844,235.8562469482422 236.53211975097656,246.22073364257812 223.119140625,261.4626159667969 209.7061767578125,276.7044982910156 202.99966430664062,246.42396545410156 204.2190399169922,241.3433380126953 204.2190399169922,241.3433380126953 186.9447479248047,218.379150390625 167.84141540527344,216.34690856933594 148.7380828857422,214.3146514892578 147.9251708984375,216.9565887451172 147.9251708984375,216.9565887451172 147.9251708984375,216.9565887451172 120.0835952758789,241.75013732910156 115.81583404541016,251.9114532470703 111.54808807373047,262.07275390625 121.30294799804688,277.5179443359375 105.45130157470703,278.73724365234375 89.59966278076172,279.95660400390625 89.19320678710938,269.3885192871094 90.20933532714844,260.6498107910156 91.22547149658203,251.91111755371094 91.63201904296875,246.62744140625 102.80945587158203,247.23712158203125L103.82559204101562,222.24037170410156 60.13197708129883,220.6145782470703 58.303348541259766,231.99520874023438C58.303348541259766,231.99520874023438,52.61344528198242,241.95326232910156,47.126365661621094,231.58876037597656L48.54854202270508,217.7694091796875C48.54854202270508,217.7694091796875,39.0382080078125,215.86734008789062,40.44301986694336,207.46287536621094L37.777347564697266,207.46287536621094C37.77735137939453,207.46287536621094,19.48702049255371,230.36940002441406,12.018467903137207,200.80006408691406L4.092660427093506,198.97103881835938C4.0926594734191895,198.97103881835938 -5.509762287139893,196.37991333007812 4.702340126037598,191.5024871826172 14.91443920135498,186.62506103515625 36.709964752197266,191.35006713867188 36.709964752197266,191.35006713867188L37.47206497192383,199.73312377929688 41.434974670410156,199.73312377929688 40.52046203613281,187.8444366455078C40.52046203613281,187.8444366455078 56.52452850341797,185.71054077148438 62.9261589050293,182.052490234375 69.3277816772461,178.39442443847656 96.91575622558594,156.90330505371094 138.2214813232422,155.5315399169922 138.2214813232422,155.5315399169922 143.55618286132812,142.42349243164062 131.21018981933594,125.35252380371094 131.21018981933594,125.35252380371094 80.45442199707031,152.78799438476562 53.62855911254883,173.66943359375 53.62855529785156,173.66943359375 36.86238479614258,179.30894470214844 44.178531646728516,166.9629669189453 51.49467468261719,154.6170196533203 130.44808959960938,111.02510833740234 130.44808959960938,111.02510833740234L130.29566955566406,103.4041519165039C130.29566955566406,103.4041519165039 45.90595626831055,48.27918243408203 42.24787521362305,30.598546981811523 40.876102447509766,23.96830940246582 42.3336181640625,21.59622573852539 44.69136047363281,21.22105598449707z" fill="#63CC73" />
  </g>
</svg>