<svg width="300" height="300" xmlns="http://www.w3.org/2000/svg">
  <g>
    <path d="M125.42161560058594,189.83016967773438L119.35348510742188,194.25241088867188 125.5248794555664,201.34967041015625 125.42161560058594,189.83016967773438z M147.84365844726562,172.85882568359375L135.29542541503906,184.58448791503906 163.0666961669922,184.58407592773438 147.84365844726562,172.85882568359375z M95.69608306884766,136.75619506835938L83.97042846679688,137.06475830078125 97.23892974853516,147.55612182617188 95.69608306884766,136.75619506835938z M66.07339477539062,121.0191421508789L75.94762420654297,130.27622985839844 75.94762420654297,121.94485473632812 66.07339477539062,121.0191421508789z M17.920034408569336,62.15524673461914C23.1993408203125,62.147010803222656 29.359046936035156,63.02848434448242 37.89070129394531,65.06513214111328 38.700321197509766,65.2583999633789 133.34156799316406,125.95625305175781 133.34156799316406,125.95625305175781 133.34156799316406,125.95625305175781 162.03897094726562,146.9383544921875 220.04983520507812,117.0074234008789L191.35311889648438,96.02494049072266C191.35311889648438,96.02494049072266,187.65032958984375,84.91656494140625,210.7928466796875,91.087890625L237.32980346679688,101.88749694824219C237.32980346679688,101.88749694824219,253.06692504882812,63.316253662109375,261.3983154296875,80.90473937988281L262.0154724121094,118.5502700805664 295.6496887207031,134.59591674804688C295.6496887207031,134.59591674804688,311.38677978515625,145.08731079101562,282.998291015625,148.48158264160156L247.20379638671875,131.20164489746094 196.28985595703125,148.7901611328125C196.28985595703125,148.7901611328125,181.478515625,154.65298461914062,194.43844604492188,160.8243865966797L295.6492004394531,214.51559448242188C295.6492004394531,214.51559448242188,305.5234069824219,247.84115600585938,249.98081970214844,231.4869384765625L178.701171875,192.9154052734375 137.66134643554688,192.9154052734375 137.35276794433594,206.80105590820312 144.14132690429688,212.97244262695312C144.14132690429688,212.97244262695312 160.80409240722656,221.30380249023438 148.46127319335938,233.4923095703125 136.1184844970703,245.6807861328125 131.18138122558594,228.40090942382812 131.18138122558594,228.40090942382812 131.18138122558594,228.40090942382812 128.4042510986328,221.76708984375 135.19277954101562,216.52139282226562L110.8162841796875,193.22430419921875 85.71932220458984,196.10430908203125 93.7417221069336,208.85855102539062C93.7417221069336,208.85855102539062,95.93389129638672,222.21087646484375,85.01842498779297,212.62747192382812L71.31916809082031,194.92144775390625C71.31916809082031,194.92144775390625,59.43924331665039,191.2186279296875,61.75351333618164,181.3443603515625L43.239013671875,155.8873291015625C43.239013671875,155.8873291015625,41.5418815612793,147.555908203125,48.1761360168457,153.26446533203125L64.3766098022461,171.47012329101562C64.3766098022461,171.47012329101562,79.03364562988281,153.41876220703125,89.83356475830078,152.80160522460938L51.879554748535156,116.69886779785156 1.5827759504318237,76.58472442626953C1.5827749967575073,76.58472442626953,-7.516625881195068,62.194923400878906,17.920034408569336,62.15524673461914z" fill="#7DCEDA" />
  </g>
</svg>