<svg width="300" height="300" xmlns="http://www.w3.org/2000/svg">
  <g>
    <path d="M172.0430145263672,0L280.64520263671875,92.47312927246094 288.17205810546875,110.75269317626953 126.88172912597656,300 11.827959060668945,200 17.204299926757812,183.8709716796875 172.0430145263672,0z" fill="#5A4573" />
    <path d="M172.0430145263672,0L280.64520263671875,92.47312927246094 124.82795715332031,275 17.204301834106445,183.8709716796875 172.0430145263672,0z" fill="#9B7BAC" />
    <path d="M131,200C137,200 142,205 142,211 142,217 137,222 131,222 124,222 120,217 120,211 120,205 124,200 131,200z M69,156C75,156 80,161 80,167 80,173 75,178 69,178 62,178 58,173 58,167 58,161 62,156 69,156z M187,142C193,142 198,146 198,153 198,159 193,164 187,164 180,164 176,159 176,153 176,146 180,142 187,142z M125,91C131,91 136,96 136,102 136,108 131,113 125,113 119,113 114,108 114,102 114,96 119,91 125,91z M234,77C240,77 245,82 245,88 245,94 240,99 234,99 228,99 223,94 223,88 223,82 228,77 234,77z M171,30C177,30 182,34 182,41 182,47 177,52 171,52 165,52 160,47 160,41 160,34 165,30 171,30z" fill="#AA96BA" />
  </g>
</svg>