<svg width="300" height="300" xmlns="http://www.w3.org/2000/svg">
  <g>
    <path d="M72.49114990234375,188.72152709960938C72.51522827148438,188.51034545898438 63.84442901611328,234.2105255126953 117.60445404052734,235.7142791748047 142.98040771484375,235.7142791748047 185.55563354492188,236.7481231689453 193.73233032226562,235.7142791748047 201.9090118408203,234.68045043945312 231.14991760253906,224.49478149414062 229.2584686279297,189.0974884033203 229.2584686279297,189.0974884033203 201.25112915039062,212.59397888183594 152.06565856933594,212.53131103515625 107.25760650634766,212.47422790527344 72.46707153320312,188.93272399902344 72.49114990234375,188.72152709960938z M151.43923950195312,0C236.40158081054688,-2.136970613485223E-14 246.92787170410156,67.2932357788086 246.92787170410156,67.2932357788086 246.92787170410156,67.2932357788086 314.8475646972656,107.89473724365234 246.0506134033203,159.39849853515625L245.7996826171875,263.5338439941406C245.7996826171875,263.5338439941406,268.59832763671875,265.84674072265625,279.81182861328125,297.1123352050781L280.78045654296875,300 19.86035919189453,300C19.86035919189453,300,24.653392791748047,278.00750732421875,53.600746154785156,264.849609375L53.694698333740234,154.88722229003906C53.694698333740234,154.88722229003906 -24.12457275390625,109.02255249023438 54.070865631103516,68.42105102539062 54.070865631103516,68.42105102539062 66.47686767578125,-2.136970613485223E-14 151.43923950195312,0z" fill="#E56918" />
    <path d="M159.67169189453125,104.79857635498047L233,104.79857635498047 232.85137939453125,106.47222137451172C228.94195556640625,144.96743774414062,198.814697265625,175.7120361328125,160.60699462890625,180.5688018798828L159.67169189453125,180.67572021484375 159.67169189453125,104.79857635498047z M67,104.79857635498047L142.6851806640625,104.79857635498047 142.6851806640625,180.91452026367188 141.48497009277344,180.8079376220703C102.28952026367188,176.8274383544922,71.12913513183594,145.66734313964844,67.14862060546875,106.47222137451172L67,104.79857635498047z M159.67169189453125,15.238797187805176L160.60699462890625,15.345710754394531C198.12001037597656,20.114179611206055,227.84373474121094,49.8376579284668,232.6122589111328,87.35034942626953L232.66502380371094,87.81206512451172 159.67169189453125,87.81206512451172 159.67169189453125,15.238797187805176z M142.6851806640625,14.999999046325684L142.6851806640625,87.81206512451172 67.33497619628906,87.81206512451172 67.38775634765625,87.35034942626953C72.24456787109375,49.14297866821289,102.98943328857422,19.015979766845703,141.48497009277344,15.106578826904297L142.6851806640625,14.999999046325684z" fill="#F28B44" />
  </g>
</svg>