<svg width="300" height="300" xmlns="http://www.w3.org/2000/svg">
  <g>
    <path d="M41.416481018066406,195.68780517578125L10.354574203491211,231.40879821777344 76.87887573242188,231.53822326660156 41.416481018066406,195.68780517578125z M77.84956359863281,190.1866912841797L54.09942626953125,190.50973510742188 78.04370880126953,214.4540252685547 77.84956359863281,190.1866912841797z M8.542098045349121,189.7332000732422L8.801458358764648,213.80636596679688 30.02625274658203,189.9925537109375 8.542098045349121,189.7332000732422z M125.28459930419922,167.47247314453125L108.4582290649414,174.4613494873047 107.16448974609375,195.1690673828125 125.28459930419922,167.47247314453125z M41.41701126098633,141.84619140625L9.059286117553711,178.86143493652344 77.07301330566406,178.92665100097656 41.41701126098633,141.84619140625z M77.46128845214844,133.49822998046875L51.7697639465332,133.56344604492188 77.84956359863281,161.4541778564453 77.46128845214844,133.49822998046875z M9.835834503173828,132.26817321777344L9.578021049499512,160.22412109375 33.132469177246094,132.78639221191406 9.835834503173828,132.26817321777344z M143.66249084472656,90.33423614501953L119.33000183105469,149.61172485351562 146.7687530517578,131.4916229248047 143.66249084472656,90.33423614501953z M47.1756706237793,79.33356475830078L10.09520435333252,124.37371063232422 78.23784637451172,125.34440612792969 47.1756706237793,79.33356475830078z M38.05116271972656,78.68592071533203L9.578021049499512,78.94477844238281 9.059286117553711,114.14961242675781 38.05116271972656,78.68592071533203z M188.70269775390625,63.80248260498047L152.2046356201172,72.34457397460938 162.2998504638672,108.45435333251953 188.70269775390625,63.80248260498047z M9.124512672424316,40.50585174560547L9.31865119934082,70.40319061279297 38.43943405151367,69.4324951171875 9.124512672424316,40.50585174560547z M295.4136657714844,28.46925926208496L276.9704895019531,29.439958572387695 277.5767517089844,68.94636535644531 295.69635009765625,69.39833068847656 295.4136657714844,28.46925926208496z M226.36557006835938,27.30443000793457L217.0469207763672,40.50585174560547 234.9076690673828,35.846527099609375 226.36557006835938,27.30443000793457z M172.39505004882812,23.421659469604492L157.64051818847656,58.75487518310547 193.3620147705078,47.88311767578125 172.39505004882812,23.421659469604492z M217.82347106933594,19.150611877441406L187.1495819091797,19.538888931274414 206.17515563964844,41.670684814453125 217.82347106933594,19.150611877441406z M257.0394592285156,16.82094383239746L231.02490234375,17.209224700927734 245.3911590576172,33.90514373779297 257.0394592285156,16.82094383239746z M165.79434204101562,16.044389724731445L16.69591522216797,28.46925926208496C65.61883544921875,76.87500762939453,86.97407531738281,127.09166717529297,86.97407531738281,127.09166717529297L87.36235046386719,210.18296813964844 93.57479095458984,209.79469299316406 99.01068115234375,172.13180541992188 165.79434204101562,16.044389724731445z M169.80621337890625,6.46636962890625L289.9139404296875,8.020003318786621 297.1612854003906,22.51570701599121 297.1612854003906,73.25067901611328 296.1263732910156,87.74638366699219 291.467041015625,87.74638366699219 291.7906188964844,94.47653198242188C291.7906188964844,94.47653198242188 283.4426574707031,95.83551025390625 283.8309326171875,101.65966796875 284.2192077636719,107.48384857177734 290.8199157714844,106.51314544677734 290.8199157714844,106.51314544677734L299.5561828613281,99.91242218017578C299.5561828613281,99.91242218017578 302.0799865722656,107.2896957397461 295.0909729003906,112.33732604980469 288.1019592285156,117.38494110107422 279.94781494140625,108.84281921386719 277.6181640625,104.96004486083984 275.2884826660156,101.07726287841797 275.87091064453125,94.86480712890625 283.0540466308594,93.6999740600586L284.02471923828125,89.23477172851562 276.4533386230469,89.04063415527344 275.1590881347656,29.763519287109375 210.70504760742188,56.68415451049805 105.87023162841797,216.39576721191406C105.87023162841797,216.39576721191406,119.33051300048828,239.9512939453125,87.7506332397461,249.2699737548828L90.33914184570312,257.81207275390625 193.3620147705078,259.1063232421875C193.3620147705078,259.1063232421875,224.94190979003906,256.77667236328125,200.35101318359375,293.53363037109375L0,292.2388610839844 0.5171835422515869,28.20944595336914 166.34439086914062,14.45892333984375 169.80621337890625,6.46636962890625z" fill="#B09D7F" />
  </g>
</svg>