<svg width="300" height="300" xmlns="http://www.w3.org/2000/svg">
  <g>
    <path d="M76.42321014404297,202.9320831298828C103.22776794433594,202.9320831298828 124.95716094970703,224.66148376464844 124.95716094970703,251.46604919433594 124.95716094970703,278.2706298828125 103.22776794433594,300 76.42321014404297,300 49.61864471435547,300 27.889253616333008,278.2706298828125 27.889251708984375,251.46604919433594 27.889253616333008,224.66148376464844 49.61864471435547,202.9320831298828 76.42321014404297,202.9320831298828z M202.88504028320312,124.54769897460938L134.30029296875,189.48748779296875 227.26673889160156,140.2698516845703 202.88504028320312,124.54769897460938z M152.3004608154297,90.82550048828125L116.52729034423828,184.93077087402344 185.34022521972656,115.20594024658203 152.3004608154297,90.82550048828125z M109.46320343017578,64.3929443359375L107.4124755859375,158.04295349121094 137.03457641601562,83.76132202148438 109.46320343017578,64.3929443359375z M163.88954162597656,0.002341124229133129C180.79229736328125,0.13706260919570923 200.83457946777344,6.1403679847717285 224.076171875,22.23995018005371 311.5740051269531,82.8501205444336 252.7869415283203,153.0301971435547 252.7869415283203,153.0301971435547L120.62830352783203,216.83058166503906C120.62830352783203,216.83058166503906,112.88108825683594,194.50003051757812,88.95590209960938,196.55116271972656L94.42451477050781,44.114295959472656C94.42451477050781,44.114295959472656,117.15837860107422,-0.37015438079833984,163.88954162597656,0.002341124229133129z" fill="#FF9C00" />
  </g>
</svg>