<svg width="300" height="300" xmlns="http://www.w3.org/2000/svg">
  <g>
    <path d="M150.1544189453125,221.7545166015625L121.18148803710938,250.57424926757812 179.12261962890625,250.57424926757812 150.1544189453125,221.7545166015625z M166.89572143554688,205.32211303710938L154.22430419921875,212.01905822753906 175.0343017578125,229.5330810546875 166.89572143554688,205.32211303710938z M133.82623291015625,204.9104461669922L126.71746826171875,230.04736328125 146.70289611816406,211.7097625732422 137.68069458007812,206.9457244873047 133.82623291015625,204.9104461669922z M140.9060516357422,196.3592071533203L150.51548767089844,207.0738983154297 160.3944854736328,196.3592071533203 140.9060516357422,196.3592071533203z M150.61813354492188,150.20584106445312L137.94644165039062,191.31155395507812 163.6730499267578,191.31155395507812 150.61813354492188,150.20584106445312z M119.71157836914062,68.9216079711914L130.8379364013672,69.23067474365234 130.94094848632812,120.63866424560547 145.05494689941406,126.40789031982422 145.46702575683594,89.01091003417969 156.18130493164062,87.77464294433594 157.0054931640625,126.61394500732422 229.1207733154297,97.3556900024414 233.7567596435547,107.65789031982422 157.41757202148438,141.6551513671875 204.8105926513672,300 190.34466552734375,300 179.36122131347656,259.4093017578125 123.11129760742188,259.3063049316406 110.66026306152344,300 95.65911865234375,300 144.4368133544922,141.24307250976562 66.24324035644531,107.24580383300781 70.57015991210938,96.11942291259766 118.78437805175781,116.2087173461914 119.71157836914062,68.9216079711914z M216.03781127929688,0L224.07310485839844,4.945116996765137 186.77879333496094,59.958709716796875 178.9333038330078,42.2425651550293 161.48825073242188,73.5217514038086 152.47251892089844,67.53109741210938 179.51588439941406,23.025585174560547 187.19100952148438,39.35490798950195 216.03781127929688,0z" fill="#CDADFD" />
  </g>
</svg>