<svg width="300" height="300" xmlns="http://www.w3.org/2000/svg">
  <g>
    <path d="M105.40019989013672,0.004146490711718798C138.95091247558594,0.38433563709259033 159.17381286621094,26.853862762451172 159.17381286621094,26.853864669799805 159.17381286621094,26.853862762451172 177.6099090576172,71.02908325195312 166.4786834716797,90.50791931152344 141.468505859375,134.27389526367188 189.08897399902344,164.59706115722656 189.08897399902344,164.59706115722656L252.05003356933594,214.6855010986328C252.05003356933594,214.6855010986328 296.574951171875,272.77435302734375 250.31077575683594,295.035888671875 204.04661560058594,317.29742431640625 174.82713317871094,257.469482421875 174.82713317871094,257.469482421875 131.693603515625,142.33554077148438 103.1698226928711,154.51028442382812 79.86383056640625,156.9452362060547 56.55781555175781,159.38018798828125 53.311668395996094,142.9157257080078 53.31166458129883,142.9157257080078L56.44134521484375,138.85743713378906C69.07996368408203,136.53854370117188 38.469573974609375,106.50871276855469 38.469573974609375,106.50871276855469 23.511985778808594,79.02969360351562 30.12115478515625,56.0725212097168 30.121156692504883,56.07251739501953 30.12115478515625,56.0725212097168 57.94921875,64.7684326171875 71.16755676269531,81.11671447753906 84.38587951660156,97.46499633789062 98.29991912841797,80.07319641113281 98.29991912841797,80.07319641113281 118.47525787353516,67.20327758789062 100.03917694091797,52.594173431396484 100.03917694091797,52.594173431396484L52.03575897216797,20.592815399169922C72.14588165283203,5.0488786697387695,90.1498794555664,-0.16866686940193176,105.40019989013672,0.004146490711718798z" fill="#CFA76C" />
  </g>
</svg>