<svg width="300" height="300" xmlns="http://www.w3.org/2000/svg">
  <g>
    <path d="M180.94805908203125,22.031494140625L208.78607177734375,44.53882598876953 224.1858367919922,43.35422897338867 300,99.03025817871094 299.40771484375,123.31448364257812C299.40771484375,123.31448364257812 277.49267578125,143.45263671875 273.9388732910156,170.69834899902344 270.3851013183594,197.94406127929688 195.75552368164062,234.6665496826172 195.75552368164062,234.6665496826172 195.75552368164062,234.6665496826172 172.6558837890625,242.95872497558594 148.3716583251953,235.8511505126953L124.08743286132812,221.63597106933594 42.350276947021484,277.904296875C42.35028076171875,277.904296875 30.948545455932617,279.2369689941406 33.761962890625,269.76019287109375 36.57537841796875,260.283447265625 107.79930114746094,209.6421356201172 107.79930114746094,209.6421356201172 107.79930114746094,209.6421356201172 93.80611419677734,199.78683471679688 93.80611419677734,199.78683471679688 93.79383850097656,199.77455139160156 9.922042846679688,262.5047912597656 9.922040939331055,262.5047912597656 9.922042846679688,262.5047912597656 -5.033481597900391,267.0950927734375 1.777942419052124,252.5837860107422L79.07293701171875,188.4674530029297 82.03426361083984,128.05287170410156 150.1485595703125,71.19224548339844 148.96395874023438,54.01559829711914 180.94805908203125,22.031494140625z" fill="#D25959" />
  </g>
</svg>