<svg width="300" height="300" xmlns="http://www.w3.org/2000/svg">
  <g>
    <path d="M125.35179138183594,33.90161895751953L160.08128356933594,61.034034729003906 157.9106903076172,85.99586486816406C157.9106903076172,85.99586486816406,198.60931396484375,114.21357727050781,198.60931396484375,141.88864135742188L297.1904296875,203.20791625976562C297.1904296875,203.20791625976562,307.139404296875,216.95501708984375,289.59375,213.69912719726562L208.37705993652344,171.19192504882812 197.5240936279297,180.77874755859375 274.3992919921875,236.30987548828125C274.3992919921875,236.30987548828125,278.37872314453125,249.51434326171875,266.25958251953125,243.72607421875L186.1284637451172,192.71731567382812 178.16961669921875,201.0379638671875 254.6830596923828,255.84564208984375C254.6830596923828,255.84564208984375,262.0992431640625,269.95452880859375,244.5536346435547,265.0706787109375L170.02989196777344,220.93505859375C170.02989196777344,220.93505859375,85.4671630859375,228.71304321289062,39.88468551635742,149.48611450195312L33.915550231933594,143.24563598632812 25.775819778442383,151.92803955078125 1.5914440155029297E-05,125.0665512084961 32.55891799926758,102.27531433105469C32.55891799926758,102.27531433105469,36.35745620727539,58.863441467285156,107.44439697265625,53.97960662841797L125.35179138183594,33.90161895751953z" fill="#C22222" />
  </g>
</svg>