<svg width="300" height="300" xmlns="http://www.w3.org/2000/svg">
  <g>
    <path d="M130.91893005371094,100.32473754882812C123.86248779296875,100.35087585449219,118.35823059082031,101.57703399658203,124.56692504882812,106.37715911865234L160.87998962402344,120.25456237792969 160.87998962402344,164.49884033203125C160.87998962402344,164.49884033203125,188.0100555419922,176.18539428710938,195.3144073486328,159.28103637695312L195.73138427734375,120.46368408203125 146.583984375,101.47250366210938C146.583984375,101.47250366210938,137.97535705566406,100.29859924316406,130.91893005371094,100.32473754882812z M210.2686767578125,93.66160583496094C203.7203369140625,93.66756439208984,187.80795288085938,94.42265319824219,204.3402862548828,102.30740356445312L237.9918975830078,111.85518646240234 238.7744903564453,151.92398071289062C238.7744903564453,151.92398071289062,251.45254516601562,158.96734619140625,255.83506774902344,151.45443725585938L254.1133575439453,103.5595703125 212.79232788085938,93.69874572753906C212.79232788085938,93.69874572753906,211.77984619140625,93.66022491455078,210.2686767578125,93.66160583496094z M176.01004028320312,66.30813598632812L175.3839569091797,81.33413696289062C175.3839569091797,81.33413696289062,223.30117797851562,79.54586791992188,263.0350036621094,95.94258880615234L263.138916015625,109.81195068359375 291.834716796875,109.19483947753906C291.834716796875,109.19483947753906,310.61712646484375,136.74249267578125,291.2086486816406,158.02932739257812L263.138916015625,162.65625 262.87847900390625,217.036865234375C246.8975067138672,222.6212615966797,152.90347290039062,251.266357421875,51.3416862487793,217.5067596435547L51.42023468017578,190.27218627929688 11.038121223449707,189.95916748046875C11.038122177124023,189.95916748046875,-14.005048751831055,163.6637420654297,11.35116195678711,137.3683319091797L51.52387619018555,137.6797637939453 51.53733825683594,97.533935546875C56.14924621582031,94.47994995117188,76.48297119140625,84.11238098144531,125.61064147949219,78.82980346679688L125.29759216308594,66.93421936035156 176.01004028320312,66.30813598632812z" fill="#8A9A4D" />
  </g>
</svg>