<svg width="300" height="300" xmlns="http://www.w3.org/2000/svg">
  <g>
    <path d="M75.60055541992188,158.9739990234375L168.151611328125,222.99850463867188C177.35336303710938,228.12442016601562 184.44322204589844,236.9635009765625 187.0277557373047,248.0286102294922 191.89266967773438,268.8570861816406 178.95169067382812,289.68572998046875 158.1232147216797,294.5506591796875 149.66165161132812,296.52703857421875 141.2000732421875,295.56475830078125 133.80877685546875,292.3288269042969L26.717161178588867,235.9434051513672 11.821222305297852,183.37368774414062C6.593543529510498,184.31858825683594 1.4872838258743286,181.0065155029297 0.26541668176651,175.77528381347656 -0.9958691596984863,170.37530517578125 2.359513998031616,164.97523498535156 7.759870529174805,163.71385192871094 13.16023063659668,162.4524688720703 18.56055450439453,165.80747985839844 19.82184600830078,171.2074432373047 19.86125946044922,171.37620544433594 75.60055541992188,158.9739990234375 75.60055541992188,158.9739990234375z M41.446678161621094,35.09600067138672C46.99238586425781,35.09599685668945 51.488075256347656,39.591365814208984 51.488067626953125,45.13667297363281 51.488075256347656,45.30997085571289 108.58726501464844,45.91075134277344 108.58726501464844,45.91075134277344L184.1501007080078,129.30783081054688C191.9447784423828,136.392333984375 196.83837890625,146.61231994628906 196.83837890625,157.9752655029297 196.83837890625,179.3643341064453 179.49911499023438,196.70359802246094 158.11004638671875,196.70359802246094 149.42071533203125,196.70359802246094 141.39979553222656,193.84193420410156 134.93826293945312,189.00965881347656L43.478477478027344,109.744140625 40.9299430847168,55.1642951965332C35.6243782043457,54.89537048339844 31.4052791595459,50.508697509765625 31.405277252197266,45.13667297363281 31.4052791595459,39.591365814208984 35.90096664428711,35.09599685668945 41.446678161621094,35.09600067138672z M176.4793701171875,4.436022758483887C177.46617126464844,4.390843391418457 178.4764404296875,4.4916791915893555 179.482421875,4.754754543304443 184.84774780273438,6.157803535461426 188.05982971191406,11.644327163696289 186.65687561035156,17.009239196777344 186.613037109375,17.17689323425293 241.70265197753906,32.204132080078125 241.70265197753906,32.204132080078125L293.7078857421875,132.00540161132812C299.45660400390625,140.8314666748047 301.60540771484375,151.95703125 298.7305908203125,162.9503173828125 293.31915283203125,183.6435546875 272.15716552734375,196.03192138671875 251.46395874023438,190.62051391601562 243.05734252929688,188.42214965820312 236.02134704589844,183.6243133544922 230.99256896972656,177.31443786621094L162.56227111816406,77.48846435546875 173.90525817871094,24.039447784423828C168.84033203125,22.436969757080078 165.8683319091797,17.12558364868164 167.22743225097656,11.928322792053223 168.36734008789062,7.569336414337158 172.2031707763672,4.631788730621338 176.4793701171875,4.436022758483887z" fill="#FE3131" />
  </g>
</svg>