<svg width="300" height="300" xmlns="http://www.w3.org/2000/svg">
  <g>
    <path d="M151.70632934570312,113.6736831665039C152.47189331054688,113.67401885986328 153.24546813964844,113.67747497558594 154.02706909179688,113.68409729003906 254.07452392578125,114.53195190429688 223.12765502929688,164.7672882080078 223.12765502929688,164.7672882080078L163.81057739257812,287.0701904296875 273.3629150390625,287.0701904296875 273.3629150390625,300 26.63707733154297,300 26.63707733154297,287.0701904296875 144.70748901367188,287.0701904296875 85.98611450195312,163.919921875C85.98611450195312,163.919921875,54.47779083251953,113.63130187988281,151.70632934570312,113.6736831665039z M153.95608520507812,1.722574234008789E-05C182.20794677734375,1.52587890625E-05 205.110595703125,22.902667999267578 205.110595703125,51.15451431274414 205.110595703125,79.40636444091797 182.20794677734375,102.30900573730469 153.95608520507812,102.30900573730469 125.7042465209961,102.30900573730469 102.80160522460938,79.40636444091797 102.80160522460938,51.15451431274414 102.80160522460938,22.902667999267578 125.7042465209961,1.52587890625E-05 153.95608520507812,1.722574234008789E-05z" fill="#BDEF9C" stroke="#000000" stroke-width="5" />
  </g>
</svg>