<svg width="300" height="300" xmlns="http://www.w3.org/2000/svg">
  <g>
    <path d="M259.91107177734375,19.92426872253418C262.5858154296875,20.157453536987305,265.0797424316406,22.924068450927734,266.6758728027344,30.47905731201172L265.65435791015625,60.44340515136719 289.830322265625,77.809326171875 289.1493225097656,87.6840591430664 262.5898132324219,80.19287872314453 185.63531494140625,135.69573974609375 298.6833190917969,255.32704162597656C298.6833190917969,255.32704162597656,309.693359375,295.3929443359375,268.03790283203125,273.6015625L232.6251220703125,247.3818817138672 203.3415985107422,267.4718017578125C203.3415985107422,267.4718017578125,177.46311950683594,272.57940673828125,187.6782989501953,255.55406188964844L215.25930786132812,235.46412658691406 185.9757843017578,209.2450714111328 171.67453002929688,217.0767059326172C171.67453002929688,217.0767059326172,152.26568603515625,216.73622131347656,153.28720092773438,203.45640563964844L165.2049102783203,193.92222595214844C165.2049102783203,193.92222595214844 153.9682159423828,169.7461700439453 111.40495300292969,189.1551055908203 68.84169006347656,208.5640411376953 27.980945587158203,209.2450714111328 27.980945587158203,209.2450714111328 27.980945587158203,209.2450714111328 -17.136112213134766,210.77732849121094 7.21006965637207,187.9633331298828L47.0496940612793,161.91453552246094 50.1142463684082,147.272705078125 86.54833984375,138.41949462890625 86.20782470703125,122.41565704345703 78.03570556640625,128.5447998046875 56.92436218261719,127.86376190185547 62.712955474853516,115.60550689697266 74.29014587402344,106.75231170654297 57.60536575317383,96.87760162353516 57.60536575317383,106.07129669189453 43.6446418762207,105.3902816772461 40.5800895690918,95.85608673095703C40.5800895690918,95.85608673095703,13.339645385742188,100.28267669677734,29.00290298461914,83.2573013305664L39.89908218383789,80.19273376464844 43.6446418762207,87.34339141845703 49.09273147583008,82.91679382324219 22.533288955688477,46.482505798339844C22.53329086303711,46.482505798339844 10.6156005859375,23.3280029296875 40.23958969116211,37.28880310058594 69.86357116699219,51.249603271484375 151.5846710205078,107.09302520751953 151.5846710205078,107.09302520751953L234.66827392578125,70.99933624267578 234.3277587890625,62.14617156982422 221.72901916503906,55.336036682128906 223.09104919433594,44.78033447265625 243.18093872070312,47.84489440917969 247.26699829101562,31.160070419311523C247.26699829101562,31.160072326660156,254.02659606933594,19.411266326904297,259.91107177734375,19.92426872253418z" fill="#8CCD9B" />
  </g>
</svg>