<svg width="300" height="300" xmlns="http://www.w3.org/2000/svg">
  <g>
    <path d="M150,0C203.44488525390625,0,246.92861938476562,16.23607063293457,248.27444458007812,36.458702087402344L248.30194091796875,37.286170959472656 248.30654907226562,37.286170959472656 248.30654907226562,37.42465591430664 248.30654907226562,262.5753479003906 248.30654907226562,262.6018981933594 248.3056640625,262.6018981933594 248.27444458007812,263.541259765625C246.92861938476562,283.763916015625 203.44488525390625,300 150,300 96.55513763427734,300 53.071388244628906,283.763916015625 51.72556686401367,263.541259765625L51.69434356689453,262.6018981933594 51.693458557128906,262.6018981933594 51.693458557128906,37.42465591430664 51.693458557128906,37.286170959472656 51.698062896728516,37.286170959472656 51.72556686401367,36.458702087402344C53.071388244628906,16.23607063293457,96.55513763427734,0,150,0z" fill="#63C7A0" />
    <path d="M248.30654907226562,178.7399444580078L248.30654907226562,195.16514587402344 248.17095947265625,195.28683471679688C232.74362182617188,208.63465881347656 194.60482788085938,218.0797882080078 150,218.0797882080078 105.39515686035156,218.0797882080078 67.25638580322266,208.63465881347656 51.82905197143555,195.28683471679688L51.693458557128906,195.16514587402344 51.693458557128906,178.739990234375 52.28681564331055,179.5669708251953C64.77849578857422,196.2340087890625 103.79847717285156,208.39268493652344 150,208.39268493652344 196.20150756835938,208.39268493652344 235.22146606445312,196.2340087890625 247.71316528320312,179.5669708251953L248.30654907226562,178.7399444580078z M248.30654907226562,108.7787094116211L248.30654907226562,125.20389556884766 248.17095947265625,125.32556915283203C232.74362182617188,138.6734161376953 194.60482788085938,148.11854553222656 150,148.11854553222656 105.39515686035156,148.11854553222656 67.25638580322266,138.6734161376953 51.82905197143555,125.32556915283203L51.693458557128906,125.20389556884766 51.693458557128906,108.77873992919922 52.28681564331055,109.605712890625C64.77849578857422,126.27274322509766 103.79847717285156,138.43145751953125 150,138.43145751953125 196.20150756835938,138.43145751953125 235.22146606445312,126.27274322509766 247.71316528320312,109.605712890625L248.30654907226562,108.7787094116211z M195.92422485351562,41.69633102416992C202.39739990234375,41.69633102416992 207.64495849609375,44.694698333740234 207.64495849609375,48.393375396728516 207.64495849609375,52.09204864501953 202.39739990234375,55.09041976928711 195.92422485351562,55.09041976928711 189.4510498046875,55.09041976928711 184.2034912109375,52.09204864501953 184.2034912109375,48.393375396728516 184.2034912109375,44.694698333740234 189.4510498046875,41.69633102416992 195.92422485351562,41.69633102416992z M150,7.334965229034424C102.047607421875,7.334965229034424 63.17451477050781,20.84930992126465 63.17451477050781,37.52009582519531 63.17451477050781,54.19088363647461 102.047607421875,67.70523071289062 150,67.70523071289062 197.952392578125,67.70523071289062 236.82550048828125,54.19088363647461 236.82550048828125,37.52009582519531 236.82550048828125,20.84930992126465 197.952392578125,7.334965229034424 150,7.334965229034424z M150,1.4210854715202004E-14C204.29318237304688,5.474594217957929E-06 248.30654907226562,16.75559425354004 248.30654907226562,37.424659729003906 248.30654907226562,58.093727111816406 204.29318237304688,74.84931945800781 150,74.84931945800781 95.70680236816406,74.84931945800781 51.693458557128906,58.093727111816406 51.693458557128906,37.424659729003906 51.693458557128906,16.75559425354004 95.70680236816406,5.474594217957929E-06 150,1.4210854715202004E-14z" fill="#77FFFFFF" />
  </g>
</svg>