<svg width="300" height="300" xmlns="http://www.w3.org/2000/svg">
  <g>
    <path d="M185.83506774902344,187.5540313720703C186.2671661376953,189.08877563476562 188.16554260253906,196.59967041015625 188.16554260253906,198.30978393554688 188.16554260253906,201.9931182861328 188.7090301513672,205.18466186523438 186.89968872070312,207.81973266601562L188.33384704589844,208.7159423828125 208.43182373046875,207.73020935058594 208.35195922851562,207.70558166503906C205.4478759765625,206.8037872314453,196.02737426757812,201.36875915527344,189.31993103027344,191.05853271484375L185.83506774902344,187.5540313720703z M148.10812377929688,185.85577392578125L148.5453338623047,186.0940704345703C153.01712036132812,188.7086944580078 156.15484619140625,194.8297119140625 156.15484619140625,201.9637908935547 156.15484619140625,209.09786987304688 153.01712036132812,215.2188720703125 148.5453338623047,217.83349609375L148.1081085205078,218.07179260253906 171.10296630859375,218.07179260253906 170.66575622558594,217.83349609375C166.19395446777344,215.2188720703125 163.0562286376953,209.09786987304688 163.0562286376953,201.9637908935547 163.0562286376953,194.8297119140625 166.19395446777344,188.7086944580078 170.66575622558594,186.0940704345703L171.1029510498047,185.85577392578125 148.10812377929688,185.85577392578125z M112.4340591430664,185.85577392578125L112.87126159667969,186.0940704345703C117.34306335449219,188.7086944580078 120.48078918457031,194.8297119140625 120.48078155517578,201.9637908935547 120.48078918457031,209.09786987304688 117.34306335449219,215.2188720703125 112.87126159667969,217.83349609375L112.43405151367188,218.07179260253906 139.28317260742188,218.07179260253906 138.845947265625,217.83349609375C134.37416076660156,215.2188720703125 131.23641967773438,209.09786987304688 131.23641967773438,201.9637908935547 131.23641967773438,194.8297119140625 134.37416076660156,188.7086944580078 138.845947265625,186.0940704345703L139.2831573486328,185.85577392578125 112.4340591430664,185.85577392578125z M83.21316528320312,185.85577392578125L83.65037536621094,186.0940704345703C88.1221694946289,188.7086944580078 91.25989532470703,194.8297119140625 91.25989532470703,201.9637908935547 91.25989532470703,209.09786987304688 88.1221694946289,215.2188720703125 83.65037536621094,217.83349609375L83.2131576538086,218.07179260253906 103.60910034179688,218.07179260253906 103.17189025878906,217.83349609375C98.70008850097656,215.2188720703125 95.56236267089844,209.09786987304688 95.56236267089844,201.9637908935547 95.56236267089844,194.8297119140625 98.70008850097656,188.7086944580078 103.17189025878906,186.0940704345703L103.60910034179688,185.85577392578125 83.21316528320312,185.85577392578125z M53.2122688293457,185.85577392578125L53.53687286376953,186.06570434570312C58.00076675415039,189.12738037109375 61.031097412109375,195.09878540039062 61.031097412109375,201.9637908935547 61.031097412109375,208.82879638671875 58.00076675415039,214.8001708984375 53.53687286376953,217.86187744140625L53.21225357055664,218.07179260253906 74.38821411132812,218.07179260253906 73.95099639892578,217.83349609375C69.47919464111328,215.2188720703125 66.34146881103516,209.09786987304688 66.34146881103516,201.9637908935547 66.34146881103516,194.8297119140625 69.47919464111328,188.7086944580078 73.95099639892578,186.0940704345703L74.3882064819336,185.85577392578125 53.2122688293457,185.85577392578125z M66.27799987792969,71.88519287109375L66.77637481689453,85.3407211303711C66.77637481689453,85.34072875976562,97.1751937866211,92.8157958984375,73.25502014160156,106.76925659179688L82.2250747680664,124.70942687988281 93.18849182128906,124.70942687988281 110.63088989257812,79.85896301269531 141.02944946289062,78.8623046875 144.51763916015625,87.33401489257812 151.9930419921875,86.83568572998047 152.4918975830078,108.26414489746094 209.30233764648438,108.26414489746094 209.8004913330078,123.71257019042969 161.46157836914062,129.69259643554688 161.9599151611328,137.66592407226562 300,138.6629638671875C300,138.6629638671875,295.5153503417969,173.5462646484375,269.6016845703125,193.9780731201172L233.72116088867188,195.97171020507812C233.72116088867188,195.97171020507812 230.7311248779297,224.87545776367188 191.3622283935547,226.8688201904297 151.9933319091797,228.86216735839844 36.876705169677734,227.8657684326172 36.876705169677734,227.8657684326172 36.876705169677734,227.8657684326172 16.444753646850586,223.380859375 17.939775466918945,195.97218322753906 17.939773559570312,195.97218322753906 7.972965717315674,190.49044799804688 9.966323852539062,175.0419158935547L0,175.66481018066406 0,116.46735382080078 0.3966674208641052,116.43637084960938C9.606537818908691,115.74845123291016,35.03926086425781,114.71118927001953,44.352046966552734,123.21420288085938L51.328514099121094,106.27079772949219C51.328514099121094,106.27079772949219,24.41799545288086,96.80229187011719,54.8165397644043,85.8387680053711L55.813392639160156,72.38397216796875 66.27799987792969,71.88519287109375z" fill="#9AA55D" />
  </g>
</svg>