<?xml version="1.0" encoding="utf-8"?>
<!-- Generator: Adobe Illustrator 27.5.0, SVG Export Plug-In . SVG Version: 6.00 Build 0)  -->
<svg version="1.1" id="图层_1" xmlns="http://www.w3.org/2000/svg" xmlns:xlink="http://www.w3.org/1999/xlink" x="0px" y="0px"
	 viewBox="0 0 466.65 378.34" style="enable-background:new 0 0 466.65 378.34;" xml:space="preserve">
<style type="text/css">
	.st0{fill:#63B353;}
	.st1{fill:#92C431;}
	.st2{fill:#56B6F6;stroke:#000000;stroke-width:5;}
</style>
<g id="陆攻">
	<g>
		<g>
			<path class="st0" d="M226.08,93.18c24.18-7.93,170.73-41.16,167.11-37.77c34.34-5.72,44.64,17.17,12.59,30.9
				c-46.36,24.22-93.22,43.26-140.79,54.94c-44.82,22.03-92.78,39.86-145.37,51.51c-76.69,18.31-98.44-33.19-29.76-57.23
				L226.08,93.18z"/>
			<path class="st0" d="M347.93,63.32l24.41-60.53c0.81-2,2.94-3.14,5.05-2.69l15.02,3.16c1.85,0.39,3.25,1.9,3.5,3.77l6.99,51.91
				c0.33,2.47-1.42,4.73-3.89,5.02l-46.41,5.46C349.22,69.81,346.66,66.46,347.93,63.32z"/>
			<path class="st0" d="M342.83,68l-38.92-19.46c-1.05-0.61,4.13-2.02,8.01-1.14l43.5,9.16L342.83,68z"/>
			<path class="st0" d="M414.94,74.87l38.92,14.88c2.29,1.14,0,6.87-4.58,5.72l-46.35-10.3L414.94,74.87z"/>
			<path class="st0" d="M290.18,130.96l175.13,76.69c5.72,2.29-8.01,11.45-18.31,9.16l-219.77-62.95L290.18,130.96z"/>
			<path class="st0" d="M151.68,129.81L1.74,31.38c-6.87-5.72,8.01-6.87,20.6-3.43l214.04,78.98L151.68,129.81z"/>
			<path class="st0" d="M99.03,135.54l26.33-24.04l69.82-17.17c8.01-10.3,27.47-6.87,30.9,2.29L99.03,135.54z"/>
			<path class="st0" d="M111.62,96.62c-15.4-4.08-26.07-2.33-29.76,8.01c-22.89-2.29-24.04,28.62-5.15,30.9l34.91-1.53l25.37-8.44
				l-9.35-30.09L111.62,96.62z"/>
			<path class="st0" d="M66.98,117.22c-9.16,2.29-9.16,10.3,1.14,10.3"/>
			<path class="st0" d="M74.04,120.08c-3.9-11.17-6.82-22.41-8.2-33.77c0-2.29,5.72-3.43,6.3,0
				C72.74,97.07,73.38,108.37,74.04,120.08z"/>
			<path class="st0" d="M73.75,119.74c-7.4,7.15-15.22,13.42-23.7,18.29c-1.81,0.72-4.84-4.23-2.33-5.85
				C56.01,128.22,64.72,124.06,73.75,119.74z"/>
			<path class="st0" d="M198.61,197.34c6.94,1.28,14.68,1.52,22.89,1.14c22.89-4.58,25.18-27.47,10.3-44.64l-38.92,13.74
				C177.64,174.29,187.38,196.93,198.61,197.34z"/>
			<path class="st0" d="M187.48,177.63c-9.16,2.29-9.16,10.3,1.14,10.3"/>
			<polygon class="st0" points="230.66,191.62 290.18,168.73 237.53,128.92 214.63,161.86 			"/>
			<path class="st0" d="M193.44,180.19c-6.86,8.51-14.28,15.78-22.57,21.14c-1.81,0.72-5.63-6.21-3.2-8.03
				C175.88,189.13,184.5,184.74,193.44,180.19z"/>
		</g>
	</g>
	<g>
		<g>
			<path class="st1" d="M226.08,93.18c24.18-7.93,170.73-41.16,167.11-37.77c34.34-5.72,44.64,17.17,12.59,30.9
				c-46.36,24.22-93.22,43.26-140.79,54.94c-44.82,22.03-92.78,39.86-145.37,51.51c-76.69,18.31-98.44-33.19-29.76-57.23
				L226.08,93.18z"/>
			<path class="st1" d="M347.93,63.32l24.41-60.53c0.81-2,2.94-3.14,5.05-2.69l15.02,3.16c1.85,0.39,3.25,1.9,3.5,3.77l6.99,51.91
				c0.33,2.47-1.42,4.73-3.89,5.02l-46.41,5.46C349.22,69.81,346.66,66.46,347.93,63.32z"/>
			<path class="st1" d="M342.83,68l-38.92-19.46c-1.05-0.61,4.13-2.02,8.01-1.14l43.5,9.16L342.83,68z"/>
			<path class="st1" d="M414.94,74.87l38.92,14.88c2.29,1.14,0,6.87-4.58,5.72l-46.35-10.3L414.94,74.87z"/>
			<path class="st1" d="M290.18,130.96l175.13,76.69c5.72,2.29-8.01,11.45-18.31,9.16l-219.77-62.95L290.18,130.96z"/>
			<path class="st1" d="M151.68,129.81L1.74,31.38c-6.87-5.72,8.01-6.87,20.6-3.43l214.04,78.98L151.68,129.81z"/>
			<path class="st1" d="M99.03,135.54l26.33-24.04l69.82-17.17c8.01-10.3,27.47-6.87,30.9,2.29L99.03,135.54z"/>
			<path class="st1" d="M111.62,96.62c-15.4-4.08-26.07-2.33-29.76,8.01c-22.89-2.29-24.04,28.62-5.15,30.9l34.91-1.53l25.37-8.44
				l-9.35-30.09L111.62,96.62z"/>
			<path class="st1" d="M66.98,117.22c-9.16,2.29-9.16,10.3,1.14,10.3"/>
			<path class="st1" d="M74.04,120.08c-3.9-11.17-6.82-22.41-8.2-33.77c0-2.29,5.72-3.43,6.3,0
				C72.74,97.07,73.38,108.37,74.04,120.08z"/>
			<path class="st1" d="M73.75,119.74c-7.4,7.15-15.22,13.42-23.7,18.29c-1.81,0.72-4.84-4.23-2.33-5.85
				C56.01,128.22,64.72,124.06,73.75,119.74z"/>
			<path class="st1" d="M198.61,197.34c6.94,1.28,14.68,1.52,22.89,1.14c22.89-4.58,25.18-27.47,10.3-44.64l-38.92,13.74
				C177.64,174.29,187.38,196.93,198.61,197.34z"/>
			<path class="st1" d="M187.48,177.63c-9.16,2.29-9.16,10.3,1.14,10.3"/>
			<polygon class="st1" points="230.66,191.62 290.18,168.73 237.53,128.92 214.63,161.86 			"/>
			<path class="st1" d="M193.44,180.19c-6.86,8.51-14.28,15.78-22.57,21.14c-1.81,0.72-5.63-6.21-3.2-8.03
				C175.88,189.13,184.5,184.74,193.44,180.19z"/>
		</g>
	</g>
</g>
<g id="六边形_00000089573421869134103740000009156374350162661052_">
	<polygon class="st2" points="301.16,206.15 301.16,284.12 368.68,323.1 436.2,284.12 436.2,206.15 368.68,167.17 	"/>
</g>
</svg>
