<svg width="300" height="300" xmlns="http://www.w3.org/2000/svg">
  <g>
    <path d="M166.4769744873047,0.018156707286834717C167.22508239746094,-0.027190208435058594 168.0082550048828,0.013336181640625 168.82891845703125,0.1386549472808838 181.80340576171875,2.1208343505859375 183.23309326171875,68.20140075683594 190.01361083984375,114.17137145996094 204.73797607421875,112.40281677246094 217.30706787109375,112.41209411621094 226.57867431640625,113.77220153808594 219.17620849609375,104.58396911621094 214.80035400390625,97.54051208496094 216.14031982421875,96.49632263183594 217.72637939453125,95.25535583496094 226.90521240234375,102.96409606933594 237.56475830078125,114.29197692871094 239.35504150390625,100.49754333496094 241.86639404296875,90.80662536621094 243.74798583984375,91.33738708496094 245.89105224609375,91.93919372558594 246.46661376953125,105.64085388183594 245.16998291015625,122.72044372558594 255.67486572265625,134.86399841308594 262.54962158203125,145.07493591308594 260.91876220703125,146.33592224121094 259.57098388671875,147.39280700683594 252.72723388671875,141.97557067871094 244.15496826171875,133.36936950683594 242.35833740234375,148.92771911621094 239.60101318359375,160.26341247558594 237.57720947265625,159.68309020996094 235.69561767578125,159.15867614746094 235.01324462890625,148.65379333496094 235.73590087890625,134.63328552246094 226.59564208984375,141.62425231933594 209.99432373046875,148.88890075683594 188.01910400390625,153.84837341308594 186.78582763671875,177.89085388183594 170.44586181640625,228.02757263183594 164.59844970703125,251.59983825683594 153.96051025390625,294.50439453125 150.58892822265625,303.331787109375 138.31695556640625,299.014892578125 126.04498291015625,294.69775390625 123.85870361328125,285.71240234375 130.03570556640625,241.17381286621094 131.84442138671875,228.13768005371094 133.79412841796875,204.54368591308594 135.94793701171875,187.54783630371094 136.78045654296875,180.98240661621094 137.25555419921875,174.65696716308594 136.91510009765625,170.54100036621094 136.76348876953125,168.68870544433594 136.70001220703125,168.70726013183594 136.70001220703125,168.70726013183594 134.77825927734375,165.11766052246094 131.30450439453125,162.66795349121094 127.54754638671875,160.93968200683594 104.69024658203125,162.00437927246094 86.22589111328125,161.30491638183594 75.03704833984375,159.70481872558594 70.53118896484375,176.72581481933594 64.51361083984375,188.84422302246094 60.81243896484375,187.71775817871094 56.98590087890625,186.55589294433594 59.30218505859375,173.71141052246094 63.264957427978516,155.78562927246094 63.20147705078125,155.58274841308594 63.19683837890625,155.37083435058594 63.24017333984375,155.14646911621094 61.24407958984375,154.78587341308594 58.35211181640625,152.29466247558594 52.89776611328125,148.23143005371094 44.52203369140625,141.99095153808594 37.34857177734375,137.40306091308594 39.11090087890625,133.72679138183594 39.62164306640625,132.67601013183594 40.26214599609375,130.88255310058594 42.78594970703125,131.06980895996094 49.00311279296875,131.52952575683594 59.90106201171875,137.06736755371094 66.94757080078125,139.63279724121094 70.57147216796875,124.42405700683594 74.04376220703125,112.88401794433594 77.40142822265625,113.90379333496094 81.09490966796875,115.02854919433594 81.25115966796875,128.95921325683594 78.04205322265625,146.30809020996094 91.64154052734375,140.73753356933594 114.07025146484375,133.38768005371094 143.19573974609375,124.41331481933594 143.80694580078125,107.70970153808594 146.80877685546875,80.11912536621094 148.22308349609375,63.67405700683594 151.92066955566406,20.700576782226562 155.2552947998047,0.6983928680419922 166.4769744873047,0.018156707286834717z" fill="#15A739" />
    <path d="M232.5,180L285,206.25 285,258.75 232.5,285 180,258.75 180,206.25 232.5,180z" fill="#66CC77" stroke="#000000" stroke-width="5" />
  </g>
</svg>