<svg width="300" height="300" xmlns="http://www.w3.org/2000/svg">
  <g>
    <path d="M204.9918975830078,10.81602954864502C207.18148803710938,10.743621826171875,215.82052612304688,10.950023651123047,213.91122436523438,18.886520385742188L202.55813598632812,65.44046020507812C202.55813598632812,65.44046020507812 213.28359985351562,72.11534881591797 213.96817016601562,75.08196258544922 214.65280151367188,78.0485610961914 212.59896850585938,84.89459991455078 208.71957397460938,86.94840240478516 204.84014892578125,89.00220489501953 195.07473754882812,87.29192352294922 195.07473754882812,87.29192352294922 194.61740112304688,87.3770980834961 183.78860473632812,114.21805572509766 183.78860473632812,114.21805572509766L248.65472412109375,142.37228393554688 273.64276123046875,110.19600677490234 288.36175537109375,114.98822784423828 288.9607849121094,123.71727752685547 300,127.65335845947266 289.902099609375,154.01092529296875C288.7611083984375,160.74282836914062 292.4693603515625,169.24334716796875 288.0194396972656,171.12600708007812 283.56951904296875,173.0086669921875 277.52130126953125,172.32373046875 272.1866455078125,171.38223266601562 266.26812744140625,177.25857543945312 259.6083984375,187.4281005859375 254.43109130859375,189.01123046875 249.2537841796875,190.59439086914062 235.69515991210938,188.39907836914062 233.16558837890625,184.64688110351562 230.59832763671875,180.83880615234375 241.15264892578125,172.894287109375 245.14617919921875,167.0179443359375L160.93997192382812,153.668212890625 119.86377716064453,191.66363525390625C127.62261199951172,195.77120971679688 142.59829711914062,199.0511474609375 143.1402587890625,203.9864501953125 143.68228149414062,208.9217529296875 137.1214599609375,216.85076904296875 133.55584716796875,219.04769897460938 129.99020385742188,221.24459838867188 112.3141098022461,216.67092895507812 101.6932601928711,215.4825439453125L46.26891326904297,285.4540710449219C46.26891326904297,285.4540710449219,28.918502807617188,294.9111022949219,21.623199462890625,283.7425537109375L54.2274284362793,206.183349609375C54.22742462158203,206.183349609375 23.19208526611328,197.73989868164062 19.423234939575195,189.60281372070312 16.707176208496094,183.73870849609375 23.277389526367188,169.38430786132812 30.494522094726562,167.38922119140625 46.855995178222656,162.86627197265625 71.9415512084961,170.4412841796875 71.9415512084961,170.4412841796875L82.75348663330078,144.51168823242188C82.75348663330078,144.51168823242188 -11.20867919921875,108.5130386352539 1.1141583919525146,88.4313735961914 13.436988830566406,68.34972381591797 92.39444732666016,93.90869903564453 92.39444732666016,93.90869903564453 92.39444732666016,93.90869903564453 106.99939727783203,77.4777603149414 130.73239135742188,88.4313735961914L145.736083984375,71.14550018310547C145.736083984375,71.14550018310547 119.15064239501953,58.651039123535156 121.37560272216797,51.34883117675781 123.60057830810547,44.04663848876953 125.85408782958984,44.4742431640625 125.85408782958984,44.4742431640625 125.85408782958984,44.4742431640625 137.235595703125,38.27009582519531 167.52926635742188,51.10637664794922L204.4979248046875,10.842409133911133C204.4979248046875,10.8424072265625,204.67910766601562,10.826373100280762,204.9918975830078,10.81602954864502z" fill="#48B38F" />
    <path d="M232.5,180L285,206.25 285,258.75 232.5,285 180,258.75 180,206.25 232.5,180z" fill="#E5B112" stroke="#000000" stroke-width="5" />
  </g>
</svg>