<svg width="300" height="300" xmlns="http://www.w3.org/2000/svg">
  <g>
    <path d="M188.11439514160156,27.874752044677734C190.0889129638672,27.8094539642334,197.87933349609375,27.99557876586914,196.15756225585938,35.15248107910156L185.91970825195312,77.13346862792969C185.91970825195312,77.13346862792969 195.59158325195312,83.15267944335938 196.20892333984375,85.82788848876953 196.8262939453125,88.50308227539062 194.97421264648438,94.6766357421875 191.47589111328125,96.52870178222656 187.9775390625,98.38075256347656 179.17138671875,96.83847045898438 179.17138671875,96.83847045898438 178.7589569091797,96.915283203125 168.99386596679688,121.11967468261719 168.99386596679688,121.11967468261719L240.09271240234375,147.66641235351562C246.609375,135.52508544921875 258.87103271484375,114.792236328125 264.18267822265625,113.59609985351562 271.4247131347656,112.69595336914062 276.70220947265625,113.09443664550781 281.2496032714844,118.03335571289062L282.2587890625,129.5550994873047C283.8219909667969,127.83668518066406 284.9419250488281,124.39982604980469 286.9483337402344,124.39982604980469 288.9547119140625,124.39982604980469 299.6040954589844,123.93679809570312 299.98992919921875,127.56378173828125 300.3758239746094,131.19073486328125 289.56878662109375,144.8702850341797 284.35821533203125,153.5235595703125L286.09942626953125,173.40243530273438C285.6920166015625,180.24542236328125 279.9714050292969,182.54971313476562 268.8135070800781,180.65634155273438 268.8135070800781,180.65634155273438 265.5776672363281,180.01248168945312 265.5776672363281,180.01248168945312 265.5776672363281,180.01248168945312 253.456787109375,203.88436889648438 249.59771728515625,204.34735107421875 245.73861694335938,204.81039428710938 236.78878784179688,200.02587890625 235.09048461914062,198.48248291015625 233.39218139648438,196.9390869140625 240.801025390625,175.48599243164062 240.801025390625,175.48599243164062 206.1341552734375,168.58807373046875 148.38963317871094,156.69467163085938 148.38963317871094,156.69467163085938L126.96244812011719,185.01641845703125C133.95913696289062,188.72055053710938 136.1455841064453,193.3245849609375 136.63433837890625,197.77508544921875 137.12307739257812,202.22561645507812 125.85667419433594,210.81631469726562 122.64129638671875,212.79742431640625 119.4259033203125,214.77853393554688 109.05917358398438,210.73959350585938 102.26828002929688,209.71066284179688 81.31260681152344,229.55184936523438 40.12126159667969,270.9312438964844 32.095664978027344,271.9606628417969 24.070045471191406,272.9901123046875 4.778923034667969,269.4394836425781 0.4054775834083557,260.4373779296875 -3.9679641723632812,251.43527221679688 28.185775756835938,214.34078979492188 41.561767578125,193.65939331054688 41.561767578125,193.65939331054688 18.67180633544922,182.83645629882812 15.273172378540039,175.4986572265625 12.823905944824219,170.21054077148438 20.49468994140625,157.130859375 27.002883911132812,155.33172607421875 41.757179260253906,151.2530517578125 61.78045654296875,156.36065673828125 61.78045654296875,156.36065673828125L69.805908203125,146.48297119140625C69.805908203125,146.48297119140625 -6.848976135253906,115.97505187988281 4.263388156890869,97.86599731445312 15.375762939453125,79.7569580078125 86.57728576660156,102.8052978515625 86.57728576660156,102.8052978515625 86.57728576660156,102.8052978515625 99.74760437011719,87.98834991455078 121.14932250976562,97.86599731445312L134.67921447753906,82.2780990600586C134.67921447753906,82.2780990600586 110.70524597167969,71.0109634399414 112.71165466308594,64.4260482788086 114.71806335449219,57.84114074707031 116.75021362304688,58.22674560546875 116.75021362304688,58.22674560546875 116.75021362304688,58.22674560546875 127.01371765136719,52.63202667236328 154.3316650390625,64.20740509033203L187.6689453125,27.89853858947754C187.6689453125,27.898536682128906,187.8323211669922,27.884077072143555,188.11439514160156,27.874752044677734z" fill="#48B38F" />
    <path d="M232.5,180L285,206.25 285,258.75 232.5,285 180,258.75 180,206.25 232.5,180z" fill="#E5B112" stroke="#000000" stroke-width="5" />
  </g>
</svg>