<?xml version="1.0" encoding="utf-8"?>
<!-- Generator: Adobe Illustrator 27.5.0, SVG Export Plug-In . SVG Version: 6.00 Build 0)  -->
<svg version="1.1" id="图层_1" xmlns="http://www.w3.org/2000/svg" xmlns:xlink="http://www.w3.org/1999/xlink" x="0px" y="0px"
	 viewBox="0 0 465.08 376.41" style="enable-background:new 0 0 465.08 376.41;" xml:space="preserve">
<style type="text/css">
	.st0{fill:#48B38F;}
	.st1{fill:#FF6560;}
	.st2{fill:#FFD647;}
</style>
<path class="st0" d="M264.58,4.06c2.34-0.19,11.59-0.39,9.94,8.19l-9.84,50.34c0,0,11.8,6.61,12.68,9.75s-0.98,10.56-5.03,12.95
	s-14.57,1.04-14.57,1.04c-0.48,0.11-10.74,29.35-10.74,29.35l85.76,27.59c7.06-14.75,20.47-40.01,26.7-41.72
	c8.54-1.46,14.82-1.28,20.48,4.33l1.83,13.61c1.76-2.12,2.9-6.26,5.28-6.37s14.98-1.24,15.64,3.04s-11.41,21.09-17.11,31.64
	l3.15,23.48c-0.11,8.14-6.77,11.18-20.1,9.55l-3.87-0.59c0,0-13.07,28.97-17.62,29.73s-15.43-4.42-17.52-6.16
	c-2.1-1.74,5.51-27.58,5.51-27.58c-41.49-6.28-110.61-17.22-110.61-17.22l-23.86,34.76c8.5,4.01,11.34,9.35,12.17,14.6
	c0.82,5.25-12.07,16.05-15.77,18.58c-3.7,2.53-16.22-1.7-24.33-2.55c-23.76,24.67-70.34,76-79.8,77.66
	c-9.46,1.66-32.53-1.49-38.21-11.93s30.42-56.18,45.15-81.44c0,0-27.73-11.58-32.17-20.1c-3.19-6.14,5.19-22.07,12.81-24.56
	c17.27-5.64,41.3-0.68,41.3-0.68l8.98-12.15c0,0-92.57-31.98-80.38-54.06s97.88,1.35,97.88,1.35s14.81-18.29,40.72-7.75l15.19-19.22
	c0,0-29.04-12.05-27.03-19.97c2.02-7.92,4.45-7.57,4.45-7.57s11.86-7.2,44.89,5.03l37.54-44.88C264.05,4.11,264.24,4.08,264.58,4.06
	z"/>
<g>
	<polygon class="st1" points="309.62,277.36 309.62,209.79 368.15,176 426.67,209.79 426.67,277.36 368.15,311.15 	"/>
	<path class="st2" d="M368.15,186.39l49.52,28.59v57.19l-49.52,28.59l-49.52-28.59v-57.19L368.15,186.39 M368.15,165.61
		l-67.52,38.98v77.97l67.52,38.98l67.52-38.98v-77.97L368.15,165.61L368.15,165.61z"/>
</g>
</svg>
