<svg width="300" height="300" xmlns="http://www.w3.org/2000/svg">
  <g>
    <path d="M120.20235443115234,170.6057891845703C123.05152893066406,170.6057891845703,124.40113067626953,174.3551483154297,124.40113067626953,174.3551483154297L125.60077667236328,192.16278076171875 129.79916381835938,196.5115966796875 129.6444549560547,221.68528747558594C129.6444549560547,221.68528747558594 132.6483154296875,223.84161376953125 135.34750366210938,229.24014282226562 138.0467071533203,234.638671875 138.7028045654297,240.1862335205078 138.7028045654297,240.1862335205078L180.48471069335938,266.80487060546875C180.48471069335938,266.80487060546875 182.73367309570312,269.5037536621094 180.7842254638672,271.75311279296875 178.83480834960938,274.00250244140625 173.13674926757812,271.602783203125 173.13674926757812,271.602783203125L132.4795684814453,247.5341339111328C132.4795684814453,247.5341339111328 127.85001373291016,251.2080841064453 123.35132598876953,251.05812072753906 118.85264587402344,250.9081573486328 112.85440826416016,247.15924072265625 112.85440826416016,247.15924072265625L65.0184326171875,263.20465087890625C65.0184326171875,263.20465087890625 61.869354248046875,263.654541015625 59.919921875,261.1052551269531 57.97050094604492,258.55596923828125 60.744686126708984,257.282470703125 60.744686126708984,257.282470703125L108.31832122802734,238.2748565673828C108.31832122802734,238.2748565673828 107.2131118774414,232.49276733398438 112.36714935302734,225.2282257080078 115.43600463867188,220.9027099609375 119.7285385131836,220.73867797851562 119.7285385131836,220.73867797851562L120.46477508544922,214.6564483642578 115.51622009277344,211.50729370117188 116.41596221923828,174.16732788085938C116.41596221923828,174.16732788085938,117.35318756103516,170.6057891845703,120.20235443115234,170.6057891845703z M180.18467712402344,157.1287841796875C198.06704711914062,157.1287841796875 209.9132843017578,171.0556640625 209.9132843017578,171.0556640625 209.9132843017578,171.0556640625 209.9132843017578,212.89369201660156 209.9132843017578,233.8126983642578L151.65496826171875,233.8126983642578C151.65496826171875,212.89369201660156 151.65496826171875,171.0556640625 151.65496826171875,171.0556640625 151.65496826171875,171.0556640625 162.3022918701172,157.1287841796875 180.18467712402344,157.1287841796875z M21.690113067626953,85.37458801269531C28.663097381591797,85.26211547851562 30.996797561645508,92.01016235351562 30.996801376342773,92.01016235351562 35.49549865722656,118.32752227783203 54.16510009765625,133.9604949951172 54.16510009765625,133.9604949951172L115.12248229980469,136.88462829589844 125.24454498291016,126.31270599365234 250.3083953857422,129.0119171142578 274.6397399902344,157.1287841796875 300,157.1287841796875 300,200.85963439941406 223.14736938476562,200.85963439941406 223.14736938476562,172.2185821533203 223.11398315429688,172.1168670654297C220.0931854248047,163.3601837158203 210.38232421875,145.82574462890625 181.0282745361328,145.6570587158203 141.88951110839844,145.43212890625 135.59133911132812,175.7984161376953 135.59133911132812,175.7984161376953L131.76744079589844,175.7984161376953C131.76744079589844,175.7984161376953 131.09263610839844,157.35369873046875 120.74561309814453,157.35369873046875 110.3985824584961,157.35369873046875 106.34973907470703,168.82542419433594 106.34973907470703,168.82542419433594 106.34973907470703,168.82542419433594 4.097366809844971,158.60960388183594 0.40564388036727905,144.70106506347656 -1.851546049118042,136.1971435546875 6.047332763671875,133.71670532226562 6.047335147857666,133.71670532226562 9.87122631072998,123.14476013183594 9.99349594116211,92.68472290039062 9.993494987487793,92.68472290039062 9.99349594116211,92.68472290039062 14.717131614685059,85.487060546875 21.690113067626953,85.37458801269531z M72.18958282470703,50.637298583984375C75.51997375488281,50.6518669128418 78.89277648925781,50.84078598022461 82.2811050415039,51.23997497558594 131.68235778808594,57.06010055541992 128.1677703857422,91.95368194580078 128.1677703857422,91.95368194580078 128.1677703857422,91.95368194580078 68.86022186279297,92.62848663330078 56.03895568847656,92.62848663330078 43.21768569946289,92.62848663330078 42.692630767822266,75.98304748535156 28.521751403808594,75.98304748535156L12.326471328735352,76.43292236328125 11.76413345336914,66.64810180664062C11.764131546020508,66.64810180664062,39.99576187133789,50.496498107910156,72.18958282470703,50.637298583984375z M152.12355041503906,27.284698486328125L153.2482147216797,54.95161437988281 173.9423065185547,54.501739501953125 189.01296997070312,27.509628295898438 275.61309814453125,55.40147399902344C275.61309814453125,55.40147399902344 287.5346984863281,59.225364685058594 287.98455810546875,71.59674835205078 288.4344482421875,83.9681396484375 277.86248779296875,89.59149169921875 277.86248779296875,89.59149169921875L155.77915954589844,91.54093170166016C155.77915954589844,91.54093170166016 154.20169067382812,87.92835998535156 150.5603485107422,85.35555267333984 145.73202514648438,81.94404602050781 138.71376037597656,84.45547485351562 138.71376037597656,84.45547485351562 138.71376037597656,84.45547485351562 141.55172729492188,68.22274017333984 122.88204956054688,53.60201644897461 104.21236419677734,38.98128128051758 60.5560417175293,35.30735778808594 60.5560417175293,35.3073616027832L60.68724822998047,28.071971893310547 152.12355041503906,27.284698486328125z" fill="#428358" />
  </g>
</svg>