<svg width="300" height="300" xmlns="http://www.w3.org/2000/svg">
  <g>
    <path d="M181.1085662841797,156.85482788085938L181.1085662841797,168.9623260498047 187.162841796875,168.9623260498047 187.162841796875,156.85482788085938 181.1085662841797,156.85482788085938z M160.8816680908203,156.85482788085938L160.8816680908203,168.9623260498047 166.93594360351562,168.9623260498047 166.93594360351562,156.85482788085938 160.8816680908203,156.85482788085938z M134.67205810546875,156.85482788085938L134.67205810546875,213.54840087890625 146.42381286621094,213.54840087890625 146.42381286621094,156.85482788085938 134.67205810546875,156.85482788085938z M100.76932525634766,149.66171264648438L100.76932525634766,209.55923461914062 112.52107238769531,209.55923461914062 112.52107238769531,149.66171264648438 100.76932525634766,149.66171264648438z M181.1085662841797,121.67118072509766L181.1085662841797,148.23651123046875 187.162841796875,148.23651123046875 187.162841796875,121.67118072509766 181.1085662841797,121.67118072509766z M160.8816680908203,121.67118072509766L160.8816680908203,144.8178253173828 166.93594360351562,144.8178253173828 166.93594360351562,121.67118072509766 160.8816680908203,121.67118072509766z M134.67205810546875,121.67118072509766L134.67205810546875,144.8178253173828 146.42381286621094,144.8178253173828 146.42381286621094,121.67118072509766 134.67205810546875,121.67118072509766z M100.76932525634766,115.04749298095703L100.76932525634766,138.26571655273438 112.52107238769531,138.26571655273438 112.52107238769531,115.04749298095703 100.76932525634766,115.04749298095703z M100.76932525634766,79.79228210449219L100.76932525634766,108.637451171875 112.52107238769531,108.637451171875 112.52107238769531,79.79228210449219 100.76932525634766,79.79228210449219z M121.1037368774414,61.14976119995117C121.1037368774414,61.14976501464844 114.33785247802734,61.36354446411133 114.1954116821289,64.28316497802734 114.052978515625,67.20278930664062 120.3203125,67.06083679199219 120.3203125,67.06083679199219 120.3203125,67.06083679199219 127.01464080810547,66.77595520019531 127.15705871582031,63.99855422973633 127.29952239990234,61.22114181518555 121.1037368774414,61.14976501464844 121.1037368774414,61.14976119995117z M148.66732788085938,59.884849548339844C148.66732788085938,59.884849548339844 128.72430419921875,69.57120513916016 127.5846939086914,83.24604034423828 126.44509887695312,96.92089080810547 135.2766571044922,108.8863754272461 135.2766571044922,108.8863754272461L147.52764892578125,108.31694793701172 148.66732788085938,59.884849548339844z M85.84839630126953,5.3290252685546875L80.15023040771484,12.166365623474121 114.05230712890625,12.451251983642578 116.33143615722656,9.032588005065918 123.52554321289062,9.067510604858398 113.26950073242188,25.733631134033203 106.64513397216797,25.556167602539062 109.70838165283203,19.181137084960938 101.4465560913086,19.466028213500977 100.69845581054688,66.68697357177734 106.18260955810547,66.82940673828125C106.18260955810547,66.82940673828125 104.63255310058594,45.32035446166992 119.3757553100586,39.97868728637695 134.1189727783203,34.63701248168945 143.30677795410156,47.88435745239258 143.30677795410156,47.88435745239258L147.52674865722656,45.498416900634766 148.66668701171875,7.893029689788818 158.92311096191406,6.184051036834717 160.06231689453125,107.03463745117188 167.43414306640625,106.92774963378906 170.31805419921875,14.730709075927734 182.85337829589844,14.160573959350586 181.6787109375,108.9219970703125 191.11570739746094,108.88638305664062 193.11016845703125,20.997560501098633 202.79566955566406,23.846466064453125 203.90028381347656,170.814453125 300,181.22679138183594 299.63641357421875,182.44895935058594C279.4144287109375,247.46470642089844 218.7700653076172,294.67095947265625 147.10006713867188,294.67095947265625 82.32140350341797,294.67095947265625 26.549985885620117,256.10638427734375 1.4919832944869995,200.6833953857422L1.3411045983957592E-05,197.27294921875 79.93702697753906,205.96307373046875 80.36466979980469,72.24208068847656 74.52442169189453,72.0996322631836 66.9748306274414,81.07369995117188 60.0021858215332,81.25892639160156 67.62301635742188,71.6795883178711 57.074893951416016,71.42292022705078 61.63311767578125,65.72510528564453 70.96328735351562,65.97447967529297 76.4473876953125,58.88772964477539 81.2905044555664,60.02729415893555 78.72650146484375,66.57978057861328 86.41852569580078,66.57978057861328 86.2049331665039,19.0386905670166 70.96328735351562,18.896251678466797 66.19136047363281,23.561309814453125 59.354000091552734,23.27641487121582 62.20289611816406,18.433279037475586 54.43965530395508,18.326801300048828 60.1374626159668,12.059202194213867 70.1086196899414,11.916763305664062 77.94310760498047,5.363925457000732 85.84839630126953,5.3290252685546875z" fill="#9FBCE3" />
  </g>
</svg>