<svg width="300" height="300" xmlns="http://www.w3.org/2000/svg">
  <g>
    <path d="M249.0833282470703,73.97744750976562C249.54718017578125,74.01908874511719 250.01841735839844,74.1301040649414 250.48965454101562,74.32947540283203 254.259521484375,75.92443084716797 254.25949096679688,78.24457550048828 254.25949096679688,78.24457550048828L253.96914672851562,119.56812286376953C253.96914672851562,119.56812286376953 255.7906494140625,126.64527130126953 260.9016418457031,127.08025360107422 266.0126647949219,127.51522064208984 280.2128601074219,129.13778686523438 280.2128601074219,129.13778686523438 280.2128601074219,129.13778686523438 301.34576416015625,129.57281494140625 299.9320983886719,136.96749877929688 298.5184020996094,144.3621826171875 268.758544921875,138.9974365234375 268.758544921875,138.9974365234375 268.758544921875,138.9974365234375 237.947509765625,134.611328125 224.68064880371094,136.67752075195312 211.41378784179688,138.74368286132812 205.25167846679688,142.83978271484375 213.51626586914062,146.1021728515625 213.51626586914062,146.1021728515625 303.2666015625,158.934326171875 297.03192138671875,172.4188232421875 290.7972412109375,185.90338134765625 232.401611328125,169.48233032226562 232.401611328125,169.48233032226562L228.1968231201172,208.92044067382812 241.97113037109375,212.40066528320312C241.97113037109375,212.40066528320312 236.1714324951172,230.30789184570312 212.97254943847656,225.08807373046875 189.773681640625,219.8682861328125 190.20864868164062,211.02362060546875 190.20864868164062,211.02362060546875 190.20864868164062,211.02362060546875 189.0488739013672,204.933837890625 199.7783203125,204.64382934570312 210.50779724121094,204.35385131835938 213.46188354492188,205.16946411132812 213.46188354492188,205.16946411132812L217.32232666015625,167.525146484375C217.32232666015625,167.525146484375,166.52029418945312,159.0067138671875,134.62184143066406,150.16201782226562L110.48046875,185.39578247070312 205.61390686035156,182.96710205078125C205.61390686035156,182.96710205078125 188.5409393310547,224.3631591796875 85.88563537597656,222.62319946289062 -4.990670204162598,221.08291625976562 -1.3278083801269531,198.18026733398438 0.7092506885528564,192.9447021484375 0.9732856750488281,192.26608276367188 1.2100048065185547,191.88430786132812 1.210005760192871,191.88430786132812L90.23576354980469,186.08450317382812 97.1954345703125,151.86572265625C97.1954345703125,151.86572265625 92.80938720703125,153.64190673828125 84.54476928710938,153.2069091796875 76.28016662597656,152.77194213867188 70.33544921875,148.8570556640625 70.33544921875,148.8570556640625L69.030517578125,170.89630126953125 65.11569213867188,171.186279296875 50.72817611694336,124.0557632446289C50.72817611694336,124.0557632446289 41.99836730957031,154.37594604492188 41.99836730957031,154.37594604492188 41.99836730957031,154.37594604492188 55.18669509887695,158.4195556640625 55.18669509887695,158.4195556640625 55.18669509887695,158.4195556640625 55.45552444458008,173.4337158203125 34.03279113769531,168.64886474609375 12.610054016113281,163.86404418945312 10.353599548339844,156.65960693359375 10.353598594665527,156.65960693359375 10.353599548339844,156.65960693359375 8.287456512451172,147.52493286132812 28.079021453857422,151.00482177734375 28.079021453857422,151.00482177734375 28.7586669921875,134.52978515625 39.4156608581543,119.30530548095703 39.4156608581543,119.30530548095703 3.0676918029785156,104.67894744873047 11.549792289733887,95.3267822265625 20.031890869140625,85.974609375 43.9285888671875,102.09622955322266 43.9285888671875,102.09622955322266L42.868309020996094,86.73583221435547 55.047733306884766,88.04078674316406 55.45554733276367,102.53121185302734 114.34541320800781,105.80309295654297C114.34541320800781,105.80309295654297 115.48272705078125,90.35164642333984 135.90859985351562,92.92530822753906 161.15560913085938,94.48400115966797 214.35748291015625,124.07173919677734 217.6482696533203,115.36327362060547L242.95025634765625,76.7940444946289C242.95025634765625,76.7940444946289,245.83627319335938,73.68597412109375,249.0833282470703,73.97744750976562z" fill="#8BC595" />
  </g>
</svg>