<svg width="300" height="300" xmlns="http://www.w3.org/2000/svg">
  <g>
    <path d="M82.34530639648438,38.40510940551758C83.25830078125,38.45512390136719 84.21551513671875,38.84599304199219 85.06689453125,40.03239440917969 89.2674560546875,45.88029479980469 92.270751953125,59.76066589355469 95.147216796875,67.95646667480469 111.842041015625,59.48918151855469 125.0474853515625,53.70231628417969 126.603759765625,57.45256042480469 128.3134765625,61.57975769042969 115.6048583984375,72.40715026855469 97.2503662109375,82.88420104980469 112.4871826171875,90.62956237792969 135.9266357421875,104.80851745605469 165.841064453125,123.66349792480469 181.671142578125,111.38542175292969 209.30224609375,92.86637878417969 225.494873046875,81.49772644042969 270.624755859375,49.80729675292969 291.3861083984375,37.81169128417969 299.3028564453125,50.95256042480469 307.1231689453125,63.94181823730469 247.3514404296875,115.91276550292969 210.073974609375,157.1800994873047 222.6468505859375,168.8343963623047 231.9822998046875,179.9510955810547 237.62109375,189.1881561279297 240.5780029296875,175.5951385498047 243.8101806640625,166.3221893310547 245.7666015625,166.7064666748047 248.08935546875,167.1549530029297 247.81591796875,181.1822967529297 245.31103515625,199.2975311279297 259.340087890625,190.2924041748047 270.1280517578125,185.0753631591797 271.039306640625,187.1464080810547 272.0791015625,189.5028533935547 259.8939208984375,200.5228729248047 243.20458984375,212.4850311279297 239.836669921875,231.0861053466797 235.5467529296875,244.9989471435547 233.1722412109375,244.5238494873047 231.1978759765625,244.1432342529297 231.0960693359375,233.9376678466797 232.648681640625,219.7584686279297 216.988525390625,230.1085662841797 204.503173828125,236.3712615966797 203.5328369140625,234.1378631591797 202.6182861328125,232.0724334716797 211.7802734375,223.4069061279297 225.22509765625,213.2870330810547 211.99462890625,210.5748748779297 192.9647216796875,201.4786834716797 172.0640869140625,185.8632049560547 149.0140380859375,203.2208709716797 90.7109375,227.2552947998047 64.662841796875,240.1747283935547 17.2568359375,263.69647216796875 6.624267578125,267.48992919921875 1.474975347518921,253.3319549560547 -3.6724853515625,239.1742401123047 2.9722900390625,230.3463592529297 48.5667724609375,201.6290740966797 61.9132080078125,193.2245330810547 85.0830078125,176.8424530029297 102.3297119140625,165.7042694091797 108.994140625,161.4020233154297 115.1689453125,156.9689178466797 118.70654296875,153.5099334716797 120.2984619140625,151.9537811279297 120.2342529296875,151.9110565185547 120.2342529296875,151.9110565185547 122.110107421875,147.4584197998047 121.7850341796875,142.5094451904297 120.5806884765625,137.8622283935547 102.6085205078125,118.47843933105469 89.5281982421875,101.62467956542969 82.6815185546875,90.50968933105469 63.6640625,99.58610534667969 48.0343017578125,103.56852722167969 46.319091796875,99.43254089355469 44.5430908203125,95.16056823730469 58.0897216796875,87.35075378417969 77.53955078125,77.09709167480469 77.6788330078125,76.88444519042969 77.8701171875,76.71842956542969 78.1094970703125,76.58439636230469 76.95703125,74.54386901855469 77.10009765625,70.07536315917969 76.78564453125,62.13883972167969 76.304931640625,49.94670104980469 75.1954345703125,40.08781433105469 79.8890380859375,38.82292175292969 80.56353759765625,38.64591979980469 81.43231201171875,38.35508728027344 82.34530639648438,38.40510940551758z" fill="#009544" />
    <path d="M232.5,180L285,206.25 285,258.75 232.5,285 180,258.75 180,206.25 232.5,180z" fill="#66CC77" stroke="#000000" stroke-width="5" />
  </g>
</svg>