<svg width="300" height="300" xmlns="http://www.w3.org/2000/svg">
  <g>
    <path d="M57.46321105957031,61.26188659667969C62.07722473144531,60.86051940917969 67.37532043457031,85.17411804199219 73.90754699707031,105.68815612792969 83.11708068847656,102.16850280761719 101.93196105957031,96.33036804199219 102.58229064941406,98.25566101074219 103.27210998535156,100.29960632324219 96.75263977050781,105.83525085449219 88.34596252441406,109.22795104980469 83.65852355957031,111.11918640136719 79.29335021972656,112.29667663574219 76.22578430175781,112.61332702636719L76.34602355957031,112.95133972167969 76.34736633300781,112.95695495605469C99.73390197753906,119.23893737792969 129.94654846191406,128.7341766357422 164.4226837158203,139.1423797607422 164.4226837158203,139.1423797607422 164.33363342285156,139.1650848388672 179.04212951660156,131.4072723388672 199.58155822753906,120.57194519042969 255.5330352783203,94.41630554199219 283.0189208984375,84.46464538574219 294.1947021484375,80.41752624511719 301.4337158203125,80.61405944824219 299.760009765625,83.09342956542969 294.03216552734375,91.56645202636719 266.57879638671875,113.45182800292969 239.0490264892578,137.1025848388672 247.6324005126953,140.5488739013672 254.48133850097656,145.7510223388672 257.984130859375,151.0181121826172 259.03863525390625,141.8975067138672 260.57525634765625,135.5320281982422 261.87152099609375,135.6577606201172 263.37554931640625,135.8048553466797 264.0555419921875,144.6597137451172 263.56787109375,156.2283172607422 271.93487548828125,149.7046356201172 278.47418212890625,145.7693328857422 279.1795654296875,147.0159149169922 279.98394775390625,148.4409637451172 272.90887451171875,156.1238250732422 263.03485107421875,164.6704559326172 262.4525146484375,171.5476531982422 261.580322265625,177.4619598388672 260.651611328125,181.2080535888672 268.25958251953125,188.8555145263672 269.647705078125,195.9207000732422 267.8594970703125,202.6394500732422 264.45697021484375,215.4226531982422 228.7694854736328,214.4741668701172 183.04396057128906,199.0447235107422 182.6792755126953,200.8555145263672 182.27357482910156,202.7595672607422 181.82826232910156,204.7373504638672 181.99232482910156,206.1863250732422 181.8805694580078,207.5447235107422 181.47206115722656,208.7803192138672 186.5285186767578,218.5381317138672 189.47718811035156,226.6323699951172 188.22474670410156,227.6572723388672 187.1588897705078,228.5310516357422 183.34645080566406,224.0229949951172 178.83290100097656,216.8616180419922 175.3498077392578,229.7847137451172 171.84120178222656,239.2048797607422 170.55482482910156,238.7256317138672 169.2812042236328,238.2563934326172 170.6283721923828,228.1548309326172 173.5912628173828,215.1584930419922 167.33753967285156,216.2651824951172 157.3928985595703,214.1858367919922 142.7000274658203,208.7688446044922 132.73561096191406,205.0950164794922 125.09510803222656,200.1711883544922 120.22529602050781,195.0090789794922 98.92951965332031,202.4346160888672 64.46894836425781,213.8520965576172 58.43715286254883,216.0771942138672 25.527297973632812,228.2227020263672 2.2511138916015625,235.0730438232422 0.12928591668605804,227.8508758544922 -0.9874725341796875,224.0498504638672 5.2111968994140625,220.7661590576172 15.581252098083496,215.4890594482422 29.392044067382812,208.4619598388672 50.85890197753906,197.5632781982422 77.14326477050781,183.9106903076172 88.95808410644531,177.7729949951172 100.49861145019531,172.1936492919922 110.79096984863281,166.8501434326172 79.86726379394531,151.3811492919922 54.21199035644531,137.9083709716797 39.31129455566406,127.16642761230469 36.70741271972656,128.1417694091797 33.84205627441406,129.0973358154297 30.838150024414062,130.0106658935547 18.384475708007812,133.7976531982422 8.461013793945312,136.7703094482422 7.6100006103515625,134.1807098388672 6.7590484619140625,131.5909881591797 16.678237915039062,126.65605163574219 28.871843338012695,122.07475280761719 29.823257446289062,121.71708679199219 30.768936157226562,121.37626647949219 31.69624137878418,121.04838562011719 26.670913696289062,116.39189147949219 24.421890258789062,112.41130065917969 25.578201293945312,109.19389343261719 26.820755004882812,105.73625183105469 32.00294494628906,104.67619323730469 40.50007629394531,105.44377136230469L40.54249572753906,104.90934753417969C41.27473449707031,95.85234069824219 42.99794006347656,65.95634460449219 44.58680725097656,64.13005065917969 47.00398254394531,61.35380554199219 53.98292541503906,61.56303405761719 57.46321105957031,61.26188659667969z" fill="#6E58F5" />
    <path d="M232.5,180L285,206.25 285,258.75 232.5,285 180,258.75 180,206.25 232.5,180z" fill="#60B3F5" stroke="#000000" stroke-width="5" />
  </g>
</svg>