<?xml version="1.0" encoding="utf-8"?>
<!-- Generator: Adobe Illustrator 27.5.0, SVG Export Plug-In . SVG Version: 6.00 Build 0)  -->
<svg version="1.1" id="图层_1" xmlns="http://www.w3.org/2000/svg" xmlns:xlink="http://www.w3.org/1999/xlink" x="0px" y="0px"
	 viewBox="0 0 466.65 378.34" style="enable-background:new 0 0 466.65 378.34;" xml:space="preserve">
<style type="text/css">
	.st0{fill:#63B353;}
	.st1{fill:#5D50B8;stroke:#000000;stroke-width:5;}
</style>
<g id="东海">
	<path class="st0" d="M196.11,119.72c46.67-26.9,92.92-50.61,138.97-72.9l17.09,5.7v7.85l-75.18,65.05
		c-22.24,24.48-57.67,50.65-97.96,77.46c-34.17,17.09-67.21-11.39-50.12-36.45l9.11-10.25L196.11,119.72z"/>
	<path class="st0" d="M137.3,157.78l7.37-19.33c0.12-0.32,0.35-0.58,0.65-0.75l31.03-17.73c0.27-0.15,0.57-0.22,0.88-0.19l18.03,1.8
		c1.4,0.14,1.82,1.97,0.63,2.71l-56.42,35.26C138.26,160.3,136.79,159.09,137.3,157.78z"/>
	<path class="st0" d="M331.66,52.52l7.97-46.7c1.14-6.83,10.25-6.83,10.25-3.42l1.14,52.4L331.66,52.52z"/>
	<path class="st0" d="M345.33,45.69l55.81,18.23c6.49,2.58-3.42,4.56-9.11,3.42l-46.7-12.53l-12.53-3.42l-53.54-13.67
		c-4.56-2.28,4.56-5.7,14.81-3.42l39.87,9.11L345.33,45.69z"/>
	<path class="st0" d="M262.17,132.25c23.54,5.53,44.54,11.52,61.51,18.23c15.35,5.65,72.6,26.71,120.74,44.42
		c15.95,6.83-10.25,34.17-30.75,28.48c-66.9-13.49-143.51-27.5-168.58-38.73l-41.01-11.39l-57.71-21.52l-35.69-13.8L4.74,87.83
		c-17.09-9.11,17.09-20.5,37.59-15.95c73.82,15.79,139.62,31.67,179.72,47.88L262.17,132.25z"/>
	<path class="st0" d="M299.76,100.36c-15.39,21.95-18.23,36.45-0.25,47.14l-48.73-11.83L299.76,100.36z"/>
	<path class="st0" d="M254.2,178.96c-9.42,2.5-16.65,7.04-21.64,13.67c-10.25,13.67,4.56,34.17,19.17,31.53
		c14.18-2.4,29.27-11.1,45.75-29.25L254.2,178.96z"/>
	<path class="st0" d="M106.12,125.42c-8.92,4.15-16.09,8.72-21.64,13.67c-9.99,17.43,4.56,35.31,17.09,31.89
		c17.37-5.3,31.34-15.01,43.28-27.34L106.12,125.42z"/>
	<path class="st0" d="M193.83,190.35c5.61,2.72,10.7,3.35,14.81,0l27.34-17.09l-19.36-6.83L193.83,190.35z"/>
	<path class="st0" d="M213.19,183.51c2.28,9.11,9.11,12.53,15.96,6.83l17.07-12.53l-20.5-3.42L213.19,183.51z"/>
	<path class="st0" d="M85.62,149.34c-13.67,7.97-10.25,19.36,5.7,14.81"/>
	<path class="st0" d="M235.41,201.55c-13.67,7.97-10.25,19.36,5.7,14.81"/>
	<path class="st0" d="M86.07,158.85l-7.24,23.57c-1.19,2.75-5.08,0.2-3.95-1.92L86.07,158.85z"/>
	<path class="st0" d="M83.96,151.86l-9.55-27.21c-0.85-3.46,3.8-4.45,4.29-1.6L83.96,151.86z"/>
	<path class="st0" d="M237.38,207.89l-25.37,12.45c-3.23,1.16-4.15-4.09-1.49-4.81L237.38,207.89z"/>
	<path class="st0" d="M241.56,211.91l26.45,23.2c2.95,3.17-1.69,6.96-3.88,4.23L241.56,211.91z"/>
</g>
<g id="六边形">
	<polygon class="st1" points="301.16,206.15 301.16,284.12 368.68,323.1 436.2,284.12 436.2,206.15 368.68,167.17 	"/>
</g>
</svg>
