<?xml version="1.0" encoding="utf-8"?>
<!-- Generator: Adobe Illustrator 27.5.0, SVG Export Plug-In . SVG Version: 6.00 Build 0)  -->
<svg version="1.1" id="图层_1" xmlns="http://www.w3.org/2000/svg" xmlns:xlink="http://www.w3.org/1999/xlink" x="0px" y="0px"
	 viewBox="0 0 466.65 378.34" style="enable-background:new 0 0 466.65 378.34;" xml:space="preserve">
<style type="text/css">
	.st0{fill:#508C22;}
	.st1{fill:#56B6F6;stroke:#000000;stroke-width:5;}
</style>
<g id="深山">
	<path class="st0" d="M46.86,173.42l8.77-5.58c72.34-1.37,141.07-2.31,200.71-2.15c11.11-4.15,19.97-7.14,24.21-7.69
		c21.64-3.26,53.38,3.3,53.06,8.64c-1.45,7.03-23.6,14.15-51.84,21.3l-115.86,4.33l-54.95,9.62l-65.97,2.14
		C9.95,201,0.26,184.32,46.86,173.42z"/>
	<path class="st0" d="M275.78,160.76l1.45-35.89c-0.12,1.1-5.02-6.2-3.96-10.2c7.93-30.01,29.09-22.64,19.59,5.04l19.74,33.18
		c0.59,0.99,0.26,2.26-0.74,2.84l-3.82,3.2L275.78,160.76z"/>
	<polygon class="st0" points="289.98,183.75 308.7,210.26 320.33,207.91 318.82,170.31 	"/>
	<path class="st0" d="M325.67,208.24c-2.61,17.02-23.08,19.45-19.23-1.19C310.93,182.98,329.68,187.64,325.67,208.24z"/>
	<path class="st0" d="M102.1,171.47l3.12-162.1c2.42-14.4,13.67-10.64,21.26,2.84l55.93,160.39L102.1,171.47z"/>
	<path class="st0" d="M108.3,197.88l70.25,161.28c9.93,25.11,30.37,16.42,27.49-11.32l-19.76-163.52L108.3,197.88z"/>
	<path class="st0" d="M180.75,199.63c13.39,0.54,22.6-4.89,29.9-13.04l-36.58-2.26L180.75,199.63z"/>
	<path class="st0" d="M110.63,107.69c-4.43-2.57-25.88-2.36-31.41,0.36c-4.28,2.98-2.09,9.06,0.87,10.77s20.98,3.25,32.26,0.97
		L110.63,107.69z"/>
	<path class="st0" d="M110.11,147.9c-4.43-2.57-25.88-2.36-31.41,0.36c-4.28,2.98-2.09,9.06,0.87,10.77s20.98,3.25,32.26,0.97
		L110.11,147.9z"/>
	<path class="st0" d="M122.67,217.32c-4.43-2.57-25.88-2.36-31.41,0.36c-4.28,2.98-2.09,9.06,0.87,10.77s20.98,3.25,32.26,0.97
		L122.67,217.32z"/>
	<path class="st0" d="M140.11,257.18c-4.43-2.57-25.88-2.36-31.41,0.36c-4.28,2.98-2.09,9.06,0.87,10.77s20.98,3.25,32.26,0.97
		L140.11,257.18z"/>
</g>
<g id="六边形_00000048482782025934885820000000890228224056721587_">
	<polygon class="st1" points="301.16,206.15 301.16,284.12 368.68,323.1 436.2,284.12 436.2,206.15 368.68,167.17 	"/>
</g>
</svg>
