<?xml version="1.0" encoding="utf-8"?>
<!-- Generator: Adobe Illustrator 27.5.0, SVG Export Plug-In . SVG Version: 6.00 Build 0)  -->
<svg version="1.1" id="图层_1" xmlns="http://www.w3.org/2000/svg" xmlns:xlink="http://www.w3.org/1999/xlink" x="0px" y="0px"
	 viewBox="0 0 203.7 94.7" style="enable-background:new 0 0 203.7 94.7;" xml:space="preserve">
<style type="text/css">
	.st0{fill:#978A36;}
	.st1{fill:none;stroke:#978A36;stroke-width:4;stroke-miterlimit:10;}
</style>
<g id="车身">
	<path class="st0" d="M3.2,59.6l10.8-12.7c0.3-0.3,0.6-0.5,1.1-0.5h23.4c0.4,0,0.7-0.1,1-0.4l6.5-6.7c0.3-0.3,0.6-0.4,1-0.4h115.6
		c0.3,0,0.6,0.1,0.9,0.3l3.7,3c0.2,0.2,0.6,0.3,0.9,0.3h22.8c0.4,0,0.8,0.2,1,0.5l1.7,1.9c0.2,0.2,0.4,0.3,0.6,0.4l4.3,1.5
		c0.8,0.3,1.2,1.2,0.8,2l-14.8,27.5c-0.2,0.4-0.7,0.7-1.2,0.7H20.5c-0.4,0-0.7-0.1-0.9-0.4L3.3,61.4C2.8,60.9,2.7,60.1,3.2,59.6z"/>
</g>
<g id="炮塔">
	<path class="st0" d="M60.8,40l0-5.9c0-0.4-0.3-0.7-0.7-0.7H49.4c-0.1,0-0.3,0-0.4-0.1l-4.5-3.7c-0.1-0.1-0.3-0.1-0.4-0.1H3.5
		c-0.4,0-0.7-0.3-0.7-0.7v-6.9c0-0.4,0.3-0.7,0.7-0.7h58.2c0.2,0,0.3-0.1,0.5-0.2l7.5-7.5c0.1-0.1,0.3-0.2,0.5-0.2h11.4
		c0.4,0,0.7-0.3,0.7-0.7V4.4c0-0.2,0.1-0.3,0.2-0.5l3.7-3.7C86.3,0.1,86.5,0,86.7,0h18.8c0.2,0,0.3,0.1,0.5,0.2l4,4
		c0.1,0.1,0.2,0.3,0.2,0.5v8c0,0.4,0.3,0.7,0.7,0.7h14.6c0.2,0,0.3,0.1,0.5,0.2l7.4,7.4c0.1,0.1,0.3,0.2,0.5,0.2h14.2
		c0.4,0,0.7,0.3,0.7,0.7v6.6c0,0.4-0.3,0.7-0.7,0.7h-11.5c-0.2,0-0.3,0.1-0.5,0.2l-3.1,3.1c-0.1,0.1-0.3,0.2-0.5,0.2h-14.4
		c-0.4,0-0.7,0.3-0.7,0.7V41c0,0.4-0.3,0.7-0.7,0.7l-55.1-1C61.1,40.7,60.8,40.4,60.8,40z"/>
</g>
<g id="轮">
	<circle class="st0" cx="34" cy="82.4" r="10.2"/>
	<circle class="st0" cx="62" cy="82.4" r="10.2"/>
	<circle class="st0" cx="88.3" cy="82.4" r="10.2"/>
	<circle class="st0" cx="115.3" cy="82.4" r="10.2"/>
	<circle class="st0" cx="140.1" cy="82.4" r="10.2"/>
	<circle class="st0" cx="166.5" cy="82.4" r="10.2"/>
	<circle class="st0" cx="13.5" cy="68.2" r="13.5"/>
	<circle class="st0" cx="190.2" cy="70.5" r="13.5"/>
</g>
<g id="履带">
	<path class="st1" d="M6.8,77.4l12,10.3c3.7,3.2,8.4,4.9,13.3,4.9h143.4c5.3,0,10.4-2.1,14.2-5.8l8.2-7.9"/>
</g>
</svg>
