<?xml version="1.0" encoding="utf-8"?>
<!-- Generator: Adobe Illustrator 27.5.0, SVG Export Plug-In . SVG Version: 6.00 Build 0)  -->
<svg version="1.1" id="图层_1" xmlns="http://www.w3.org/2000/svg" xmlns:xlink="http://www.w3.org/1999/xlink" x="0px" y="0px"
	 viewBox="0 0 466.65 378.34" style="enable-background:new 0 0 466.65 378.34;" xml:space="preserve">
<style type="text/css">
	.st0{fill:#63B353;}
	.st1{fill:#8AD980;stroke:#000000;stroke-width:5;}
</style>
<g id="震电">
	<path class="st0" d="M262.68,75.23c105.95,33.44,133.83,52.99,170.04,74.03c27.76,16.19,17.35,34.7-10.41,30.07
		c-66.87-4.2-120.65-17.8-174.66-31.23l-89.07-39.33c-23.14-12.72-21.98-46.27,6.95-46.27L262.68,75.23z"/>
	<path class="st0" d="M157.42,63.66c22.06-3.01,59.5-3.18,108.73-1.16l31.23,26.6L157.42,63.66z"/>
	<path class="st0" d="M203.69,112.24L0.11,239.47c-1.16,18.5,10.41,25.45,19.66,20.83l248.69-123.76l34.7-41.64l71.71-82.12
		c9.26-12.72-20.83-12.72-37.02-5.78l-74.03,58.99L203.69,112.24z"/>
	<path class="st0" d="M194.43,171.23c24.96-12.3,50.29-18.58,76.34-12.72l12.72-6.95l-41.64-8.1L194.43,171.23z"/>
	<path class="st0" d="M150.48,101.83c21.37,15.49,25.37,26.66,11.31,37.02l42.54-18.5L150.48,101.83z"/>
	<path class="st0" d="M151.64,70.6c-15.04-1.16-17.35,12.72-3.47,19.66"/>
	<path class="st0" d="M118.09,168.92l-28.92-46.27c-2.31-4.62,3.47-2.31,8.1,2.31l34.7,41.64l20.83,53.21c0,2.31-2.15,1.89-3.47,0
		l-16.19-25.45L118.09,168.92z"/>
	<path class="st0" d="M255.74,67.13l-21.98-41.64c-1.16-2.31,8.1,1.16,9.26,2.31l28.92,41.64L255.74,67.13z"/>
	<path class="st0" d="M382.97,128.43l52.87-39.08c0.22-0.16,0.49-0.24,0.76-0.23l15.39,0.96c1,0.06,1.45,1.31,0.7,1.99l-50.02,45.57
		c-0.02,0.02-0.04,0.03-0.06,0.05l-42.73,33.5c-0.02,0.01-0.04,0.03-0.06,0.04l-60.54,41.12c-0.43,0.29-1,0.26-1.39-0.09l-7.6-6.65
		c-0.52-0.45-0.52-1.26,0-1.72l47.57-41.91c0.02-0.02,0.04-0.04,0.08-0.06L382.97,128.43z"/>
	<path class="st0" d="M428.09,178.18l23.14,50.9c2.31,4.62,4.62,3.47,3.47,0l-21.98-55.52L428.09,178.18z"/>
	<path class="st0" d="M286.97,155.04l6.95,13.88c2.31,3.47,3.47,2.31,2.31-1.16l-8.1-17.35L286.97,155.04z"/>
	<path class="st0" d="M155.11,73.42L120.4,19.7c-3.47-6.95,8.1-10.41,10.41-4.62L155.11,73.42z"/>
	<path class="st0" d="M157.19,82.58l-63.88,3.19c-7.74-0.46-4.97-12.22,1.2-11.33L157.19,82.58z"/>
	<path class="st0" d="M158.58,86.64l-29.17,56.91c-4.28,6.47-13.06-1.8-9.21-6.7L158.58,86.64z"/>
	<path class="st0" d="M160.53,75.49l29.17-56.91c4.28-6.47,13.06,1.8,9.21,6.7L160.53,75.49z"/>
</g>
<g id="六边形">
	<polygon class="st1" points="301.16,206.15 301.16,284.12 368.68,323.1 436.2,284.12 436.2,206.15 368.68,167.17 	"/>
</g>
</svg>
