<?xml version="1.0" encoding="utf-8"?>
<!-- Generator: Adobe Illustrator 27.5.0, SVG Export Plug-In . SVG Version: 6.00 Build 0)  -->
<svg version="1.1" id="图层_1" xmlns="http://www.w3.org/2000/svg" xmlns:xlink="http://www.w3.org/1999/xlink" x="0px" y="0px"
	 viewBox="0 0 300 300" style="enable-background:new 0 0 300 300;" xml:space="preserve">
<style type="text/css">
	.st0{fill:#FFFFFF;}
	.st1{fill:#6986A9;}
</style>
<g>
	<g>
		<g>
			<path class="st0" d="M24.23,51c-28.8,0-28.8,45,0,45H221.7c88.05,0,88.05-45,0-45H24.23z"/>
			<path class="st0" d="M253.08,58.71l8.97-7.53c0.14-0.12,0.31-0.18,0.49-0.18h15.21c0.46,0,0.83,0.43,0.83,0.96v14.08
				c0,0.53-0.37,0.96-0.83,0.96h-24.17c-0.46,0-0.83-0.43-0.83-0.96v-6.55C252.74,59.18,252.87,58.89,253.08,58.71z"/>
			<path class="st0" d="M253.09,87.41l9.01,7.53c0.14,0.12,0.31,0.18,0.49,0.18h15.28c0.46,0,0.83-0.43,0.83-0.96V80.08
				c0-0.53-0.37-0.96-0.83-0.96h-24.29c-0.46,0-0.83,0.43-0.83,0.96v6.55C252.74,86.94,252.87,87.23,253.09,87.41z"/>
			<g>
				<path class="st0" d="M285.17,73.04c0.24-6.82,0.05-13.12-1.3-18.02c-1.95-4.52,1.09-5.88,3.6-1.33
					c1.46,2.65-0.15,20.21-0.73,19.23L285.17,73.04z"/>
				<path class="st0" d="M286.37,74.96c-3.49-1.21-6.66-1.51-9,0.65c-2.08,3.39-3.1-2.81-1.06-7.33c1.19-2.63,10.27,2.47,9.84,3.52
					L286.37,74.96z"/>
				<path class="st0" d="M286.84,72.92c-0.24,6.82-0.05,13.12,1.3,18.02c1.95,4.52-1.09,5.88-3.6,1.33
					c-1.46-2.65,0.15-20.21,0.73-19.23L286.84,72.92z"/>
				<path class="st0" d="M286.15,72.02c3.49,1.21,6.66,1.51,9-0.65c2.08-3.39,3.1,2.81,1.06,7.33c-1.19,2.63-10.27-2.47-9.84-3.52
					L286.15,72.02z"/>
			</g>
		</g>
		<g>
			<path class="st0" d="M24.27,127.79c-28.8,0-28.8,45,0,45h197.47c88.05,0,88.05-45,0-45H24.27z"/>
			<path class="st0" d="M253.12,135.5l8.97-7.53c0.14-0.12,0.31-0.18,0.49-0.18h15.21c0.46,0,0.83,0.43,0.83,0.96v14.08
				c0,0.53-0.37,0.96-0.83,0.96h-24.17c-0.46,0-0.83-0.43-0.83-0.96v-6.55C252.78,135.97,252.91,135.68,253.12,135.5z"/>
			<path class="st0" d="M253.12,164.2l9.01,7.53c0.14,0.12,0.31,0.18,0.49,0.18h15.28c0.46,0,0.83-0.43,0.83-0.96v-14.08
				c0-0.53-0.37-0.96-0.83-0.96h-24.29c-0.46,0-0.83,0.43-0.83,0.96v6.55C252.78,163.73,252.91,164.02,253.12,164.2z"/>
			<g>
				<path class="st0" d="M285.21,149.83c0.24-6.82,0.05-13.12-1.3-18.02c-1.95-4.52,1.09-5.88,3.6-1.33
					c1.46,2.65-0.15,20.21-0.73,19.23L285.21,149.83z"/>
				<path class="st0" d="M286.4,151.75c-3.49-1.21-6.66-1.51-9,0.65c-2.08,3.39-3.1-2.81-1.06-7.33c1.19-2.63,10.27,2.47,9.84,3.52
					L286.4,151.75z"/>
				<path class="st0" d="M286.88,149.71c-0.24,6.82-0.05,13.12,1.3,18.02c1.95,4.52-1.09,5.88-3.6,1.33
					c-1.46-2.65,0.15-20.21,0.73-19.23L286.88,149.71z"/>
				<path class="st0" d="M286.19,148.82c3.49,1.21,6.66,1.51,9-0.65c2.08-3.39,3.1,2.81,1.06,7.33c-1.19,2.63-10.27-2.47-9.84-3.52
					L286.19,148.82z"/>
			</g>
		</g>
		<g>
			<path class="st0" d="M24.27,206.79c-28.8,0-28.8,45,0,45h197.47c88.05,0,88.05-45,0-45H24.27z"/>
			<path class="st0" d="M253.12,214.5l8.97-7.53c0.14-0.12,0.31-0.18,0.49-0.18h15.21c0.46,0,0.83,0.43,0.83,0.96v14.08
				c0,0.53-0.37,0.96-0.83,0.96h-24.17c-0.46,0-0.83-0.43-0.83-0.96v-6.55C252.78,214.97,252.91,214.68,253.12,214.5z"/>
			<path class="st0" d="M253.12,243.2l9.01,7.53c0.14,0.12,0.31,0.18,0.49,0.18h15.28c0.46,0,0.83-0.43,0.83-0.96v-14.08
				c0-0.53-0.37-0.96-0.83-0.96h-24.29c-0.46,0-0.83,0.43-0.83,0.96v6.55C252.78,242.73,252.91,243.02,253.12,243.2z"/>
			<g>
				<path class="st0" d="M285.21,228.83c0.24-6.82,0.05-13.12-1.3-18.02c-1.95-4.52,1.09-5.88,3.6-1.33
					c1.46,2.65-0.15,20.21-0.73,19.23L285.21,228.83z"/>
				<path class="st0" d="M286.4,230.75c-3.49-1.21-6.66-1.51-9,0.65c-2.08,3.39-3.1-2.81-1.06-7.33c1.19-2.63,10.27,2.47,9.84,3.52
					L286.4,230.75z"/>
				<path class="st0" d="M286.88,228.71c-0.24,6.82-0.05,13.12,1.3,18.02c1.95,4.52-1.09,5.88-3.6,1.33
					c-1.46-2.65,0.15-20.21,0.73-19.23L286.88,228.71z"/>
				<path class="st0" d="M286.19,227.82c3.49,1.21,6.66,1.51,9-0.65c2.08-3.39,3.1,2.81,1.06,7.33c-1.19,2.63-10.27-2.47-9.84-3.52
					L286.19,227.82z"/>
			</g>
		</g>
	</g>
	<g>
		<g>
			<path class="st1" d="M24.23,51c-28.8,0-28.8,45,0,45H221.7c88.05,0,88.05-45,0-45H24.23z"/>
			<path class="st1" d="M253.08,58.71l8.97-7.53c0.14-0.12,0.31-0.18,0.49-0.18h15.21c0.46,0,0.83,0.43,0.83,0.96v14.08
				c0,0.53-0.37,0.96-0.83,0.96h-24.17c-0.46,0-0.83-0.43-0.83-0.96v-6.55C252.74,59.18,252.87,58.89,253.08,58.71z"/>
			<path class="st1" d="M253.09,87.41l9.01,7.53c0.14,0.12,0.31,0.18,0.49,0.18h15.28c0.46,0,0.83-0.43,0.83-0.96V80.08
				c0-0.53-0.37-0.96-0.83-0.96h-24.29c-0.46,0-0.83,0.43-0.83,0.96v6.55C252.74,86.94,252.87,87.23,253.09,87.41z"/>
			<g>
				<path class="st1" d="M285.17,73.04c0.24-6.82,0.05-13.12-1.3-18.02c-1.95-4.52,1.09-5.88,3.6-1.33
					c1.46,2.65-0.15,20.21-0.73,19.23L285.17,73.04z"/>
				<path class="st1" d="M286.37,74.96c-3.49-1.21-6.66-1.51-9,0.65c-2.08,3.39-3.1-2.81-1.06-7.33c1.19-2.63,10.27,2.47,9.84,3.52
					L286.37,74.96z"/>
				<path class="st1" d="M286.84,72.92c-0.24,6.82-0.05,13.12,1.3,18.02c1.95,4.52-1.09,5.88-3.6,1.33
					c-1.46-2.65,0.15-20.21,0.73-19.23L286.84,72.92z"/>
				<path class="st1" d="M286.15,72.02c3.49,1.21,6.66,1.51,9-0.65c2.08-3.39,3.1,2.81,1.06,7.33c-1.19,2.63-10.27-2.47-9.84-3.52
					L286.15,72.02z"/>
			</g>
		</g>
		<g>
			<path class="st1" d="M24.27,127.79c-28.8,0-28.8,45,0,45h197.47c88.05,0,88.05-45,0-45H24.27z"/>
			<path class="st1" d="M253.12,135.5l8.97-7.53c0.14-0.12,0.31-0.18,0.49-0.18h15.21c0.46,0,0.83,0.43,0.83,0.96v14.08
				c0,0.53-0.37,0.96-0.83,0.96h-24.17c-0.46,0-0.83-0.43-0.83-0.96v-6.55C252.78,135.97,252.91,135.68,253.12,135.5z"/>
			<path class="st1" d="M253.12,164.2l9.01,7.53c0.14,0.12,0.31,0.18,0.49,0.18h15.28c0.46,0,0.83-0.43,0.83-0.96v-14.08
				c0-0.53-0.37-0.96-0.83-0.96h-24.29c-0.46,0-0.83,0.43-0.83,0.96v6.55C252.78,163.73,252.91,164.02,253.12,164.2z"/>
			<g>
				<path class="st1" d="M285.21,149.83c0.24-6.82,0.05-13.12-1.3-18.02c-1.95-4.52,1.09-5.88,3.6-1.33
					c1.46,2.65-0.15,20.21-0.73,19.23L285.21,149.83z"/>
				<path class="st1" d="M286.4,151.75c-3.49-1.21-6.66-1.51-9,0.65c-2.08,3.39-3.1-2.81-1.06-7.33c1.19-2.63,10.27,2.47,9.84,3.52
					L286.4,151.75z"/>
				<path class="st1" d="M286.88,149.71c-0.24,6.82-0.05,13.12,1.3,18.02c1.95,4.52-1.09,5.88-3.6,1.33
					c-1.46-2.65,0.15-20.21,0.73-19.23L286.88,149.71z"/>
				<path class="st1" d="M286.19,148.82c3.49,1.21,6.66,1.51,9-0.65c2.08-3.39,3.1,2.81,1.06,7.33c-1.19,2.63-10.27-2.47-9.84-3.52
					L286.19,148.82z"/>
			</g>
		</g>
		<g>
			<path class="st1" d="M24.27,206.79c-28.8,0-28.8,45,0,45h197.47c88.05,0,88.05-45,0-45H24.27z"/>
			<path class="st1" d="M253.12,214.5l8.97-7.53c0.14-0.12,0.31-0.18,0.49-0.18h15.21c0.46,0,0.83,0.43,0.83,0.96v14.08
				c0,0.53-0.37,0.96-0.83,0.96h-24.17c-0.46,0-0.83-0.43-0.83-0.96v-6.55C252.78,214.97,252.91,214.68,253.12,214.5z"/>
			<path class="st1" d="M253.12,243.2l9.01,7.53c0.14,0.12,0.31,0.18,0.49,0.18h15.28c0.46,0,0.83-0.43,0.83-0.96v-14.08
				c0-0.53-0.37-0.96-0.83-0.96h-24.29c-0.46,0-0.83,0.43-0.83,0.96v6.55C252.78,242.73,252.91,243.02,253.12,243.2z"/>
			<g>
				<path class="st1" d="M285.21,228.83c0.24-6.82,0.05-13.12-1.3-18.02c-1.95-4.52,1.09-5.88,3.6-1.33
					c1.46,2.65-0.15,20.21-0.73,19.23L285.21,228.83z"/>
				<path class="st1" d="M286.4,230.75c-3.49-1.21-6.66-1.51-9,0.65c-2.08,3.39-3.1-2.81-1.06-7.33c1.19-2.63,10.27,2.47,9.84,3.52
					L286.4,230.75z"/>
				<path class="st1" d="M286.88,228.71c-0.24,6.82-0.05,13.12,1.3,18.02c1.95,4.52-1.09,5.88-3.6,1.33
					c-1.46-2.65,0.15-20.21,0.73-19.23L286.88,228.71z"/>
				<path class="st1" d="M286.19,227.82c3.49,1.21,6.66,1.51,9-0.65c2.08-3.39,3.1,2.81,1.06,7.33c-1.19,2.63-10.27-2.47-9.84-3.52
					L286.19,227.82z"/>
			</g>
		</g>
	</g>
</g>
</svg>
