<?xml version="1.0" encoding="utf-8"?>
<!-- Generator: Adobe Illustrator 27.5.0, SVG Export Plug-In . SVG Version: 6.00 Build 0)  -->
<svg version="1.1" id="图层_1" xmlns="http://www.w3.org/2000/svg" xmlns:xlink="http://www.w3.org/1999/xlink" x="0px" y="0px"
	 viewBox="0 0 466.6 378.3" style="enable-background:new 0 0 466.6 378.3;" xml:space="preserve">
<style type="text/css">
	.st0{fill:#63B353;}
	.st1{fill:#8AD980;}
	.st2{fill:#FFD647;}
</style>
<g id="震电">
	<path class="st0" d="M262.7,75.2c106,33.4,133.8,53,170,74c27.8,16.2,17.4,34.7-10.4,30.1c-66.9-4.2-120.6-17.8-174.7-31.2
		l-89.1-39.3c-23.1-12.7-22-46.3,6.9-46.3L262.7,75.2z"/>
	<path class="st0" d="M157.4,63.7c22.1-3,59.5-3.2,108.7-1.2l31.2,26.6L157.4,63.7z"/>
	<path class="st0" d="M203.7,112.2L0.1,239.5C-1,258,10.5,264.9,19.8,260.3l248.7-123.8l34.7-41.6l71.7-82.1
		c9.3-12.7-20.8-12.7-37-5.8l-74,59L203.7,112.2z"/>
	<path class="st0" d="M194.4,171.2c25-12.3,50.3-18.6,76.3-12.7l12.7-6.9l-41.6-8.1L194.4,171.2z"/>
	<path class="st0" d="M150.5,101.8c21.4,15.5,25.4,26.7,11.3,37l42.5-18.5L150.5,101.8z"/>
	<path class="st0" d="M118.1,168.9l-28.9-46.3c-2.3-4.6,3.5-2.3,8.1,2.3l34.7,41.6l20.8,53.2c0,2.3-2.1,1.9-3.5,0l-16.2-25.4
		L118.1,168.9z"/>
	<path class="st0" d="M255.7,67.1l-22-41.6c-1.2-2.3,8.1,1.2,9.3,2.3l28.9,41.6L255.7,67.1z"/>
	<path class="st0" d="M383,128.4l52.9-39.1c0.2-0.2,0.5-0.2,0.8-0.2l15.4,1c1,0.1,1.5,1.3,0.7,2l-50,45.6c0,0,0,0-0.1,0.1
		l-42.7,33.5c0,0,0,0-0.1,0l-60.5,41.1c-0.4,0.3-1,0.3-1.4-0.1l-7.6-6.6c-0.5-0.4-0.5-1.3,0-1.7l47.6-41.9c0,0,0,0,0.1-0.1
		L383,128.4z"/>
	<path class="st0" d="M428.1,178.2l23.1,50.9c2.3,4.6,4.6,3.5,3.5,0l-22-55.5L428.1,178.2z"/>
	<path class="st0" d="M287,155l7,13.9c2.3,3.5,3.5,2.3,2.3-1.2l-8.1-17.4L287,155z"/>
</g>
<g>
	<polygon class="st1" points="310.2,278.9 310.2,211.3 368.7,177.6 427.2,211.3 427.2,278.9 368.7,312.7 	"/>
	<path class="st2" d="M368.7,187.9l49.5,28.6v57.2l-49.5,28.6l-49.5-28.6v-57.2L368.7,187.9 M368.7,167.2l-67.5,39v78l67.5,39
		l67.5-39v-78L368.7,167.2L368.7,167.2z"/>
</g>
</svg>
