<svg width="300" height="300" xmlns="http://www.w3.org/2000/svg">
  <g>
    <path d="M259.9151916503906,63.437110900878906C274.1719970703125,64.58242797851562 265.1460876464844,92.20673370361328 265.1460876464844,92.20673370361328 265.1460876464844,92.20673370361328 257.05499267578125,118.65800476074219 273.85955810546875,119.28038024902344 290.66412353515625,119.90277099609375 300,133.9063720703125 300,133.9063720703125 300,133.9063720703125 273.5483703613281,146.35403442382812 263.9012756347656,137.01829528808594 254.25421142578125,127.68254852294922 242.42880249023438,130.4832763671875 242.42880249023438,130.4832763671875 207.88607788085938,136.70709228515625 156.8500213623047,182.14105224609375 156.8500213623047,182.14105224609375L216.28842163085938,215.43902587890625C241.18408203125,247.18069458007812,192.63755798339844,233.79937744140625,192.63755798339844,233.79937744140625L94.29974365234375,192.72195434570312 43.886051177978516,203.92489624023438 53.22191619873047,226.33074951171875 49.4875602722168,229.13055419921875 27.26421356201172,195.2698974609375 8.409746170043945,206.72515869140625 5.297789573669434,201.12374877929688 22.413541793823242,179.65155029296875 0.31866174936294556,139.81918334960938C0.3186607360839844,139.81918334960938 -1.5485115051269531,131.10580444335938 4.675405025482178,130.48341369628906 10.899314880371094,129.86102294921875 26.459095001220703,164.71463012695312 26.459095001220703,164.71463012695312L38.28452682495117,154.13406372070312 0.31906408071517944,114.92366790771484C-4.037654876708984,83.18185424804688,37.66238021850586,104.9654541015625,37.66238021850586,104.9654541015625L91.8101806640625,137.32965087890625C100.83488464355469,117.72472381591797,139.11187744140625,121.1476058959961,139.11187744140625,121.1476058959961L142.22384643554688,108.07757568359375 146.58056640625,108.07757568359375 148.75894165039062,119.5916519165039C185.4800262451172,125.50428771972656,208.5084991455078,112.43424987792969,208.5084991455078,112.43424987792969L197.3054656982422,105.89923858642578C183.3016357421875,87.22776794433594,210.99806213378906,93.45159149169922,210.99806213378906,93.45159149169922L229.98098754882812,101.23136901855469C229.98098754882812,101.23136901855469 238.07208251953125,66.37785339355469 256.7438049316406,63.57712936401367 257.9107971191406,63.40208435058594 258.9647216796875,63.360755920410156 259.9151916503906,63.437110900878906z" fill="#3AB14E" />
    <path d="M232.5,180L285,206.25 285,258.75 232.5,285 180,258.75 180,206.25 232.5,180z" fill="#FFC000" stroke="#000000" stroke-width="5" />
  </g>
</svg>